<?xml version="1.0" encoding="UTF-8" standalone="no"?>
<!DOCTYPE svg PUBLIC "-//W3C//DTD SVG 1.1//EN"
 "http://www.w3.org/Graphics/SVG/1.1/DTD/svg11.dtd">
<!-- Generated by graphviz version 2.40.1 (20161225.0304)
 -->
<!-- Title: dependencies Pages: 1 -->
<svg width="1378pt" height="284pt"
 viewBox="0.00 0.00 1378.00 284.00" xmlns="http://www.w3.org/2000/svg" xmlns:xlink="http://www.w3.org/1999/xlink">
<g id="graph0" class="graph" transform="scale(1 1) rotate(0) translate(4 280)">
<title>dependencies</title>
<polygon fill="#ffffff" stroke="transparent" points="-4,4 -4,-280 1374,-280 1374,4 -4,4"/>
<text text-anchor="start" x="664.0091" y="-42.4" font-family="sans-serif" font-weight="bold" font-size="14.00" fill="#000000">Legend</text>
<polygon fill="#ffffb3" stroke="transparent" points="451,-10 451,-30 471,-30 471,-10 451,-10"/>
<text text-anchor="start" x="474.629" y="-15.4" font-family="sans-serif" font-size="14.00" fill="#000000"> &#160;Declarations</text>
<polygon fill="#8dd3c7" stroke="transparent" points="564,-10 564,-30 584,-30 584,-10 564,-10"/>
<text text-anchor="start" x="587.7251" y="-15.4" font-family="sans-serif" font-size="14.00" fill="#000000"> &#160;Module</text>
<polygon fill="#80b1d3" stroke="transparent" points="650,-10 650,-30 670,-30 670,-10 650,-10"/>
<text text-anchor="start" x="673.7812" y="-15.4" font-family="sans-serif" font-size="14.00" fill="#000000"> &#160;Bootstrap</text>
<polygon fill="#fdb462" stroke="transparent" points="747,-10 747,-30 767,-30 767,-10 747,-10"/>
<text text-anchor="start" x="770.6732" y="-15.4" font-family="sans-serif" font-size="14.00" fill="#000000"> &#160;Providers</text>
<polygon fill="#fb8072" stroke="transparent" points="843,-10 843,-30 863,-30 863,-10 843,-10"/>
<text text-anchor="start" x="866.7258" y="-15.4" font-family="sans-serif" font-size="14.00" fill="#000000"> &#160;Exports</text>
<g id="clust1" class="cluster">
<title>cluster_AppBrowserModule</title>
<polygon fill="none" stroke="#000000" stroke-dasharray="1,5" points="8,-70 8,-268 1362,-268 1362,-70 8,-70"/>
</g>
<g id="clust3" class="cluster">
<title>cluster_AppBrowserModule_imports</title>
<polygon fill="none" stroke="#000000" points="974,-78 974,-130 1354,-130 1354,-78 974,-78"/>
</g>
<g id="clust5" class="cluster">
<title>cluster_AppBrowserModule_bootstrap</title>
<polygon fill="none" stroke="#000000" points="785,-208 785,-260 909,-260 909,-208 785,-208"/>
</g>
<g id="clust6" class="cluster">
<title>cluster_AppBrowserModule_providers</title>
<polygon fill="none" stroke="#000000" points="16,-78 16,-130 966,-130 966,-78 16,-78"/>
</g>
<!-- BrowserModule.withServerTransition(args) -->
<g id="node1" class="node">
<title>BrowserModule.withServerTransition(args)</title>
<polygon fill="#8dd3c7" stroke="#000000" points="1346.0794,-122 1343.0794,-126 1322.0794,-126 1319.0794,-122 1083.9206,-122 1083.9206,-86 1346.0794,-86 1346.0794,-122"/>
<text text-anchor="middle" x="1215" y="-99.8" font-family="Times,serif" font-size="14.00" fill="#000000">BrowserModule.withServerTransition(args)</text>
</g>
<!-- AppBrowserModule -->
<g id="node3" class="node">
<title>AppBrowserModule</title>
<polygon fill="#8dd3c7" stroke="#000000" points="912.58,-187 909.58,-191 888.58,-191 885.58,-187 781.42,-187 781.42,-151 912.58,-151 912.58,-187"/>
<text text-anchor="middle" x="847" y="-164.8" font-family="Times,serif" font-size="14.00" fill="#000000">AppBrowserModule</text>
</g>
<!-- BrowserModule.withServerTransition(args)&#45;&gt;AppBrowserModule -->
<g id="edge1" class="edge">
<title>BrowserModule.withServerTransition(args)&#45;&gt;AppBrowserModule</title>
<path fill="none" stroke="#000000" d="M1215,-122.2843C1215,-143.3211 1215,-175 1215,-175 1215,-175 922.791,-175 922.791,-175"/>
<polygon fill="#000000" stroke="#000000" points="922.7911,-171.5001 912.791,-175 922.791,-178.5001 922.7911,-171.5001"/>
</g>
<!-- AppModule -->
<g id="node2" class="node">
<title>AppModule</title>
<polygon fill="#8dd3c7" stroke="#000000" points="1065.6571,-122 1062.6571,-126 1041.6571,-126 1038.6571,-122 982.3429,-122 982.3429,-86 1065.6571,-86 1065.6571,-122"/>
<text text-anchor="middle" x="1024" y="-99.8" font-family="Times,serif" font-size="14.00" fill="#000000">AppModule</text>
</g>
<!-- AppModule&#45;&gt;AppBrowserModule -->
<g id="edge2" class="edge">
<title>AppModule&#45;&gt;AppBrowserModule</title>
<path fill="none" stroke="#000000" d="M1024,-122.0225C1024,-139.3734 1024,-163 1024,-163 1024,-163 922.6567,-163 922.6567,-163"/>
<polygon fill="#000000" stroke="#000000" points="922.6568,-159.5001 912.6567,-163 922.6567,-166.5001 922.6568,-159.5001"/>
</g>
<!-- AppComponent  -->
<g id="node4" class="node">
<title>AppComponent </title>
<polygon fill="#80b1d3" stroke="#000000" points="901.439,-252 792.561,-252 792.561,-216 901.439,-216 901.439,-252"/>
<text text-anchor="middle" x="847" y="-229.8" font-family="Times,serif" font-size="14.00" fill="#000000">AppComponent </text>
</g>
<!-- AppBrowserModule&#45;&gt;AppComponent  -->
<g id="edge3" class="edge">
<title>AppBrowserModule&#45;&gt;AppComponent </title>
<path fill="none" stroke="#000000" stroke-dasharray="1,5" d="M847,-187.1061C847,-187.1061 847,-205.991 847,-205.991"/>
<polygon fill="#000000" stroke="#000000" points="843.5001,-205.9909 847,-215.991 850.5001,-205.991 843.5001,-205.9909"/>
</g>
<!-- { provide: STORAGE_CONFIG_TOKEN, useClass: BrowserStorage } -->
<g id="node5" class="node">
<title>{ provide: STORAGE_CONFIG_TOKEN, useClass: BrowserStorage }</title>
<ellipse fill="#fdb462" stroke="#000000" cx="670" cy="-104" rx="288.4746" ry="18"/>
<text text-anchor="middle" x="670" y="-99.8" font-family="Times,serif" font-size="14.00" fill="#000000">{ provide: STORAGE_CONFIG_TOKEN, useClass: BrowserStorage }</text>
</g>
<!-- { provide: STORAGE_CONFIG_TOKEN, useClass: BrowserStorage }&#45;&gt;AppBrowserModule -->
<g id="edge4" class="edge">
<title>{ provide: STORAGE_CONFIG_TOKEN, useClass: BrowserStorage }&#45;&gt;AppBrowserModule</title>
<path fill="none" stroke="#000000" d="M847,-118.4256C847,-118.4256 847,-140.8939 847,-140.8939"/>
<polygon fill="#000000" stroke="#000000" points="843.5001,-140.8938 847,-150.8939 850.5001,-140.8939 843.5001,-140.8938"/>
</g>
<!-- { provide: &#39;ORIGIN_URL&#39;, useValue: &#160;} -->
<g id="node6" class="node">
<title>{ provide: &#39;ORIGIN_URL&#39;, useValue: &#160;}</title>
<ellipse fill="#fdb462" stroke="#000000" cx="194" cy="-104" rx="169.8754" ry="18"/>
<text text-anchor="middle" x="194" y="-99.8" font-family="Times,serif" font-size="14.00" fill="#000000">{ provide: &#39;ORIGIN_URL&#39;, useValue: &#160;}</text>
</g>
<!-- { provide: &#39;ORIGIN_URL&#39;, useValue: &#160;}&#45;&gt;AppBrowserModule -->
<g id="edge5" class="edge">
<title>{ provide: &#39;ORIGIN_URL&#39;, useValue: &#160;}&#45;&gt;AppBrowserModule</title>
<path fill="none" stroke="#000000" d="M194,-122.1061C194,-141.3391 194,-169 194,-169 194,-169 771.3981,-169 771.3981,-169"/>
<polygon fill="#000000" stroke="#000000" points="771.3981,-172.5001 781.3981,-169 771.398,-165.5001 771.3981,-172.5001"/>
</g>
</g>
</svg>
