<?xml version="1.0" encoding="UTF-8" standalone="no"?>
<!DOCTYPE svg PUBLIC "-//W3C//DTD SVG 1.1//EN"
 "http://www.w3.org/Graphics/SVG/1.1/DTD/svg11.dtd">
<!-- Generated by graphviz version 2.40.1 (20161225.0304)
 -->
<!-- Title: dependencies Pages: 1 -->
<svg width="986pt" height="211pt"
 viewBox="0.00 0.00 986.00 211.00" xmlns="http://www.w3.org/2000/svg" xmlns:xlink="http://www.w3.org/1999/xlink">
<g id="graph0" class="graph" transform="scale(1 1) rotate(0) translate(4 207)">
<title>dependencies</title>
<polygon fill="#ffffff" stroke="transparent" points="-4,4 -4,-207 982,-207 982,4 -4,4"/>
<text text-anchor="start" x="468.0091" y="-42.4" font-family="sans-serif" font-weight="bold" font-size="14.00" fill="#000000">Legend</text>
<polygon fill="#ffffb3" stroke="transparent" points="255,-10 255,-30 275,-30 275,-10 255,-10"/>
<text text-anchor="start" x="278.629" y="-15.4" font-family="sans-serif" font-size="14.00" fill="#000000"> &#160;Declarations</text>
<polygon fill="#8dd3c7" stroke="transparent" points="368,-10 368,-30 388,-30 388,-10 368,-10"/>
<text text-anchor="start" x="391.7251" y="-15.4" font-family="sans-serif" font-size="14.00" fill="#000000"> &#160;Module</text>
<polygon fill="#80b1d3" stroke="transparent" points="454,-10 454,-30 474,-30 474,-10 454,-10"/>
<text text-anchor="start" x="477.7812" y="-15.4" font-family="sans-serif" font-size="14.00" fill="#000000"> &#160;Bootstrap</text>
<polygon fill="#fdb462" stroke="transparent" points="551,-10 551,-30 571,-30 571,-10 551,-10"/>
<text text-anchor="start" x="574.6732" y="-15.4" font-family="sans-serif" font-size="14.00" fill="#000000"> &#160;Providers</text>
<polygon fill="#fb8072" stroke="transparent" points="647,-10 647,-30 667,-30 667,-10 647,-10"/>
<text text-anchor="start" x="670.7258" y="-15.4" font-family="sans-serif" font-size="14.00" fill="#000000"> &#160;Exports</text>
<g id="clust1" class="cluster">
<title>cluster_ProjectsPageModule</title>
<polygon fill="none" stroke="#000000" stroke-dasharray="1,5" points="8,-70 8,-195 970,-195 970,-70 8,-70"/>
</g>
<g id="clust2" class="cluster">
<title>cluster_ProjectsPageModule_declarations</title>
<polygon fill="none" stroke="#000000" points="792,-78 792,-130 962,-130 962,-78 792,-78"/>
</g>
<g id="clust4" class="cluster">
<title>cluster_ProjectsPageModule_imports</title>
<polygon fill="none" stroke="#000000" points="16,-78 16,-130 784,-130 784,-78 16,-78"/>
</g>
<!-- ProjectsPageComponent -->
<g id="node1" class="node">
<title>ProjectsPageComponent</title>
<polygon fill="#ffffb3" stroke="#000000" points="953.6428,-122 800.3572,-122 800.3572,-86 953.6428,-86 953.6428,-122"/>
<text text-anchor="middle" x="877" y="-99.8" font-family="Times,serif" font-size="14.00" fill="#000000">ProjectsPageComponent</text>
</g>
<!-- ProjectsPageModule -->
<g id="node2" class="node">
<title>ProjectsPageModule</title>
<polygon fill="#8dd3c7" stroke="#000000" points="604.8599,-187 601.8599,-191 580.8599,-191 577.8599,-187 473.1401,-187 473.1401,-151 604.8599,-151 604.8599,-187"/>
<text text-anchor="middle" x="539" y="-164.8" font-family="Times,serif" font-size="14.00" fill="#000000">ProjectsPageModule</text>
</g>
<!-- ProjectsPageComponent&#45;&gt;ProjectsPageModule -->
<g id="edge1" class="edge">
<title>ProjectsPageComponent&#45;&gt;ProjectsPageModule</title>
<path fill="none" stroke="#000000" d="M877,-122.2843C877,-143.3211 877,-175 877,-175 877,-175 614.9722,-175 614.9722,-175"/>
<polygon fill="#000000" stroke="#000000" points="614.9722,-171.5001 604.9722,-175 614.9721,-178.5001 614.9722,-171.5001"/>
</g>
<!-- CommonModule -->
<g id="node3" class="node">
<title>CommonModule</title>
<polygon fill="#8dd3c7" stroke="#000000" points="775.6681,-122 772.6681,-126 751.6681,-126 748.6681,-122 664.3319,-122 664.3319,-86 775.6681,-86 775.6681,-122"/>
<text text-anchor="middle" x="720" y="-99.8" font-family="Times,serif" font-size="14.00" fill="#000000">CommonModule</text>
</g>
<!-- CommonModule&#45;&gt;ProjectsPageModule -->
<g id="edge2" class="edge">
<title>CommonModule&#45;&gt;ProjectsPageModule</title>
<path fill="none" stroke="#000000" d="M720,-122.0225C720,-139.3734 720,-163 720,-163 720,-163 615.1135,-163 615.1135,-163"/>
<polygon fill="#000000" stroke="#000000" points="615.1135,-159.5001 605.1135,-163 615.1134,-166.5001 615.1135,-159.5001"/>
</g>
<!-- IonicModule -->
<g id="node4" class="node">
<title>IonicModule</title>
<polygon fill="#8dd3c7" stroke="#000000" points="646.3162,-122 643.3162,-126 622.3162,-126 619.3162,-122 557.6838,-122 557.6838,-86 646.3162,-86 646.3162,-122"/>
<text text-anchor="middle" x="602" y="-99.8" font-family="Times,serif" font-size="14.00" fill="#000000">IonicModule</text>
</g>
<!-- IonicModule&#45;&gt;ProjectsPageModule -->
<g id="edge3" class="edge">
<title>IonicModule&#45;&gt;ProjectsPageModule</title>
<path fill="none" stroke="#000000" d="M581.3861,-122.1061C581.3861,-122.1061 581.3861,-140.991 581.3861,-140.991"/>
<polygon fill="#000000" stroke="#000000" points="577.8861,-140.9909 581.3861,-150.991 584.8861,-140.991 577.8861,-140.9909"/>
</g>
<!-- ProjectsListModule -->
<g id="node5" class="node">
<title>ProjectsListModule</title>
<polygon fill="#8dd3c7" stroke="#000000" points="540.4271,-122 537.4271,-126 516.4271,-126 513.4271,-122 413.5729,-122 413.5729,-86 540.4271,-86 540.4271,-122"/>
<text text-anchor="middle" x="477" y="-99.8" font-family="Times,serif" font-size="14.00" fill="#000000">ProjectsListModule</text>
</g>
<!-- ProjectsListModule&#45;&gt;ProjectsPageModule -->
<g id="edge4" class="edge">
<title>ProjectsListModule&#45;&gt;ProjectsPageModule</title>
<path fill="none" stroke="#000000" d="M506.6417,-122.1061C506.6417,-122.1061 506.6417,-140.991 506.6417,-140.991"/>
<polygon fill="#000000" stroke="#000000" points="503.1417,-140.9909 506.6417,-150.991 510.1417,-140.991 503.1417,-140.9909"/>
</g>
<!-- TranslateModule.forChild() -->
<g id="node6" class="node">
<title>TranslateModule.forChild()</title>
<polygon fill="#8dd3c7" stroke="#000000" points="395.8928,-122 392.8928,-126 371.8928,-126 368.8928,-122 224.1072,-122 224.1072,-86 395.8928,-86 395.8928,-122"/>
<text text-anchor="middle" x="310" y="-99.8" font-family="Times,serif" font-size="14.00" fill="#000000">TranslateModule.forChild()</text>
</g>
<!-- TranslateModule.forChild()&#45;&gt;ProjectsPageModule -->
<g id="edge5" class="edge">
<title>TranslateModule.forChild()&#45;&gt;ProjectsPageModule</title>
<path fill="none" stroke="#000000" d="M310,-122.0225C310,-139.3734 310,-163 310,-163 310,-163 463.0709,-163 463.0709,-163"/>
<polygon fill="#000000" stroke="#000000" points="463.071,-166.5001 473.0709,-163 463.0709,-159.5001 463.071,-166.5001"/>
</g>
<!-- RouterModule.forChild(args) -->
<g id="node7" class="node">
<title>RouterModule.forChild(args)</title>
<polygon fill="#8dd3c7" stroke="#000000" points="205.7323,-122 202.7323,-126 181.7323,-126 178.7323,-122 24.2677,-122 24.2677,-86 205.7323,-86 205.7323,-122"/>
<text text-anchor="middle" x="115" y="-99.8" font-family="Times,serif" font-size="14.00" fill="#000000">RouterModule.forChild(args)</text>
</g>
<!-- RouterModule.forChild(args)&#45;&gt;ProjectsPageModule -->
<g id="edge6" class="edge">
<title>RouterModule.forChild(args)&#45;&gt;ProjectsPageModule</title>
<path fill="none" stroke="#000000" d="M115,-122.2843C115,-143.3211 115,-175 115,-175 115,-175 462.75,-175 462.75,-175"/>
<polygon fill="#000000" stroke="#000000" points="462.75,-178.5001 472.75,-175 462.75,-171.5001 462.75,-178.5001"/>
</g>
</g>
</svg>
