<?xml version="1.0" encoding="UTF-8" standalone="no"?>
<!DOCTYPE svg PUBLIC "-//W3C//DTD SVG 1.1//EN"
 "http://www.w3.org/Graphics/SVG/1.1/DTD/svg11.dtd">
<!-- Generated by graphviz version 2.40.1 (20161225.0304)
 -->
<!-- Title: dependencies Pages: 1 -->
<svg width="806pt" height="211pt"
 viewBox="0.00 0.00 806.00 211.00" xmlns="http://www.w3.org/2000/svg" xmlns:xlink="http://www.w3.org/1999/xlink">
<g id="graph0" class="graph" transform="scale(1 1) rotate(0) translate(4 207)">
<title>dependencies</title>
<polygon fill="#ffffff" stroke="transparent" points="-4,4 -4,-207 802,-207 802,4 -4,4"/>
<text text-anchor="start" x="378.0091" y="-42.4" font-family="sans-serif" font-weight="bold" font-size="14.00" fill="#000000">Legend</text>
<polygon fill="#ffffb3" stroke="transparent" points="165,-10 165,-30 185,-30 185,-10 165,-10"/>
<text text-anchor="start" x="188.629" y="-15.4" font-family="sans-serif" font-size="14.00" fill="#000000"> &#160;Declarations</text>
<polygon fill="#8dd3c7" stroke="transparent" points="278,-10 278,-30 298,-30 298,-10 278,-10"/>
<text text-anchor="start" x="301.7251" y="-15.4" font-family="sans-serif" font-size="14.00" fill="#000000"> &#160;Module</text>
<polygon fill="#80b1d3" stroke="transparent" points="364,-10 364,-30 384,-30 384,-10 364,-10"/>
<text text-anchor="start" x="387.7812" y="-15.4" font-family="sans-serif" font-size="14.00" fill="#000000"> &#160;Bootstrap</text>
<polygon fill="#fdb462" stroke="transparent" points="461,-10 461,-30 481,-30 481,-10 461,-10"/>
<text text-anchor="start" x="484.6732" y="-15.4" font-family="sans-serif" font-size="14.00" fill="#000000"> &#160;Providers</text>
<polygon fill="#fb8072" stroke="transparent" points="557,-10 557,-30 577,-30 577,-10 557,-10"/>
<text text-anchor="start" x="580.7258" y="-15.4" font-family="sans-serif" font-size="14.00" fill="#000000"> &#160;Exports</text>
<g id="clust1" class="cluster">
<title>cluster_ProjectsPageModule</title>
<polygon fill="none" stroke="#000000" stroke-dasharray="1,5" points="8,-70 8,-195 790,-195 790,-70 8,-70"/>
</g>
<g id="clust2" class="cluster">
<title>cluster_ProjectsPageModule_declarations</title>
<polygon fill="none" stroke="#000000" points="612,-78 612,-130 782,-130 782,-78 612,-78"/>
</g>
<g id="clust4" class="cluster">
<title>cluster_ProjectsPageModule_imports</title>
<polygon fill="none" stroke="#000000" points="16,-78 16,-130 604,-130 604,-78 16,-78"/>
</g>
<!-- ProjectsPageComponent -->
<g id="node1" class="node">
<title>ProjectsPageComponent</title>
<polygon fill="#ffffb3" stroke="#000000" points="773.6428,-122 620.3572,-122 620.3572,-86 773.6428,-86 773.6428,-122"/>
<text text-anchor="middle" x="697" y="-99.8" font-family="Times,serif" font-size="14.00" fill="#000000">ProjectsPageComponent</text>
</g>
<!-- ProjectsPageModule -->
<g id="node2" class="node">
<title>ProjectsPageModule</title>
<polygon fill="#8dd3c7" stroke="#000000" points="482.8599,-187 479.8599,-191 458.8599,-191 455.8599,-187 351.1401,-187 351.1401,-151 482.8599,-151 482.8599,-187"/>
<text text-anchor="middle" x="417" y="-164.8" font-family="Times,serif" font-size="14.00" fill="#000000">ProjectsPageModule</text>
</g>
<!-- ProjectsPageComponent&#45;&gt;ProjectsPageModule -->
<g id="edge1" class="edge">
<title>ProjectsPageComponent&#45;&gt;ProjectsPageModule</title>
<path fill="none" stroke="#000000" d="M697,-122.1061C697,-141.3391 697,-169 697,-169 697,-169 493.0015,-169 493.0015,-169"/>
<polygon fill="#000000" stroke="#000000" points="493.0016,-165.5001 483.0015,-169 493.0015,-172.5001 493.0016,-165.5001"/>
</g>
<!-- CommonModule -->
<g id="node3" class="node">
<title>CommonModule</title>
<polygon fill="#8dd3c7" stroke="#000000" points="595.6681,-122 592.6681,-126 571.6681,-126 568.6681,-122 484.3319,-122 484.3319,-86 595.6681,-86 595.6681,-122"/>
<text text-anchor="middle" x="540" y="-99.8" font-family="Times,serif" font-size="14.00" fill="#000000">CommonModule</text>
</g>
<!-- CommonModule&#45;&gt;ProjectsPageModule -->
<g id="edge2" class="edge">
<title>CommonModule&#45;&gt;ProjectsPageModule</title>
<path fill="none" stroke="#000000" d="M484.2248,-104C478.4083,-104 474.5705,-104 474.5705,-104 474.5705,-104 474.5705,-140.8939 474.5705,-140.8939"/>
<polygon fill="#000000" stroke="#000000" points="471.0706,-140.8938 474.5705,-150.8939 478.0706,-140.8939 471.0706,-140.8938"/>
</g>
<!-- SharedModule -->
<g id="node4" class="node">
<title>SharedModule</title>
<polygon fill="#8dd3c7" stroke="#000000" points="466.4231,-122 463.4231,-126 442.4231,-126 439.4231,-122 367.5769,-122 367.5769,-86 466.4231,-86 466.4231,-122"/>
<text text-anchor="middle" x="417" y="-99.8" font-family="Times,serif" font-size="14.00" fill="#000000">SharedModule</text>
</g>
<!-- SharedModule&#45;&gt;ProjectsPageModule -->
<g id="edge3" class="edge">
<title>SharedModule&#45;&gt;ProjectsPageModule</title>
<path fill="none" stroke="#000000" d="M417,-122.1061C417,-122.1061 417,-140.991 417,-140.991"/>
<polygon fill="#000000" stroke="#000000" points="413.5001,-140.9909 417,-150.991 420.5001,-140.991 413.5001,-140.9909"/>
</g>
<!-- ProjectsListModule -->
<g id="node5" class="node">
<title>ProjectsListModule</title>
<polygon fill="#8dd3c7" stroke="#000000" points="350.4271,-122 347.4271,-126 326.4271,-126 323.4271,-122 223.5729,-122 223.5729,-86 350.4271,-86 350.4271,-122"/>
<text text-anchor="middle" x="287" y="-99.8" font-family="Times,serif" font-size="14.00" fill="#000000">ProjectsListModule</text>
</g>
<!-- ProjectsListModule&#45;&gt;ProjectsPageModule -->
<g id="edge4" class="edge">
<title>ProjectsListModule&#45;&gt;ProjectsPageModule</title>
<path fill="none" stroke="#000000" d="M350.2563,-104C355.8387,-104 359.4295,-104 359.4295,-104 359.4295,-104 359.4295,-140.8939 359.4295,-140.8939"/>
<polygon fill="#000000" stroke="#000000" points="355.9296,-140.8938 359.4295,-150.8939 362.9296,-140.8939 355.9296,-140.8938"/>
</g>
<!-- RouterModule.forChild(args) -->
<g id="node6" class="node">
<title>RouterModule.forChild(args)</title>
<polygon fill="#8dd3c7" stroke="#000000" points="205.7323,-122 202.7323,-126 181.7323,-126 178.7323,-122 24.2677,-122 24.2677,-86 205.7323,-86 205.7323,-122"/>
<text text-anchor="middle" x="115" y="-99.8" font-family="Times,serif" font-size="14.00" fill="#000000">RouterModule.forChild(args)</text>
</g>
<!-- RouterModule.forChild(args)&#45;&gt;ProjectsPageModule -->
<g id="edge5" class="edge">
<title>RouterModule.forChild(args)&#45;&gt;ProjectsPageModule</title>
<path fill="none" stroke="#000000" d="M115,-122.1061C115,-141.3391 115,-169 115,-169 115,-169 341.098,-169 341.098,-169"/>
<polygon fill="#000000" stroke="#000000" points="341.098,-172.5001 351.098,-169 341.098,-165.5001 341.098,-172.5001"/>
</g>
</g>
</svg>
