<?xml version="1.0" encoding="UTF-8" standalone="no"?>
<!DOCTYPE svg PUBLIC "-//W3C//DTD SVG 1.1//EN"
 "http://www.w3.org/Graphics/SVG/1.1/DTD/svg11.dtd">
<!-- Generated by graphviz version 2.40.1 (20161225.0304)
 -->
<!-- Title: dependencies Pages: 1 -->
<svg width="790pt" height="211pt"
 viewBox="0.00 0.00 790.00 211.00" xmlns="http://www.w3.org/2000/svg" xmlns:xlink="http://www.w3.org/1999/xlink">
<g id="graph0" class="graph" transform="scale(1 1) rotate(0) translate(4 207)">
<title>dependencies</title>
<polygon fill="#ffffff" stroke="transparent" points="-4,4 -4,-207 786,-207 786,4 -4,4"/>
<text text-anchor="start" x="370.0091" y="-42.4" font-family="sans-serif" font-weight="bold" font-size="14.00" fill="#000000">Legend</text>
<polygon fill="#ffffb3" stroke="transparent" points="157,-10 157,-30 177,-30 177,-10 157,-10"/>
<text text-anchor="start" x="180.629" y="-15.4" font-family="sans-serif" font-size="14.00" fill="#000000"> &#160;Declarations</text>
<polygon fill="#8dd3c7" stroke="transparent" points="270,-10 270,-30 290,-30 290,-10 270,-10"/>
<text text-anchor="start" x="293.7251" y="-15.4" font-family="sans-serif" font-size="14.00" fill="#000000"> &#160;Module</text>
<polygon fill="#80b1d3" stroke="transparent" points="356,-10 356,-30 376,-30 376,-10 356,-10"/>
<text text-anchor="start" x="379.7812" y="-15.4" font-family="sans-serif" font-size="14.00" fill="#000000"> &#160;Bootstrap</text>
<polygon fill="#fdb462" stroke="transparent" points="453,-10 453,-30 473,-30 473,-10 453,-10"/>
<text text-anchor="start" x="476.6732" y="-15.4" font-family="sans-serif" font-size="14.00" fill="#000000"> &#160;Providers</text>
<polygon fill="#fb8072" stroke="transparent" points="549,-10 549,-30 569,-30 569,-10 549,-10"/>
<text text-anchor="start" x="572.7258" y="-15.4" font-family="sans-serif" font-size="14.00" fill="#000000"> &#160;Exports</text>
<g id="clust1" class="cluster">
<title>cluster_TasksFrameModule</title>
<polygon fill="none" stroke="#000000" stroke-dasharray="1,5" points="8,-70 8,-195 774,-195 774,-70 8,-70"/>
</g>
<g id="clust2" class="cluster">
<title>cluster_TasksFrameModule_declarations</title>
<polygon fill="none" stroke="#000000" points="600,-78 600,-130 766,-130 766,-78 600,-78"/>
</g>
<g id="clust4" class="cluster">
<title>cluster_TasksFrameModule_imports</title>
<polygon fill="none" stroke="#000000" points="16,-78 16,-130 592,-130 592,-78 16,-78"/>
</g>
<!-- TasksFrameComponent -->
<g id="node1" class="node">
<title>TasksFrameComponent</title>
<polygon fill="#ffffb3" stroke="#000000" points="757.752,-122 608.248,-122 608.248,-86 757.752,-86 757.752,-122"/>
<text text-anchor="middle" x="683" y="-99.8" font-family="Times,serif" font-size="14.00" fill="#000000">TasksFrameComponent</text>
</g>
<!-- TasksFrameModule -->
<g id="node2" class="node">
<title>TasksFrameModule</title>
<polygon fill="#8dd3c7" stroke="#000000" points="468.9692,-187 465.9692,-191 444.9692,-191 441.9692,-187 341.0308,-187 341.0308,-151 468.9692,-151 468.9692,-187"/>
<text text-anchor="middle" x="405" y="-164.8" font-family="Times,serif" font-size="14.00" fill="#000000">TasksFrameModule</text>
</g>
<!-- TasksFrameComponent&#45;&gt;TasksFrameModule -->
<g id="edge1" class="edge">
<title>TasksFrameComponent&#45;&gt;TasksFrameModule</title>
<path fill="none" stroke="#000000" d="M683,-122.1061C683,-141.3391 683,-169 683,-169 683,-169 479.1279,-169 479.1279,-169"/>
<polygon fill="#000000" stroke="#000000" points="479.1279,-165.5001 469.1279,-169 479.1278,-172.5001 479.1279,-165.5001"/>
</g>
<!-- CommonModule -->
<g id="node3" class="node">
<title>CommonModule</title>
<polygon fill="#8dd3c7" stroke="#000000" points="583.6681,-122 580.6681,-126 559.6681,-126 556.6681,-122 472.3319,-122 472.3319,-86 583.6681,-86 583.6681,-122"/>
<text text-anchor="middle" x="528" y="-99.8" font-family="Times,serif" font-size="14.00" fill="#000000">CommonModule</text>
</g>
<!-- CommonModule&#45;&gt;TasksFrameModule -->
<g id="edge2" class="edge">
<title>CommonModule&#45;&gt;TasksFrameModule</title>
<path fill="none" stroke="#000000" d="M472.2665,-104C465.8787,-104 461.5979,-104 461.5979,-104 461.5979,-104 461.5979,-140.8939 461.5979,-140.8939"/>
<polygon fill="#000000" stroke="#000000" points="458.0979,-140.8938 461.5979,-150.8939 465.0979,-140.8939 458.0979,-140.8938"/>
</g>
<!-- SharedModule -->
<g id="node4" class="node">
<title>SharedModule</title>
<polygon fill="#8dd3c7" stroke="#000000" points="454.4231,-122 451.4231,-126 430.4231,-126 427.4231,-122 355.5769,-122 355.5769,-86 454.4231,-86 454.4231,-122"/>
<text text-anchor="middle" x="405" y="-99.8" font-family="Times,serif" font-size="14.00" fill="#000000">SharedModule</text>
</g>
<!-- SharedModule&#45;&gt;TasksFrameModule -->
<g id="edge3" class="edge">
<title>SharedModule&#45;&gt;TasksFrameModule</title>
<path fill="none" stroke="#000000" d="M405,-122.1061C405,-122.1061 405,-140.991 405,-140.991"/>
<polygon fill="#000000" stroke="#000000" points="401.5001,-140.9909 405,-150.991 408.5001,-140.991 401.5001,-140.9909"/>
</g>
<!-- TasksListModule -->
<g id="node5" class="node">
<title>TasksListModule</title>
<polygon fill="#8dd3c7" stroke="#000000" points="337.9846,-122 334.9846,-126 313.9846,-126 310.9846,-122 224.0154,-122 224.0154,-86 337.9846,-86 337.9846,-122"/>
<text text-anchor="middle" x="281" y="-99.8" font-family="Times,serif" font-size="14.00" fill="#000000">TasksListModule</text>
</g>
<!-- TasksListModule&#45;&gt;TasksFrameModule -->
<g id="edge4" class="edge">
<title>TasksListModule&#45;&gt;TasksFrameModule</title>
<path fill="none" stroke="#000000" d="M338.1652,-104C344.3201,-104 348.4022,-104 348.4022,-104 348.4022,-104 348.4022,-140.8939 348.4022,-140.8939"/>
<polygon fill="#000000" stroke="#000000" points="344.9022,-140.8938 348.4022,-150.8939 351.9022,-140.8939 344.9022,-140.8938"/>
</g>
<!-- RouterModule.forChild(args) -->
<g id="node6" class="node">
<title>RouterModule.forChild(args)</title>
<polygon fill="#8dd3c7" stroke="#000000" points="205.7323,-122 202.7323,-126 181.7323,-126 178.7323,-122 24.2677,-122 24.2677,-86 205.7323,-86 205.7323,-122"/>
<text text-anchor="middle" x="115" y="-99.8" font-family="Times,serif" font-size="14.00" fill="#000000">RouterModule.forChild(args)</text>
</g>
<!-- RouterModule.forChild(args)&#45;&gt;TasksFrameModule -->
<g id="edge5" class="edge">
<title>RouterModule.forChild(args)&#45;&gt;TasksFrameModule</title>
<path fill="none" stroke="#000000" d="M115,-122.1061C115,-141.3391 115,-169 115,-169 115,-169 330.9993,-169 330.9993,-169"/>
<polygon fill="#000000" stroke="#000000" points="330.9993,-172.5001 340.9993,-169 330.9992,-165.5001 330.9993,-172.5001"/>
</g>
</g>
</svg>
