<?xml version="1.0" encoding="UTF-8" standalone="no"?>
<!DOCTYPE svg PUBLIC "-//W3C//DTD SVG 1.1//EN"
 "http://www.w3.org/Graphics/SVG/1.1/DTD/svg11.dtd">
<!-- Generated by graphviz version 2.40.1 (20161225.0304)
 -->
<!-- Title: dependencies Pages: 1 -->
<svg width="1078pt" height="211pt"
 viewBox="0.00 0.00 1078.00 211.00" xmlns="http://www.w3.org/2000/svg" xmlns:xlink="http://www.w3.org/1999/xlink">
<g id="graph0" class="graph" transform="scale(1 1) rotate(0) translate(4 207)">
<title>dependencies</title>
<polygon fill="#ffffff" stroke="transparent" points="-4,4 -4,-207 1074,-207 1074,4 -4,4"/>
<text text-anchor="start" x="514.0091" y="-42.4" font-family="sans-serif" font-weight="bold" font-size="14.00" fill="#000000">Legend</text>
<polygon fill="#ffffb3" stroke="transparent" points="301,-10 301,-30 321,-30 321,-10 301,-10"/>
<text text-anchor="start" x="324.629" y="-15.4" font-family="sans-serif" font-size="14.00" fill="#000000"> &#160;Declarations</text>
<polygon fill="#8dd3c7" stroke="transparent" points="414,-10 414,-30 434,-30 434,-10 414,-10"/>
<text text-anchor="start" x="437.7251" y="-15.4" font-family="sans-serif" font-size="14.00" fill="#000000"> &#160;Module</text>
<polygon fill="#80b1d3" stroke="transparent" points="500,-10 500,-30 520,-30 520,-10 500,-10"/>
<text text-anchor="start" x="523.7812" y="-15.4" font-family="sans-serif" font-size="14.00" fill="#000000"> &#160;Bootstrap</text>
<polygon fill="#fdb462" stroke="transparent" points="597,-10 597,-30 617,-30 617,-10 597,-10"/>
<text text-anchor="start" x="620.6732" y="-15.4" font-family="sans-serif" font-size="14.00" fill="#000000"> &#160;Providers</text>
<polygon fill="#fb8072" stroke="transparent" points="693,-10 693,-30 713,-30 713,-10 693,-10"/>
<text text-anchor="start" x="716.7258" y="-15.4" font-family="sans-serif" font-size="14.00" fill="#000000"> &#160;Exports</text>
<g id="clust1" class="cluster">
<title>cluster_TasksFrameModule</title>
<polygon fill="none" stroke="#000000" stroke-dasharray="1,5" points="8,-70 8,-195 1062,-195 1062,-70 8,-70"/>
</g>
<g id="clust2" class="cluster">
<title>cluster_TasksFrameModule_declarations</title>
<polygon fill="none" stroke="#000000" points="888,-78 888,-130 1054,-130 1054,-78 888,-78"/>
</g>
<g id="clust4" class="cluster">
<title>cluster_TasksFrameModule_imports</title>
<polygon fill="none" stroke="#000000" points="16,-78 16,-130 880,-130 880,-78 16,-78"/>
</g>
<!-- TasksFrameComponent -->
<g id="node1" class="node">
<title>TasksFrameComponent</title>
<polygon fill="#ffffb3" stroke="#000000" points="1045.752,-122 896.248,-122 896.248,-86 1045.752,-86 1045.752,-122"/>
<text text-anchor="middle" x="971" y="-99.8" font-family="Times,serif" font-size="14.00" fill="#000000">TasksFrameComponent</text>
</g>
<!-- TasksFrameModule -->
<g id="node2" class="node">
<title>TasksFrameModule</title>
<polygon fill="#8dd3c7" stroke="#000000" points="654.9692,-187 651.9692,-191 630.9692,-191 627.9692,-187 527.0308,-187 527.0308,-151 654.9692,-151 654.9692,-187"/>
<text text-anchor="middle" x="591" y="-164.8" font-family="Times,serif" font-size="14.00" fill="#000000">TasksFrameModule</text>
</g>
<!-- TasksFrameComponent&#45;&gt;TasksFrameModule -->
<g id="edge1" class="edge">
<title>TasksFrameComponent&#45;&gt;TasksFrameModule</title>
<path fill="none" stroke="#000000" d="M971,-122.2843C971,-143.3211 971,-175 971,-175 971,-175 665.0321,-175 665.0321,-175"/>
<polygon fill="#000000" stroke="#000000" points="665.0322,-171.5001 655.0321,-175 665.0321,-178.5001 665.0322,-171.5001"/>
</g>
<!-- CommonModule -->
<g id="node3" class="node">
<title>CommonModule</title>
<polygon fill="#8dd3c7" stroke="#000000" points="871.6681,-122 868.6681,-126 847.6681,-126 844.6681,-122 760.3319,-122 760.3319,-86 871.6681,-86 871.6681,-122"/>
<text text-anchor="middle" x="816" y="-99.8" font-family="Times,serif" font-size="14.00" fill="#000000">CommonModule</text>
</g>
<!-- CommonModule&#45;&gt;TasksFrameModule -->
<g id="edge2" class="edge">
<title>CommonModule&#45;&gt;TasksFrameModule</title>
<path fill="none" stroke="#000000" d="M816,-122.0225C816,-139.3734 816,-163 816,-163 816,-163 665.1749,-163 665.1749,-163"/>
<polygon fill="#000000" stroke="#000000" points="665.1749,-159.5001 655.1749,-163 665.1748,-166.5001 665.1749,-159.5001"/>
</g>
<!-- IonicModule -->
<g id="node4" class="node">
<title>IonicModule</title>
<polygon fill="#8dd3c7" stroke="#000000" points="742.3162,-122 739.3162,-126 718.3162,-126 715.3162,-122 653.6838,-122 653.6838,-86 742.3162,-86 742.3162,-122"/>
<text text-anchor="middle" x="698" y="-99.8" font-family="Times,serif" font-size="14.00" fill="#000000">IonicModule</text>
</g>
<!-- IonicModule&#45;&gt;TasksFrameModule -->
<g id="edge3" class="edge">
<title>IonicModule&#45;&gt;TasksFrameModule</title>
<path fill="none" stroke="#000000" d="M653.6614,-104C648.4216,-104 644.8917,-104 644.8917,-104 644.8917,-104 644.8917,-140.8939 644.8917,-140.8939"/>
<polygon fill="#000000" stroke="#000000" points="641.3917,-140.8938 644.8917,-150.8939 648.3917,-140.8939 641.3917,-140.8938"/>
</g>
<!-- PipesModule -->
<g id="node5" class="node">
<title>PipesModule</title>
<polygon fill="#8dd3c7" stroke="#000000" points="635.8823,-122 632.8823,-126 611.8823,-126 608.8823,-122 546.1177,-122 546.1177,-86 635.8823,-86 635.8823,-122"/>
<text text-anchor="middle" x="591" y="-99.8" font-family="Times,serif" font-size="14.00" fill="#000000">PipesModule</text>
</g>
<!-- PipesModule&#45;&gt;TasksFrameModule -->
<g id="edge4" class="edge">
<title>PipesModule&#45;&gt;TasksFrameModule</title>
<path fill="none" stroke="#000000" d="M591,-122.1061C591,-122.1061 591,-140.991 591,-140.991"/>
<polygon fill="#000000" stroke="#000000" points="587.5001,-140.9909 591,-150.991 594.5001,-140.991 587.5001,-140.9909"/>
</g>
<!-- TasksListModule -->
<g id="node6" class="node">
<title>TasksListModule</title>
<polygon fill="#8dd3c7" stroke="#000000" points="527.9846,-122 524.9846,-126 503.9846,-126 500.9846,-122 414.0154,-122 414.0154,-86 527.9846,-86 527.9846,-122"/>
<text text-anchor="middle" x="471" y="-99.8" font-family="Times,serif" font-size="14.00" fill="#000000">TasksListModule</text>
</g>
<!-- TasksListModule&#45;&gt;TasksFrameModule -->
<g id="edge5" class="edge">
<title>TasksListModule&#45;&gt;TasksFrameModule</title>
<path fill="none" stroke="#000000" d="M528.1211,-104C533.5186,-104 537.0256,-104 537.0256,-104 537.0256,-104 537.0256,-140.8939 537.0256,-140.8939"/>
<polygon fill="#000000" stroke="#000000" points="533.5257,-140.8938 537.0256,-150.8939 540.5257,-140.8939 533.5257,-140.8938"/>
</g>
<!-- TranslateModule.forChild() -->
<g id="node7" class="node">
<title>TranslateModule.forChild()</title>
<polygon fill="#8dd3c7" stroke="#000000" points="395.8928,-122 392.8928,-126 371.8928,-126 368.8928,-122 224.1072,-122 224.1072,-86 395.8928,-86 395.8928,-122"/>
<text text-anchor="middle" x="310" y="-99.8" font-family="Times,serif" font-size="14.00" fill="#000000">TranslateModule.forChild()</text>
</g>
<!-- TranslateModule.forChild()&#45;&gt;TasksFrameModule -->
<g id="edge6" class="edge">
<title>TranslateModule.forChild()&#45;&gt;TasksFrameModule</title>
<path fill="none" stroke="#000000" d="M310,-122.0225C310,-139.3734 310,-163 310,-163 310,-163 516.8851,-163 516.8851,-163"/>
<polygon fill="#000000" stroke="#000000" points="516.8852,-166.5001 526.8851,-163 516.8851,-159.5001 516.8852,-166.5001"/>
</g>
<!-- RouterModule.forChild(args) -->
<g id="node8" class="node">
<title>RouterModule.forChild(args)</title>
<polygon fill="#8dd3c7" stroke="#000000" points="205.7323,-122 202.7323,-126 181.7323,-126 178.7323,-122 24.2677,-122 24.2677,-86 205.7323,-86 205.7323,-122"/>
<text text-anchor="middle" x="115" y="-99.8" font-family="Times,serif" font-size="14.00" fill="#000000">RouterModule.forChild(args)</text>
</g>
<!-- RouterModule.forChild(args)&#45;&gt;TasksFrameModule -->
<g id="edge7" class="edge">
<title>RouterModule.forChild(args)&#45;&gt;TasksFrameModule</title>
<path fill="none" stroke="#000000" d="M115,-122.2843C115,-143.3211 115,-175 115,-175 115,-175 516.8045,-175 516.8045,-175"/>
<polygon fill="#000000" stroke="#000000" points="516.8046,-178.5001 526.8045,-175 516.8045,-171.5001 516.8046,-178.5001"/>
</g>
</g>
</svg>
