<?xml version="1.0" encoding="UTF-8" standalone="no"?>
<!DOCTYPE svg PUBLIC "-//W3C//DTD SVG 1.1//EN"
 "http://www.w3.org/Graphics/SVG/1.1/DTD/svg11.dtd">
<!-- Generated by graphviz version 2.40.1 (20161225.0304)
 -->
<!-- Title: dependencies Pages: 1 -->
<svg width="10108pt" height="284pt"
 viewBox="0.00 0.00 10108.00 284.00" xmlns="http://www.w3.org/2000/svg" xmlns:xlink="http://www.w3.org/1999/xlink">
<g id="graph0" class="graph" transform="scale(1 1) rotate(0) translate(4 280)">
<title>dependencies</title>
<polygon fill="#ffffff" stroke="transparent" points="-4,4 -4,-280 10104,-280 10104,4 -4,4"/>
<text text-anchor="start" x="5029.0091" y="-42.4" font-family="sans-serif" font-weight="bold" font-size="14.00" fill="#000000">Legend</text>
<polygon fill="#ffffb3" stroke="transparent" points="4816,-10 4816,-30 4836,-30 4836,-10 4816,-10"/>
<text text-anchor="start" x="4839.629" y="-15.4" font-family="sans-serif" font-size="14.00" fill="#000000"> &#160;Declarations</text>
<polygon fill="#8dd3c7" stroke="transparent" points="4929,-10 4929,-30 4949,-30 4949,-10 4929,-10"/>
<text text-anchor="start" x="4952.7251" y="-15.4" font-family="sans-serif" font-size="14.00" fill="#000000"> &#160;Module</text>
<polygon fill="#80b1d3" stroke="transparent" points="5015,-10 5015,-30 5035,-30 5035,-10 5015,-10"/>
<text text-anchor="start" x="5038.7812" y="-15.4" font-family="sans-serif" font-size="14.00" fill="#000000"> &#160;Bootstrap</text>
<polygon fill="#fdb462" stroke="transparent" points="5112,-10 5112,-30 5132,-30 5132,-10 5112,-10"/>
<text text-anchor="start" x="5135.6732" y="-15.4" font-family="sans-serif" font-size="14.00" fill="#000000"> &#160;Providers</text>
<polygon fill="#fb8072" stroke="transparent" points="5208,-10 5208,-30 5228,-30 5228,-10 5208,-10"/>
<text text-anchor="start" x="5231.7258" y="-15.4" font-family="sans-serif" font-size="14.00" fill="#000000"> &#160;Exports</text>
<g id="clust1" class="cluster">
<title>cluster_AppModule</title>
<polygon fill="none" stroke="#000000" stroke-dasharray="1,5" points="8,-70 8,-268 10092,-268 10092,-70 8,-70"/>
</g>
<g id="clust2" class="cluster">
<title>cluster_AppModule_declarations</title>
<polygon fill="none" stroke="#000000" points="9962,-78 9962,-130 10084,-130 10084,-78 9962,-78"/>
</g>
<g id="clust4" class="cluster">
<title>cluster_AppModule_imports</title>
<polygon fill="none" stroke="#000000" points="4889,-78 4889,-130 9954,-130 9954,-78 4889,-78"/>
</g>
<g id="clust6" class="cluster">
<title>cluster_AppModule_bootstrap</title>
<polygon fill="none" stroke="#000000" points="6302,-208 6302,-260 6426,-260 6426,-208 6302,-208"/>
</g>
<g id="clust7" class="cluster">
<title>cluster_AppModule_providers</title>
<polygon fill="none" stroke="#000000" points="16,-78 16,-130 4881,-130 4881,-78 16,-78"/>
</g>
<!-- AppComponent -->
<g id="node1" class="node">
<title>AppComponent</title>
<polygon fill="#ffffb3" stroke="#000000" points="10075.9399,-122 9970.0601,-122 9970.0601,-86 10075.9399,-86 10075.9399,-122"/>
<text text-anchor="middle" x="10023" y="-99.8" font-family="Times,serif" font-size="14.00" fill="#000000">AppComponent</text>
</g>
<!-- AppModule -->
<g id="node2" class="node">
<title>AppModule</title>
<polygon fill="#8dd3c7" stroke="#000000" points="6405.6571,-187 6402.6571,-191 6381.6571,-191 6378.6571,-187 6322.3429,-187 6322.3429,-151 6405.6571,-151 6405.6571,-187"/>
<text text-anchor="middle" x="6364" y="-164.8" font-family="Times,serif" font-size="14.00" fill="#000000">AppModule</text>
</g>
<!-- AppComponent&#45;&gt;AppModule -->
<g id="edge1" class="edge">
<title>AppComponent&#45;&gt;AppModule</title>
<path fill="none" stroke="#000000" d="M10023,-122.1985C10023,-146.3563 10023,-186 10023,-186 10023,-186 6415.7227,-186 6415.7227,-186"/>
<polygon fill="#000000" stroke="#000000" points="6415.7227,-182.5001 6405.7227,-186 6415.7226,-189.5001 6415.7227,-182.5001"/>
</g>
<!-- AppComponent  -->
<g id="node28" class="node">
<title>AppComponent </title>
<polygon fill="#80b1d3" stroke="#000000" points="6418.439,-252 6309.561,-252 6309.561,-216 6418.439,-216 6418.439,-252"/>
<text text-anchor="middle" x="6364" y="-229.8" font-family="Times,serif" font-size="14.00" fill="#000000">AppComponent </text>
</g>
<!-- AppModule&#45;&gt;AppComponent  -->
<g id="edge27" class="edge">
<title>AppModule&#45;&gt;AppComponent </title>
<path fill="none" stroke="#000000" stroke-dasharray="1,5" d="M6364,-187.1061C6364,-187.1061 6364,-205.991 6364,-205.991"/>
<polygon fill="#000000" stroke="#000000" points="6360.5001,-205.9909 6364,-215.991 6367.5001,-205.991 6360.5001,-205.9909"/>
</g>
<!-- CommonModule -->
<g id="node3" class="node">
<title>CommonModule</title>
<polygon fill="#8dd3c7" stroke="#000000" points="9945.6681,-122 9942.6681,-126 9921.6681,-126 9918.6681,-122 9834.3319,-122 9834.3319,-86 9945.6681,-86 9945.6681,-122"/>
<text text-anchor="middle" x="9890" y="-99.8" font-family="Times,serif" font-size="14.00" fill="#000000">CommonModule</text>
</g>
<!-- CommonModule&#45;&gt;AppModule -->
<g id="edge2" class="edge">
<title>CommonModule&#45;&gt;AppModule</title>
<path fill="none" stroke="#000000" d="M9890,-122.1532C9890,-145.7566 9890,-184 9890,-184 9890,-184 6415.7441,-184 6415.7441,-184"/>
<polygon fill="#000000" stroke="#000000" points="6415.7441,-180.5001 6405.7441,-184 6415.7441,-187.5001 6415.7441,-180.5001"/>
</g>
<!-- SharedModule -->
<g id="node4" class="node">
<title>SharedModule</title>
<polygon fill="#8dd3c7" stroke="#000000" points="9816.4231,-122 9813.4231,-126 9792.4231,-126 9789.4231,-122 9717.5769,-122 9717.5769,-86 9816.4231,-86 9816.4231,-122"/>
<text text-anchor="middle" x="9767" y="-99.8" font-family="Times,serif" font-size="14.00" fill="#000000">SharedModule</text>
</g>
<!-- SharedModule&#45;&gt;AppModule -->
<g id="edge3" class="edge">
<title>SharedModule&#45;&gt;AppModule</title>
<path fill="none" stroke="#000000" d="M9767,-122.0908C9767,-145.1328 9767,-182 9767,-182 9767,-182 6415.7988,-182 6415.7988,-182"/>
<polygon fill="#000000" stroke="#000000" points="6415.7988,-178.5001 6405.7988,-182 6415.7987,-185.5001 6415.7988,-178.5001"/>
</g>
<!-- HttpClientModule -->
<g id="node5" class="node">
<title>HttpClientModule</title>
<polygon fill="#8dd3c7" stroke="#000000" points="9699.1611,-122 9696.1611,-126 9675.1611,-126 9672.1611,-122 9580.8389,-122 9580.8389,-86 9699.1611,-86 9699.1611,-122"/>
<text text-anchor="middle" x="9640" y="-99.8" font-family="Times,serif" font-size="14.00" fill="#000000">HttpClientModule</text>
</g>
<!-- HttpClientModule&#45;&gt;AppModule -->
<g id="edge4" class="edge">
<title>HttpClientModule&#45;&gt;AppModule</title>
<path fill="none" stroke="#000000" d="M9640,-122.0109C9640,-144.4852 9640,-180 9640,-180 9640,-180 6415.7188,-180 6415.7188,-180"/>
<polygon fill="#000000" stroke="#000000" points="6415.7188,-176.5001 6405.7188,-180 6415.7187,-183.5001 6415.7188,-176.5001"/>
</g>
<!-- NgxRemoteConfigModule.forRoot(args) -->
<g id="node6" class="node">
<title>NgxRemoteConfigModule.forRoot(args)</title>
<polygon fill="#8dd3c7" stroke="#000000" points="9562.7807,-122 9559.7807,-126 9538.7807,-126 9535.7807,-122 9317.2193,-122 9317.2193,-86 9562.7807,-86 9562.7807,-122"/>
<text text-anchor="middle" x="9440" y="-99.8" font-family="Times,serif" font-size="14.00" fill="#000000">NgxRemoteConfigModule.forRoot(args)</text>
</g>
<!-- NgxRemoteConfigModule.forRoot(args)&#45;&gt;AppModule -->
<g id="edge5" class="edge">
<title>NgxRemoteConfigModule.forRoot(args)&#45;&gt;AppModule</title>
<path fill="none" stroke="#000000" d="M9440,-122.2921C9440,-144.2057 9440,-178 9440,-178 9440,-178 6415.7331,-178 6415.7331,-178"/>
<polygon fill="#000000" stroke="#000000" points="6415.7331,-174.5001 6405.7331,-178 6415.7331,-181.5001 6415.7331,-174.5001"/>
</g>
<!-- IonicStorageModule.forRoot() -->
<g id="node7" class="node">
<title>IonicStorageModule.forRoot()</title>
<polygon fill="#8dd3c7" stroke="#000000" points="9298.9487,-122 9295.9487,-126 9274.9487,-126 9271.9487,-122 9111.0513,-122 9111.0513,-86 9298.9487,-86 9298.9487,-122"/>
<text text-anchor="middle" x="9205" y="-99.8" font-family="Times,serif" font-size="14.00" fill="#000000">IonicStorageModule.forRoot()</text>
</g>
<!-- IonicStorageModule.forRoot()&#45;&gt;AppModule -->
<g id="edge6" class="edge">
<title>IonicStorageModule.forRoot()&#45;&gt;AppModule</title>
<path fill="none" stroke="#000000" d="M9205,-122.1686C9205,-143.498 9205,-176 9205,-176 9205,-176 6415.8092,-176 6415.8092,-176"/>
<polygon fill="#000000" stroke="#000000" points="6415.8092,-172.5001 6405.8092,-176 6415.8092,-179.5001 6415.8092,-172.5001"/>
</g>
<!-- TranslateModule.forRoot() -->
<g id="node8" class="node">
<title>TranslateModule.forRoot()</title>
<polygon fill="#8dd3c7" stroke="#000000" points="9093.0022,-122 9090.0022,-126 9069.0022,-126 9066.0022,-122 8924.9978,-122 8924.9978,-86 9093.0022,-86 9093.0022,-122"/>
<text text-anchor="middle" x="9009" y="-99.8" font-family="Times,serif" font-size="14.00" fill="#000000">TranslateModule.forRoot()</text>
</g>
<!-- TranslateModule.forRoot()&#45;&gt;AppModule -->
<g id="edge7" class="edge">
<title>TranslateModule.forRoot()&#45;&gt;AppModule</title>
<path fill="none" stroke="#000000" d="M9009,-122.0267C9009,-142.7672 9009,-174 9009,-174 9009,-174 6415.8133,-174 6415.8133,-174"/>
<polygon fill="#000000" stroke="#000000" points="6415.8133,-170.5001 6405.8133,-174 6415.8132,-177.5001 6415.8133,-170.5001"/>
</g>
<!-- BrowserModule.withServerTransition(args) -->
<g id="node9" class="node">
<title>BrowserModule.withServerTransition(args)</title>
<polygon fill="#8dd3c7" stroke="#000000" points="8907.0794,-122 8904.0794,-126 8883.0794,-126 8880.0794,-122 8644.9206,-122 8644.9206,-86 8907.0794,-86 8907.0794,-122"/>
<text text-anchor="middle" x="8776" y="-99.8" font-family="Times,serif" font-size="14.00" fill="#000000">BrowserModule.withServerTransition(args)</text>
</g>
<!-- BrowserModule.withServerTransition(args)&#45;&gt;AppModule -->
<g id="edge8" class="edge">
<title>BrowserModule.withServerTransition(args)&#45;&gt;AppModule</title>
<path fill="none" stroke="#000000" d="M8776,-122.2228C8776,-142.3652 8776,-172 8776,-172 8776,-172 6415.8648,-172 6415.8648,-172"/>
<polygon fill="#000000" stroke="#000000" points="6415.8648,-168.5001 6405.8648,-172 6415.8647,-175.5001 6415.8648,-168.5001"/>
</g>
<!-- TransferHttpCacheModule.forRoot() -->
<g id="node10" class="node">
<title>TransferHttpCacheModule.forRoot()</title>
<polygon fill="#8dd3c7" stroke="#000000" points="8626.6959,-122 8623.6959,-126 8602.6959,-126 8599.6959,-122 8403.3041,-122 8403.3041,-86 8626.6959,-86 8626.6959,-122"/>
<text text-anchor="middle" x="8515" y="-99.8" font-family="Times,serif" font-size="14.00" fill="#000000">TransferHttpCacheModule.forRoot()</text>
</g>
<!-- TransferHttpCacheModule.forRoot()&#45;&gt;AppModule -->
<g id="edge9" class="edge">
<title>TransferHttpCacheModule.forRoot()&#45;&gt;AppModule</title>
<path fill="none" stroke="#000000" d="M8515,-122.0348C8515,-141.5762 8515,-170 8515,-170 8515,-170 6416.0026,-170 6416.0026,-170"/>
<polygon fill="#000000" stroke="#000000" points="6416.0026,-166.5001 6406.0026,-170 6416.0025,-173.5001 6416.0026,-166.5001"/>
</g>
<!-- NgxPermissionsModule.forRoot() -->
<g id="node11" class="node">
<title>NgxPermissionsModule.forRoot()</title>
<polygon fill="#8dd3c7" stroke="#000000" points="8385.6896,-122 8382.6896,-126 8361.6896,-126 8358.6896,-122 8178.3104,-122 8178.3104,-86 8385.6896,-86 8385.6896,-122"/>
<text text-anchor="middle" x="8282" y="-99.8" font-family="Times,serif" font-size="14.00" fill="#000000">NgxPermissionsModule.forRoot()</text>
</g>
<!-- NgxPermissionsModule.forRoot()&#45;&gt;AppModule -->
<g id="edge10" class="edge">
<title>NgxPermissionsModule.forRoot()&#45;&gt;AppModule</title>
<path fill="none" stroke="#000000" d="M8282,-122.1061C8282,-141.3391 8282,-169 8282,-169 8282,-169 6415.8439,-169 6415.8439,-169"/>
<polygon fill="#000000" stroke="#000000" points="6415.8439,-165.5001 6405.8439,-169 6415.8439,-172.5001 6415.8439,-165.5001"/>
</g>
<!-- IonicModule.forRoot() -->
<g id="node12" class="node">
<title>IonicModule.forRoot()</title>
<polygon fill="#8dd3c7" stroke="#000000" points="8160.1855,-122 8157.1855,-126 8136.1855,-126 8133.1855,-122 8015.8145,-122 8015.8145,-86 8160.1855,-86 8160.1855,-122"/>
<text text-anchor="middle" x="8088" y="-99.8" font-family="Times,serif" font-size="14.00" fill="#000000">IonicModule.forRoot()</text>
</g>
<!-- IonicModule.forRoot()&#45;&gt;AppModule -->
<g id="edge11" class="edge">
<title>IonicModule.forRoot()&#45;&gt;AppModule</title>
<path fill="none" stroke="#000000" d="M8088,-122.2222C8088,-140.8285 8088,-167 8088,-167 8088,-167 6415.7617,-167 6415.7617,-167"/>
<polygon fill="#000000" stroke="#000000" points="6415.7618,-163.5001 6405.7617,-167 6415.7617,-170.5001 6415.7618,-163.5001"/>
</g>
<!-- AuthModule.forRoot(args) -->
<g id="node13" class="node">
<title>AuthModule.forRoot(args)</title>
<polygon fill="#8dd3c7" stroke="#000000" points="7997.7366,-122 7994.7366,-126 7973.7366,-126 7970.7366,-122 7830.2634,-122 7830.2634,-86 7997.7366,-86 7997.7366,-122"/>
<text text-anchor="middle" x="7914" y="-99.8" font-family="Times,serif" font-size="14.00" fill="#000000">AuthModule.forRoot(args)</text>
</g>
<!-- AuthModule.forRoot(args)&#45;&gt;AppModule -->
<g id="edge12" class="edge">
<title>AuthModule.forRoot(args)&#45;&gt;AppModule</title>
<path fill="none" stroke="#000000" d="M7914,-122.302C7914,-140.2699 7914,-165 7914,-165 7914,-165 6415.8598,-165 6415.8598,-165"/>
<polygon fill="#000000" stroke="#000000" points="6415.8598,-161.5001 6405.8598,-165 6415.8598,-168.5001 6415.8598,-161.5001"/>
</g>
<!-- AccountModule.forRoot(args) -->
<g id="node14" class="node">
<title>AccountModule.forRoot(args)</title>
<polygon fill="#8dd3c7" stroke="#000000" points="7812.1659,-122 7809.1659,-126 7788.1659,-126 7785.1659,-122 7625.8341,-122 7625.8341,-86 7812.1659,-86 7812.1659,-122"/>
<text text-anchor="middle" x="7719" y="-99.8" font-family="Times,serif" font-size="14.00" fill="#000000">AccountModule.forRoot(args)</text>
</g>
<!-- AccountModule.forRoot(args)&#45;&gt;AppModule -->
<g id="edge13" class="edge">
<title>AccountModule.forRoot(args)&#45;&gt;AppModule</title>
<path fill="none" stroke="#000000" d="M7719,-122.0225C7719,-139.3734 7719,-163 7719,-163 7719,-163 6415.6645,-163 6415.6645,-163"/>
<polygon fill="#000000" stroke="#000000" points="6415.6646,-159.5001 6405.6645,-163 6415.6645,-166.5001 6415.6646,-159.5001"/>
</g>
<!-- LangModule.forRoot(args) -->
<g id="node15" class="node">
<title>LangModule.forRoot(args)</title>
<polygon fill="#8dd3c7" stroke="#000000" points="7608.0064,-122 7605.0064,-126 7584.0064,-126 7581.0064,-122 7439.9936,-122 7439.9936,-86 7608.0064,-86 7608.0064,-122"/>
<text text-anchor="middle" x="7524" y="-99.8" font-family="Times,serif" font-size="14.00" fill="#000000">LangModule.forRoot(args)</text>
</g>
<!-- LangModule.forRoot(args)&#45;&gt;AppModule -->
<g id="edge14" class="edge">
<title>LangModule.forRoot(args)&#45;&gt;AppModule</title>
<path fill="none" stroke="#000000" d="M7524,-122.0352C7524,-138.7344 7524,-161 7524,-161 7524,-161 6415.9703,-161 6415.9703,-161"/>
<polygon fill="#000000" stroke="#000000" points="6415.9704,-157.5001 6405.9703,-161 6415.9703,-164.5001 6415.9704,-157.5001"/>
</g>
<!-- RouterModule.forRoot(args) -->
<g id="node16" class="node">
<title>RouterModule.forRoot(args)</title>
<polygon fill="#8dd3c7" stroke="#000000" points="7421.8419,-122 7418.8419,-126 7397.8419,-126 7394.8419,-122 7244.1581,-122 7244.1581,-86 7421.8419,-86 7421.8419,-122"/>
<text text-anchor="middle" x="7333" y="-99.8" font-family="Times,serif" font-size="14.00" fill="#000000">RouterModule.forRoot(args)</text>
</g>
<!-- RouterModule.forRoot(args)&#45;&gt;AppModule -->
<g id="edge15" class="edge">
<title>RouterModule.forRoot(args)&#45;&gt;AppModule</title>
<path fill="none" stroke="#000000" d="M7333,-122.0091C7333,-138.0494 7333,-159 7333,-159 7333,-159 6415.9477,-159 6415.9477,-159"/>
<polygon fill="#000000" stroke="#000000" points="6415.9478,-155.5001 6405.9477,-159 6415.9477,-162.5001 6415.9478,-155.5001"/>
</g>
<!-- MetaModule.forRoot(args) -->
<g id="node17" class="node">
<title>MetaModule.forRoot(args)</title>
<polygon fill="#8dd3c7" stroke="#000000" points="7226.0036,-122 7223.0036,-126 7202.0036,-126 7199.0036,-122 7057.9964,-122 7057.9964,-86 7226.0036,-86 7226.0036,-122"/>
<text text-anchor="middle" x="7142" y="-99.8" font-family="Times,serif" font-size="14.00" fill="#000000">MetaModule.forRoot(args)</text>
</g>
<!-- MetaModule.forRoot(args)&#45;&gt;AppModule -->
<g id="edge16" class="edge">
<title>MetaModule.forRoot(args)&#45;&gt;AppModule</title>
<path fill="none" stroke="#000000" d="M7142,-122.2396C7142,-137.5706 7142,-157 7142,-157 7142,-157 6415.8287,-157 6415.8287,-157"/>
<polygon fill="#000000" stroke="#000000" points="6415.8287,-153.5001 6405.8287,-157 6415.8286,-160.5001 6415.8287,-153.5001"/>
</g>
<!-- AuthModalModule.forRoot(args) -->
<g id="node18" class="node">
<title>AuthModalModule.forRoot(args)</title>
<polygon fill="#8dd3c7" stroke="#000000" points="7039.7863,-122 7036.7863,-126 7015.7863,-126 7012.7863,-122 6836.2137,-122 6836.2137,-86 7039.7863,-86 7039.7863,-122"/>
<text text-anchor="middle" x="6938" y="-99.8" font-family="Times,serif" font-size="14.00" fill="#000000">AuthModalModule.forRoot(args)</text>
</g>
<!-- AuthModalModule.forRoot(args)&#45;&gt;AppModule -->
<g id="edge17" class="edge">
<title>AuthModalModule.forRoot(args)&#45;&gt;AppModule</title>
<path fill="none" stroke="#000000" d="M6938,-122.1243C6938,-136.7832 6938,-155 6938,-155 6938,-155 6415.743,-155 6415.743,-155"/>
<polygon fill="#000000" stroke="#000000" points="6415.7431,-151.5001 6405.743,-155 6415.743,-158.5001 6415.7431,-151.5001"/>
</g>
<!-- NgxBindIOModule.forRoot() -->
<g id="node19" class="node">
<title>NgxBindIOModule.forRoot()</title>
<polygon fill="#8dd3c7" stroke="#000000" points="6818.0204,-122 6815.0204,-126 6794.0204,-126 6791.0204,-122 6635.9796,-122 6635.9796,-86 6818.0204,-86 6818.0204,-122"/>
<text text-anchor="middle" x="6727" y="-99.8" font-family="Times,serif" font-size="14.00" fill="#000000">NgxBindIOModule.forRoot()</text>
</g>
<!-- NgxBindIOModule.forRoot()&#45;&gt;AppModule -->
<g id="edge18" class="edge">
<title>NgxBindIOModule.forRoot()&#45;&gt;AppModule</title>
<path fill="none" stroke="#000000" d="M6727,-122.2458C6727,-136.1772 6727,-153 6727,-153 6727,-153 6415.9953,-153 6415.9953,-153"/>
<polygon fill="#000000" stroke="#000000" points="6415.9954,-149.5001 6405.9953,-153 6415.9953,-156.5001 6415.9954,-149.5001"/>
</g>
<!-- UsersListFiltersModalModule.forRoot() -->
<g id="node20" class="node">
<title>UsersListFiltersModalModule.forRoot()</title>
<polygon fill="#8dd3c7" stroke="#000000" points="6617.8928,-122 6614.8928,-126 6593.8928,-126 6590.8928,-122 6376.1072,-122 6376.1072,-86 6617.8928,-86 6617.8928,-122"/>
<text text-anchor="middle" x="6497" y="-99.8" font-family="Times,serif" font-size="14.00" fill="#000000">UsersListFiltersModalModule.forRoot()</text>
</g>
<!-- UsersListFiltersModalModule.forRoot()&#45;&gt;AppModule -->
<g id="edge19" class="edge">
<title>UsersListFiltersModalModule.forRoot()&#45;&gt;AppModule</title>
<path fill="none" stroke="#000000" d="M6390.9409,-122.1061C6390.9409,-122.1061 6390.9409,-140.991 6390.9409,-140.991"/>
<polygon fill="#000000" stroke="#000000" points="6387.441,-140.9909 6390.9409,-150.991 6394.441,-140.991 6387.441,-140.9909"/>
</g>
<!-- GroupsListFiltersModalModule.forRoot() -->
<g id="node21" class="node">
<title>GroupsListFiltersModalModule.forRoot()</title>
<polygon fill="#8dd3c7" stroke="#000000" points="6357.7337,-122 6354.7337,-126 6333.7337,-126 6330.7337,-122 6106.2663,-122 6106.2663,-86 6357.7337,-86 6357.7337,-122"/>
<text text-anchor="middle" x="6232" y="-99.8" font-family="Times,serif" font-size="14.00" fill="#000000">GroupsListFiltersModalModule.forRoot()</text>
</g>
<!-- GroupsListFiltersModalModule.forRoot()&#45;&gt;AppModule -->
<g id="edge20" class="edge">
<title>GroupsListFiltersModalModule.forRoot()&#45;&gt;AppModule</title>
<path fill="none" stroke="#000000" d="M6339.8943,-122.1061C6339.8943,-122.1061 6339.8943,-140.991 6339.8943,-140.991"/>
<polygon fill="#000000" stroke="#000000" points="6336.3944,-140.9909 6339.8943,-150.991 6343.3944,-140.991 6336.3944,-140.9909"/>
</g>
<!-- TasksListFiltersModalModule.forRoot() -->
<g id="node22" class="node">
<title>TasksListFiltersModalModule.forRoot()</title>
<polygon fill="#8dd3c7" stroke="#000000" points="6088.1784,-122 6085.1784,-126 6064.1784,-126 6061.1784,-122 5845.8216,-122 5845.8216,-86 6088.1784,-86 6088.1784,-122"/>
<text text-anchor="middle" x="5967" y="-99.8" font-family="Times,serif" font-size="14.00" fill="#000000">TasksListFiltersModalModule.forRoot()</text>
</g>
<!-- TasksListFiltersModalModule.forRoot()&#45;&gt;AppModule -->
<g id="edge21" class="edge">
<title>TasksListFiltersModalModule.forRoot()&#45;&gt;AppModule</title>
<path fill="none" stroke="#000000" d="M5967,-122.2458C5967,-136.1772 5967,-153 5967,-153 5967,-153 6312.2644,-153 6312.2644,-153"/>
<polygon fill="#000000" stroke="#000000" points="6312.2644,-156.5001 6322.2644,-153 6312.2644,-149.5001 6312.2644,-156.5001"/>
</g>
<!-- ProjectsListFiltersModalModule.forRoot(args) -->
<g id="node23" class="node">
<title>ProjectsListFiltersModalModule.forRoot(args)</title>
<polygon fill="#8dd3c7" stroke="#000000" points="5827.4401,-122 5824.4401,-126 5803.4401,-126 5800.4401,-122 5548.5599,-122 5548.5599,-86 5827.4401,-86 5827.4401,-122"/>
<text text-anchor="middle" x="5688" y="-99.8" font-family="Times,serif" font-size="14.00" fill="#000000">ProjectsListFiltersModalModule.forRoot(args)</text>
</g>
<!-- ProjectsListFiltersModalModule.forRoot(args)&#45;&gt;AppModule -->
<g id="edge22" class="edge">
<title>ProjectsListFiltersModalModule.forRoot(args)&#45;&gt;AppModule</title>
<path fill="none" stroke="#000000" d="M5688,-122.1243C5688,-136.7832 5688,-155 5688,-155 5688,-155 6312.2233,-155 6312.2233,-155"/>
<polygon fill="#000000" stroke="#000000" points="6312.2234,-158.5001 6322.2233,-155 6312.2233,-151.5001 6312.2234,-158.5001"/>
</g>
<!-- RuckenCoreModule -->
<g id="node24" class="node">
<title>RuckenCoreModule</title>
<polygon fill="#8dd3c7" stroke="#000000" points="5530.5283,-122 5527.5283,-126 5506.5283,-126 5503.5283,-122 5401.4717,-122 5401.4717,-86 5530.5283,-86 5530.5283,-122"/>
<text text-anchor="middle" x="5466" y="-99.8" font-family="Times,serif" font-size="14.00" fill="#000000">RuckenCoreModule</text>
</g>
<!-- RuckenCoreModule&#45;&gt;AppModule -->
<g id="edge23" class="edge">
<title>RuckenCoreModule&#45;&gt;AppModule</title>
<path fill="none" stroke="#000000" d="M5466,-122.2396C5466,-137.5706 5466,-157 5466,-157 5466,-157 6312.1908,-157 6312.1908,-157"/>
<polygon fill="#000000" stroke="#000000" points="6312.1908,-160.5001 6322.1908,-157 6312.1908,-153.5001 6312.1908,-160.5001"/>
</g>
<!-- RuckenIonicModule -->
<g id="node25" class="node">
<title>RuckenIonicModule</title>
<polygon fill="#8dd3c7" stroke="#000000" points="5383.5814,-122 5380.5814,-126 5359.5814,-126 5356.5814,-122 5252.4186,-122 5252.4186,-86 5383.5814,-86 5383.5814,-122"/>
<text text-anchor="middle" x="5318" y="-99.8" font-family="Times,serif" font-size="14.00" fill="#000000">RuckenIonicModule</text>
</g>
<!-- RuckenIonicModule&#45;&gt;AppModule -->
<g id="edge24" class="edge">
<title>RuckenIonicModule&#45;&gt;AppModule</title>
<path fill="none" stroke="#000000" d="M5318,-122.0091C5318,-138.0494 5318,-159 5318,-159 5318,-159 6312.0256,-159 6312.0256,-159"/>
<polygon fill="#000000" stroke="#000000" points="6312.0257,-162.5001 6322.0256,-159 6312.0256,-155.5001 6312.0257,-162.5001"/>
</g>
<!-- RuckenTodoCoreModule -->
<g id="node26" class="node">
<title>RuckenTodoCoreModule</title>
<polygon fill="#8dd3c7" stroke="#000000" points="5234.58,-122 5231.58,-126 5210.58,-126 5207.58,-122 5075.42,-122 5075.42,-86 5234.58,-86 5234.58,-122"/>
<text text-anchor="middle" x="5155" y="-99.8" font-family="Times,serif" font-size="14.00" fill="#000000">RuckenTodoCoreModule</text>
</g>
<!-- RuckenTodoCoreModule&#45;&gt;AppModule -->
<g id="edge25" class="edge">
<title>RuckenTodoCoreModule&#45;&gt;AppModule</title>
<path fill="none" stroke="#000000" d="M5155,-122.0352C5155,-138.7344 5155,-161 5155,-161 5155,-161 6312.0324,-161 6312.0324,-161"/>
<polygon fill="#000000" stroke="#000000" points="6312.0324,-164.5001 6322.0324,-161 6312.0324,-157.5001 6312.0324,-164.5001"/>
</g>
<!-- RuckenTodoIonicModule -->
<g id="node27" class="node">
<title>RuckenTodoIonicModule</title>
<polygon fill="#8dd3c7" stroke="#000000" points="5057.1344,-122 5054.1344,-126 5033.1344,-126 5030.1344,-122 4896.8656,-122 4896.8656,-86 5057.1344,-86 5057.1344,-122"/>
<text text-anchor="middle" x="4977" y="-99.8" font-family="Times,serif" font-size="14.00" fill="#000000">RuckenTodoIonicModule</text>
</g>
<!-- RuckenTodoIonicModule&#45;&gt;AppModule -->
<g id="edge26" class="edge">
<title>RuckenTodoIonicModule&#45;&gt;AppModule</title>
<path fill="none" stroke="#000000" d="M4977,-122.0225C4977,-139.3734 4977,-163 4977,-163 4977,-163 6312.112,-163 6312.112,-163"/>
<polygon fill="#000000" stroke="#000000" points="6312.112,-166.5001 6322.112,-163 6312.1119,-159.5001 6312.112,-166.5001"/>
</g>
<!-- { provide: JWT_CONFIG_TOKEN, useValue: &#160;} -->
<g id="node29" class="node">
<title>{ provide: JWT_CONFIG_TOKEN, useValue: &#160;}</title>
<ellipse fill="#fdb462" stroke="#000000" cx="4670" cy="-104" rx="202.8244" ry="18"/>
<text text-anchor="middle" x="4670" y="-99.8" font-family="Times,serif" font-size="14.00" fill="#000000">{ provide: JWT_CONFIG_TOKEN, useValue: &#160;}</text>
</g>
<!-- { provide: JWT_CONFIG_TOKEN, useValue: &#160;}&#45;&gt;AppModule -->
<g id="edge28" class="edge">
<title>{ provide: JWT_CONFIG_TOKEN, useValue: &#160;}&#45;&gt;AppModule</title>
<path fill="none" stroke="#000000" d="M4670,-122.302C4670,-140.2699 4670,-165 4670,-165 4670,-165 6312.1256,-165 6312.1256,-165"/>
<polygon fill="#000000" stroke="#000000" points="6312.1256,-168.5001 6322.1256,-165 6312.1256,-161.5001 6312.1256,-168.5001"/>
</g>
<!-- HTTP -->
<g id="node30" class="node">
<title>HTTP</title>
<ellipse fill="#fdb462" stroke="#000000" cx="4414" cy="-104" rx="35.3509" ry="18"/>
<text text-anchor="middle" x="4414" y="-99.8" font-family="Times,serif" font-size="14.00" fill="#000000">HTTP</text>
</g>
<!-- HTTP&#45;&gt;AppModule -->
<g id="edge29" class="edge">
<title>HTTP&#45;&gt;AppModule</title>
<path fill="none" stroke="#000000" d="M4414,-122.2222C4414,-140.8285 4414,-167 4414,-167 4414,-167 6311.9148,-167 6311.9148,-167"/>
<polygon fill="#000000" stroke="#000000" points="6311.9148,-170.5001 6321.9148,-167 6311.9148,-163.5001 6311.9148,-170.5001"/>
</g>
<!-- { provide: NgxRemoteConfigService, useClass: NgxRemoteConfigIonicService } -->
<g id="node31" class="node">
<title>{ provide: NgxRemoteConfigService, useClass: NgxRemoteConfigIonicService }</title>
<ellipse fill="#fdb462" stroke="#000000" cx="4033" cy="-104" rx="328.3663" ry="18"/>
<text text-anchor="middle" x="4033" y="-99.8" font-family="Times,serif" font-size="14.00" fill="#000000">{ provide: NgxRemoteConfigService, useClass: NgxRemoteConfigIonicService }</text>
</g>
<!-- { provide: NgxRemoteConfigService, useClass: NgxRemoteConfigIonicService }&#45;&gt;AppModule -->
<g id="edge30" class="edge">
<title>{ provide: NgxRemoteConfigService, useClass: NgxRemoteConfigIonicService }&#45;&gt;AppModule</title>
<path fill="none" stroke="#000000" d="M4033,-122.1061C4033,-141.3391 4033,-169 4033,-169 4033,-169 6312.053,-169 6312.053,-169"/>
<polygon fill="#000000" stroke="#000000" points="6312.053,-172.5001 6322.053,-169 6312.0529,-165.5001 6312.053,-172.5001"/>
</g>
<!-- { provide: CONTENT_TYPES_CONFIG_TOKEN, useValue: &#160;} -->
<g id="node32" class="node">
<title>{ provide: CONTENT_TYPES_CONFIG_TOKEN, useValue: &#160;}</title>
<ellipse fill="#fdb462" stroke="#000000" cx="3424" cy="-104" rx="263.0597" ry="18"/>
<text text-anchor="middle" x="3424" y="-99.8" font-family="Times,serif" font-size="14.00" fill="#000000">{ provide: CONTENT_TYPES_CONFIG_TOKEN, useValue: &#160;}</text>
</g>
<!-- { provide: CONTENT_TYPES_CONFIG_TOKEN, useValue: &#160;}&#45;&gt;AppModule -->
<g id="edge31" class="edge">
<title>{ provide: CONTENT_TYPES_CONFIG_TOKEN, useValue: &#160;}&#45;&gt;AppModule</title>
<path fill="none" stroke="#000000" d="M3424,-122.0348C3424,-141.5762 3424,-170 3424,-170 3424,-170 6312.1573,-170 6312.1573,-170"/>
<polygon fill="#000000" stroke="#000000" points="6312.1573,-173.5001 6322.1573,-170 6312.1572,-166.5001 6312.1573,-173.5001"/>
</g>
<!-- { provide: PERMISSIONS_CONFIG_TOKEN, useValue: &#160;} -->
<g id="node33" class="node">
<title>{ provide: PERMISSIONS_CONFIG_TOKEN, useValue: &#160;}</title>
<ellipse fill="#fdb462" stroke="#000000" cx="2896" cy="-104" rx="246.8224" ry="18"/>
<text text-anchor="middle" x="2896" y="-99.8" font-family="Times,serif" font-size="14.00" fill="#000000">{ provide: PERMISSIONS_CONFIG_TOKEN, useValue: &#160;}</text>
</g>
<!-- { provide: PERMISSIONS_CONFIG_TOKEN, useValue: &#160;}&#45;&gt;AppModule -->
<g id="edge32" class="edge">
<title>{ provide: PERMISSIONS_CONFIG_TOKEN, useValue: &#160;}&#45;&gt;AppModule</title>
<path fill="none" stroke="#000000" d="M2896,-122.2228C2896,-142.3652 2896,-172 2896,-172 2896,-172 6312.3299,-172 6312.3299,-172"/>
<polygon fill="#000000" stroke="#000000" points="6312.3299,-175.5001 6322.3299,-172 6312.3299,-168.5001 6312.3299,-175.5001"/>
</g>
<!-- { provide: USERS_CONFIG_TOKEN, useValue: &#160;} -->
<g id="node34" class="node">
<title>{ provide: USERS_CONFIG_TOKEN, useValue: &#160;}</title>
<ellipse fill="#fdb462" stroke="#000000" cx="2417" cy="-104" rx="213.8791" ry="18"/>
<text text-anchor="middle" x="2417" y="-99.8" font-family="Times,serif" font-size="14.00" fill="#000000">{ provide: USERS_CONFIG_TOKEN, useValue: &#160;}</text>
</g>
<!-- { provide: USERS_CONFIG_TOKEN, useValue: &#160;}&#45;&gt;AppModule -->
<g id="edge33" class="edge">
<title>{ provide: USERS_CONFIG_TOKEN, useValue: &#160;}&#45;&gt;AppModule</title>
<path fill="none" stroke="#000000" d="M2417,-122.0267C2417,-142.7672 2417,-174 2417,-174 2417,-174 6312.0145,-174 6312.0145,-174"/>
<polygon fill="#000000" stroke="#000000" points="6312.0145,-177.5001 6322.0145,-174 6312.0144,-170.5001 6312.0145,-177.5001"/>
</g>
<!-- { provide: GROUPS_CONFIG_TOKEN, useValue: &#160;} -->
<g id="node35" class="node">
<title>{ provide: GROUPS_CONFIG_TOKEN, useValue: &#160;}</title>
<ellipse fill="#fdb462" stroke="#000000" cx="1963" cy="-104" rx="221.9656" ry="18"/>
<text text-anchor="middle" x="1963" y="-99.8" font-family="Times,serif" font-size="14.00" fill="#000000">{ provide: GROUPS_CONFIG_TOKEN, useValue: &#160;}</text>
</g>
<!-- { provide: GROUPS_CONFIG_TOKEN, useValue: &#160;}&#45;&gt;AppModule -->
<g id="edge34" class="edge">
<title>{ provide: GROUPS_CONFIG_TOKEN, useValue: &#160;}&#45;&gt;AppModule</title>
<path fill="none" stroke="#000000" d="M1963,-122.1686C1963,-143.498 1963,-176 1963,-176 1963,-176 6312.2024,-176 6312.2024,-176"/>
<polygon fill="#000000" stroke="#000000" points="6312.2024,-179.5001 6322.2024,-176 6312.2024,-172.5001 6312.2024,-179.5001"/>
</g>
<!-- { provide: PROJECTS_CONFIG_TOKEN, useValue: &#160;} -->
<g id="node36" class="node">
<title>{ provide: PROJECTS_CONFIG_TOKEN, useValue: &#160;}</title>
<ellipse fill="#fdb462" stroke="#000000" cx="1493" cy="-104" rx="230.0695" ry="18"/>
<text text-anchor="middle" x="1493" y="-99.8" font-family="Times,serif" font-size="14.00" fill="#000000">{ provide: PROJECTS_CONFIG_TOKEN, useValue: &#160;}</text>
</g>
<!-- { provide: PROJECTS_CONFIG_TOKEN, useValue: &#160;}&#45;&gt;AppModule -->
<g id="edge35" class="edge">
<title>{ provide: PROJECTS_CONFIG_TOKEN, useValue: &#160;}&#45;&gt;AppModule</title>
<path fill="none" stroke="#000000" d="M1493,-122.2921C1493,-144.2057 1493,-178 1493,-178 1493,-178 6312.258,-178 6312.258,-178"/>
<polygon fill="#000000" stroke="#000000" points="6312.2581,-181.5001 6322.258,-178 6312.258,-174.5001 6312.2581,-181.5001"/>
</g>
<!-- { provide: TASKS_CONFIG_TOKEN, useValue: &#160;} -->
<g id="node37" class="node">
<title>{ provide: TASKS_CONFIG_TOKEN, useValue: &#160;}</title>
<ellipse fill="#fdb462" stroke="#000000" cx="1030" cy="-104" rx="214.4413" ry="18"/>
<text text-anchor="middle" x="1030" y="-99.8" font-family="Times,serif" font-size="14.00" fill="#000000">{ provide: TASKS_CONFIG_TOKEN, useValue: &#160;}</text>
</g>
<!-- { provide: TASKS_CONFIG_TOKEN, useValue: &#160;}&#45;&gt;AppModule -->
<g id="edge36" class="edge">
<title>{ provide: TASKS_CONFIG_TOKEN, useValue: &#160;}&#45;&gt;AppModule</title>
<path fill="none" stroke="#000000" d="M1030,-122.0109C1030,-144.4852 1030,-180 1030,-180 1030,-180 6312.2275,-180 6312.2275,-180"/>
<polygon fill="#000000" stroke="#000000" points="6312.2276,-183.5001 6322.2275,-180 6312.2275,-176.5001 6312.2276,-183.5001"/>
</g>
<!-- StatusBar -->
<g id="node38" class="node">
<title>StatusBar</title>
<ellipse fill="#fdb462" stroke="#000000" cx="749" cy="-104" rx="48.6694" ry="18"/>
<text text-anchor="middle" x="749" y="-99.8" font-family="Times,serif" font-size="14.00" fill="#000000">StatusBar</text>
</g>
<!-- StatusBar&#45;&gt;AppModule -->
<g id="edge37" class="edge">
<title>StatusBar&#45;&gt;AppModule</title>
<path fill="none" stroke="#000000" d="M749,-122.0908C749,-145.1328 749,-182 749,-182 749,-182 6312.0318,-182 6312.0318,-182"/>
<polygon fill="#000000" stroke="#000000" points="6312.0318,-185.5001 6322.0318,-182 6312.0318,-178.5001 6312.0318,-185.5001"/>
</g>
<!-- SplashScreen -->
<g id="node39" class="node">
<title>SplashScreen</title>
<ellipse fill="#fdb462" stroke="#000000" cx="619" cy="-104" rx="63.1189" ry="18"/>
<text text-anchor="middle" x="619" y="-99.8" font-family="Times,serif" font-size="14.00" fill="#000000">SplashScreen</text>
</g>
<!-- SplashScreen&#45;&gt;AppModule -->
<g id="edge38" class="edge">
<title>SplashScreen&#45;&gt;AppModule</title>
<path fill="none" stroke="#000000" d="M619,-122.1532C619,-145.7566 619,-184 619,-184 619,-184 6312.2688,-184 6312.2688,-184"/>
<polygon fill="#000000" stroke="#000000" points="6312.2688,-187.5001 6322.2688,-184 6312.2687,-180.5001 6312.2688,-187.5001"/>
</g>
<!-- { provide: RouteReuseStrategy, useClass: IonicRouteStrategy } -->
<g id="node40" class="node">
<title>{ provide: RouteReuseStrategy, useClass: IonicRouteStrategy }</title>
<ellipse fill="#fdb462" stroke="#000000" cx="281" cy="-104" rx="257.2723" ry="18"/>
<text text-anchor="middle" x="281" y="-99.8" font-family="Times,serif" font-size="14.00" fill="#000000">{ provide: RouteReuseStrategy, useClass: IonicRouteStrategy }</text>
</g>
<!-- { provide: RouteReuseStrategy, useClass: IonicRouteStrategy }&#45;&gt;AppModule -->
<g id="edge39" class="edge">
<title>{ provide: RouteReuseStrategy, useClass: IonicRouteStrategy }&#45;&gt;AppModule</title>
<path fill="none" stroke="#000000" d="M281,-122.1985C281,-146.3563 281,-186 281,-186 281,-186 6312.3202,-186 6312.3202,-186"/>
<polygon fill="#000000" stroke="#000000" points="6312.3202,-189.5001 6322.3202,-186 6312.3201,-182.5001 6312.3202,-189.5001"/>
</g>
</g>
</svg>
