<?xml version="1.0" encoding="UTF-8" standalone="no"?>
<!DOCTYPE svg PUBLIC "-//W3C//DTD SVG 1.1//EN"
 "http://www.w3.org/Graphics/SVG/1.1/DTD/svg11.dtd">
<!-- Generated by graphviz version 2.40.1 (20161225.0304)
 -->
<!-- Title: dependencies Pages: 1 -->
<svg width="8658pt" height="284pt"
 viewBox="0.00 0.00 8658.00 284.00" xmlns="http://www.w3.org/2000/svg" xmlns:xlink="http://www.w3.org/1999/xlink">
<g id="graph0" class="graph" transform="scale(1 1) rotate(0) translate(4 280)">
<title>dependencies</title>
<polygon fill="#ffffff" stroke="transparent" points="-4,4 -4,-280 8654,-280 8654,4 -4,4"/>
<text text-anchor="start" x="4304.0091" y="-42.4" font-family="sans-serif" font-weight="bold" font-size="14.00" fill="#000000">Legend</text>
<polygon fill="#ffffb3" stroke="transparent" points="4091,-10 4091,-30 4111,-30 4111,-10 4091,-10"/>
<text text-anchor="start" x="4114.629" y="-15.4" font-family="sans-serif" font-size="14.00" fill="#000000"> &#160;Declarations</text>
<polygon fill="#8dd3c7" stroke="transparent" points="4204,-10 4204,-30 4224,-30 4224,-10 4204,-10"/>
<text text-anchor="start" x="4227.7251" y="-15.4" font-family="sans-serif" font-size="14.00" fill="#000000"> &#160;Module</text>
<polygon fill="#80b1d3" stroke="transparent" points="4290,-10 4290,-30 4310,-30 4310,-10 4290,-10"/>
<text text-anchor="start" x="4313.7812" y="-15.4" font-family="sans-serif" font-size="14.00" fill="#000000"> &#160;Bootstrap</text>
<polygon fill="#fdb462" stroke="transparent" points="4387,-10 4387,-30 4407,-30 4407,-10 4387,-10"/>
<text text-anchor="start" x="4410.6732" y="-15.4" font-family="sans-serif" font-size="14.00" fill="#000000"> &#160;Providers</text>
<polygon fill="#fb8072" stroke="transparent" points="4483,-10 4483,-30 4503,-30 4503,-10 4483,-10"/>
<text text-anchor="start" x="4506.7258" y="-15.4" font-family="sans-serif" font-size="14.00" fill="#000000"> &#160;Exports</text>
<g id="clust1" class="cluster">
<title>cluster_AppModule</title>
<polygon fill="none" stroke="#000000" stroke-dasharray="1,5" points="8,-70 8,-268 8642,-268 8642,-70 8,-70"/>
</g>
<g id="clust2" class="cluster">
<title>cluster_AppModule_declarations</title>
<polygon fill="none" stroke="#000000" points="8512,-78 8512,-130 8634,-130 8634,-78 8512,-78"/>
</g>
<g id="clust4" class="cluster">
<title>cluster_AppModule_imports</title>
<polygon fill="none" stroke="#000000" points="3703,-78 3703,-130 8504,-130 8504,-78 3703,-78"/>
</g>
<g id="clust6" class="cluster">
<title>cluster_AppModule_bootstrap</title>
<polygon fill="none" stroke="#000000" points="5364,-208 5364,-260 5488,-260 5488,-208 5364,-208"/>
</g>
<g id="clust7" class="cluster">
<title>cluster_AppModule_providers</title>
<polygon fill="none" stroke="#000000" points="16,-78 16,-130 3695,-130 3695,-78 16,-78"/>
</g>
<!-- AppComponent -->
<g id="node1" class="node">
<title>AppComponent</title>
<polygon fill="#ffffb3" stroke="#000000" points="8625.9399,-122 8520.0601,-122 8520.0601,-86 8625.9399,-86 8625.9399,-122"/>
<text text-anchor="middle" x="8573" y="-99.8" font-family="Times,serif" font-size="14.00" fill="#000000">AppComponent</text>
</g>
<!-- AppModule -->
<g id="node2" class="node">
<title>AppModule</title>
<polygon fill="#8dd3c7" stroke="#000000" points="5467.6571,-187 5464.6571,-191 5443.6571,-191 5440.6571,-187 5384.3429,-187 5384.3429,-151 5467.6571,-151 5467.6571,-187"/>
<text text-anchor="middle" x="5426" y="-164.8" font-family="Times,serif" font-size="14.00" fill="#000000">AppModule</text>
</g>
<!-- AppComponent&#45;&gt;AppModule -->
<g id="edge1" class="edge">
<title>AppComponent&#45;&gt;AppModule</title>
<path fill="none" stroke="#000000" d="M8573,-122.3802C8573,-146.2785 8573,-185 8573,-185 8573,-185 5477.8142,-185 5477.8142,-185"/>
<polygon fill="#000000" stroke="#000000" points="5477.8142,-181.5001 5467.8142,-185 5477.8141,-188.5001 5477.8142,-181.5001"/>
</g>
<!-- AppComponent  -->
<g id="node27" class="node">
<title>AppComponent </title>
<polygon fill="#80b1d3" stroke="#000000" points="5480.439,-252 5371.561,-252 5371.561,-216 5480.439,-216 5480.439,-252"/>
<text text-anchor="middle" x="5426" y="-229.8" font-family="Times,serif" font-size="14.00" fill="#000000">AppComponent </text>
</g>
<!-- AppModule&#45;&gt;AppComponent  -->
<g id="edge26" class="edge">
<title>AppModule&#45;&gt;AppComponent </title>
<path fill="none" stroke="#000000" stroke-dasharray="1,5" d="M5426,-187.1061C5426,-187.1061 5426,-205.991 5426,-205.991"/>
<polygon fill="#000000" stroke="#000000" points="5422.5001,-205.9909 5426,-215.991 5429.5001,-205.991 5422.5001,-205.9909"/>
</g>
<!-- CommonModule -->
<g id="node3" class="node">
<title>CommonModule</title>
<polygon fill="#8dd3c7" stroke="#000000" points="8495.6681,-122 8492.6681,-126 8471.6681,-126 8468.6681,-122 8384.3319,-122 8384.3319,-86 8495.6681,-86 8495.6681,-122"/>
<text text-anchor="middle" x="8440" y="-99.8" font-family="Times,serif" font-size="14.00" fill="#000000">CommonModule</text>
</g>
<!-- CommonModule&#45;&gt;AppModule -->
<g id="edge2" class="edge">
<title>CommonModule&#45;&gt;AppModule</title>
<path fill="none" stroke="#000000" d="M8440,-122.3228C8440,-145.6602 8440,-183 8440,-183 8440,-183 5477.7452,-183 5477.7452,-183"/>
<polygon fill="#000000" stroke="#000000" points="5477.7452,-179.5001 5467.7452,-183 5477.7452,-186.5001 5477.7452,-179.5001"/>
</g>
<!-- SharedModule -->
<g id="node4" class="node">
<title>SharedModule</title>
<polygon fill="#8dd3c7" stroke="#000000" points="8366.4231,-122 8363.4231,-126 8342.4231,-126 8339.4231,-122 8267.5769,-122 8267.5769,-86 8366.4231,-86 8366.4231,-122"/>
<text text-anchor="middle" x="8317" y="-99.8" font-family="Times,serif" font-size="14.00" fill="#000000">SharedModule</text>
</g>
<!-- SharedModule&#45;&gt;AppModule -->
<g id="edge3" class="edge">
<title>SharedModule&#45;&gt;AppModule</title>
<path fill="none" stroke="#000000" d="M8317,-122.2479C8317,-145.0179 8317,-181 8317,-181 8317,-181 5477.7026,-181 5477.7026,-181"/>
<polygon fill="#000000" stroke="#000000" points="5477.7026,-177.5001 5467.7026,-181 5477.7025,-184.5001 5477.7026,-177.5001"/>
</g>
<!-- HttpClientModule -->
<g id="node5" class="node">
<title>HttpClientModule</title>
<polygon fill="#8dd3c7" stroke="#000000" points="8249.1611,-122 8246.1611,-126 8225.1611,-126 8222.1611,-122 8130.8389,-122 8130.8389,-86 8249.1611,-86 8249.1611,-122"/>
<text text-anchor="middle" x="8190" y="-99.8" font-family="Times,serif" font-size="14.00" fill="#000000">HttpClientModule</text>
</g>
<!-- HttpClientModule&#45;&gt;AppModule -->
<g id="edge4" class="edge">
<title>HttpClientModule&#45;&gt;AppModule</title>
<path fill="none" stroke="#000000" d="M8190,-122.1554C8190,-144.3519 8190,-179 8190,-179 8190,-179 5477.7618,-179 5477.7618,-179"/>
<polygon fill="#000000" stroke="#000000" points="5477.7619,-175.5001 5467.7618,-179 5477.7618,-182.5001 5477.7619,-175.5001"/>
</g>
<!-- IonicStorageModule.forRoot() -->
<g id="node6" class="node">
<title>IonicStorageModule.forRoot()</title>
<polygon fill="#8dd3c7" stroke="#000000" points="8112.9487,-122 8109.9487,-126 8088.9487,-126 8085.9487,-122 7925.0513,-122 7925.0513,-86 8112.9487,-86 8112.9487,-122"/>
<text text-anchor="middle" x="8019" y="-99.8" font-family="Times,serif" font-size="14.00" fill="#000000">IonicStorageModule.forRoot()</text>
</g>
<!-- IonicStorageModule.forRoot()&#45;&gt;AppModule -->
<g id="edge5" class="edge">
<title>IonicStorageModule.forRoot()&#45;&gt;AppModule</title>
<path fill="none" stroke="#000000" d="M8019,-122.0449C8019,-143.6623 8019,-177 8019,-177 8019,-177 5477.7801,-177 5477.7801,-177"/>
<polygon fill="#000000" stroke="#000000" points="5477.7801,-173.5001 5467.7801,-177 5477.7801,-180.5001 5477.7801,-173.5001"/>
</g>
<!-- TranslateModule.forRoot() -->
<g id="node7" class="node">
<title>TranslateModule.forRoot()</title>
<polygon fill="#8dd3c7" stroke="#000000" points="7907.0022,-122 7904.0022,-126 7883.0022,-126 7880.0022,-122 7738.9978,-122 7738.9978,-86 7907.0022,-86 7907.0022,-122"/>
<text text-anchor="middle" x="7823" y="-99.8" font-family="Times,serif" font-size="14.00" fill="#000000">TranslateModule.forRoot()</text>
</g>
<!-- TranslateModule.forRoot()&#45;&gt;AppModule -->
<g id="edge6" class="edge">
<title>TranslateModule.forRoot()&#45;&gt;AppModule</title>
<path fill="none" stroke="#000000" d="M7823,-122.2843C7823,-143.3211 7823,-175 7823,-175 7823,-175 5477.8577,-175 5477.8577,-175"/>
<polygon fill="#000000" stroke="#000000" points="5477.8577,-171.5001 5467.8577,-175 5477.8576,-178.5001 5477.8577,-171.5001"/>
</g>
<!-- BrowserModule.withServerTransition(args) -->
<g id="node8" class="node">
<title>BrowserModule.withServerTransition(args)</title>
<polygon fill="#8dd3c7" stroke="#000000" points="7721.0794,-122 7718.0794,-126 7697.0794,-126 7694.0794,-122 7458.9206,-122 7458.9206,-86 7721.0794,-86 7721.0794,-122"/>
<text text-anchor="middle" x="7590" y="-99.8" font-family="Times,serif" font-size="14.00" fill="#000000">BrowserModule.withServerTransition(args)</text>
</g>
<!-- BrowserModule.withServerTransition(args)&#45;&gt;AppModule -->
<g id="edge7" class="edge">
<title>BrowserModule.withServerTransition(args)&#45;&gt;AppModule</title>
<path fill="none" stroke="#000000" d="M7590,-122.1289C7590,-142.5724 7590,-173 7590,-173 7590,-173 5477.7751,-173 5477.7751,-173"/>
<polygon fill="#000000" stroke="#000000" points="5477.7752,-169.5001 5467.7751,-173 5477.7751,-176.5001 5477.7752,-169.5001"/>
</g>
<!-- TransferHttpCacheModule.forRoot() -->
<g id="node9" class="node">
<title>TransferHttpCacheModule.forRoot()</title>
<polygon fill="#8dd3c7" stroke="#000000" points="7440.6959,-122 7437.6959,-126 7416.6959,-126 7413.6959,-122 7217.3041,-122 7217.3041,-86 7440.6959,-86 7440.6959,-122"/>
<text text-anchor="middle" x="7329" y="-99.8" font-family="Times,serif" font-size="14.00" fill="#000000">TransferHttpCacheModule.forRoot()</text>
</g>
<!-- TransferHttpCacheModule.forRoot()&#45;&gt;AppModule -->
<g id="edge8" class="edge">
<title>TransferHttpCacheModule.forRoot()&#45;&gt;AppModule</title>
<path fill="none" stroke="#000000" d="M7329,-122.308C7329,-142.1455 7329,-171 7329,-171 7329,-171 5477.9647,-171 5477.9647,-171"/>
<polygon fill="#000000" stroke="#000000" points="5477.9647,-167.5001 5467.9647,-171 5477.9647,-174.5001 5477.9647,-167.5001"/>
</g>
<!-- NgxPermissionsModule.forRoot() -->
<g id="node10" class="node">
<title>NgxPermissionsModule.forRoot()</title>
<polygon fill="#8dd3c7" stroke="#000000" points="7199.6896,-122 7196.6896,-126 7175.6896,-126 7172.6896,-122 6992.3104,-122 6992.3104,-86 7199.6896,-86 7199.6896,-122"/>
<text text-anchor="middle" x="7096" y="-99.8" font-family="Times,serif" font-size="14.00" fill="#000000">NgxPermissionsModule.forRoot()</text>
</g>
<!-- NgxPermissionsModule.forRoot()&#45;&gt;AppModule -->
<g id="edge9" class="edge">
<title>NgxPermissionsModule.forRoot()&#45;&gt;AppModule</title>
<path fill="none" stroke="#000000" d="M7096,-122.1686C7096,-141.0898 7096,-168 7096,-168 7096,-168 5477.6978,-168 5477.6978,-168"/>
<polygon fill="#000000" stroke="#000000" points="5477.6978,-164.5001 5467.6978,-168 5477.6977,-171.5001 5477.6978,-164.5001"/>
</g>
<!-- IonicModule.forRoot() -->
<g id="node11" class="node">
<title>IonicModule.forRoot()</title>
<polygon fill="#8dd3c7" stroke="#000000" points="6974.1855,-122 6971.1855,-126 6950.1855,-126 6947.1855,-122 6829.8145,-122 6829.8145,-86 6974.1855,-86 6974.1855,-122"/>
<text text-anchor="middle" x="6902" y="-99.8" font-family="Times,serif" font-size="14.00" fill="#000000">IonicModule.forRoot()</text>
</g>
<!-- IonicModule.forRoot()&#45;&gt;AppModule -->
<g id="edge10" class="edge">
<title>IonicModule.forRoot()&#45;&gt;AppModule</title>
<path fill="none" stroke="#000000" d="M6902,-122.2667C6902,-140.5552 6902,-166 6902,-166 6902,-166 5477.7962,-166 5477.7962,-166"/>
<polygon fill="#000000" stroke="#000000" points="5477.7963,-162.5001 5467.7962,-166 5477.7962,-169.5001 5477.7963,-162.5001"/>
</g>
<!-- AuthModule.forRoot(args) -->
<g id="node12" class="node">
<title>AuthModule.forRoot(args)</title>
<polygon fill="#8dd3c7" stroke="#000000" points="6811.7366,-122 6808.7366,-126 6787.7366,-126 6784.7366,-122 6644.2634,-122 6644.2634,-86 6811.7366,-86 6811.7366,-122"/>
<text text-anchor="middle" x="6728" y="-99.8" font-family="Times,serif" font-size="14.00" fill="#000000">AuthModule.forRoot(args)</text>
</g>
<!-- AuthModule.forRoot(args)&#45;&gt;AppModule -->
<g id="edge11" class="edge">
<title>AuthModule.forRoot(args)&#45;&gt;AppModule</title>
<path fill="none" stroke="#000000" d="M6728,-122.002C6728,-139.6754 6728,-164 6728,-164 6728,-164 5477.8452,-164 5477.8452,-164"/>
<polygon fill="#000000" stroke="#000000" points="5477.8453,-160.5001 5467.8452,-164 5477.8452,-167.5001 5477.8453,-160.5001"/>
</g>
<!-- AccountModule.forRoot(args) -->
<g id="node13" class="node">
<title>AccountModule.forRoot(args)</title>
<polygon fill="#8dd3c7" stroke="#000000" points="6626.1659,-122 6623.1659,-126 6602.1659,-126 6599.1659,-122 6439.8341,-122 6439.8341,-86 6626.1659,-86 6626.1659,-122"/>
<text text-anchor="middle" x="6533" y="-99.8" font-family="Times,serif" font-size="14.00" fill="#000000">AccountModule.forRoot(args)</text>
</g>
<!-- AccountModule.forRoot(args)&#45;&gt;AppModule -->
<g id="edge12" class="edge">
<title>AccountModule.forRoot(args)&#45;&gt;AppModule</title>
<path fill="none" stroke="#000000" d="M6533,-122.0336C6533,-139.0597 6533,-162 6533,-162 6533,-162 5477.709,-162 5477.709,-162"/>
<polygon fill="#000000" stroke="#000000" points="5477.7091,-158.5001 5467.709,-162 5477.709,-165.5001 5477.7091,-158.5001"/>
</g>
<!-- LangModule.forRoot(args) -->
<g id="node14" class="node">
<title>LangModule.forRoot(args)</title>
<polygon fill="#8dd3c7" stroke="#000000" points="6422.0064,-122 6419.0064,-126 6398.0064,-126 6395.0064,-122 6253.9936,-122 6253.9936,-86 6422.0064,-86 6422.0064,-122"/>
<text text-anchor="middle" x="6338" y="-99.8" font-family="Times,serif" font-size="14.00" fill="#000000">LangModule.forRoot(args)</text>
</g>
<!-- LangModule.forRoot(args)&#45;&gt;AppModule -->
<g id="edge13" class="edge">
<title>LangModule.forRoot(args)&#45;&gt;AppModule</title>
<path fill="none" stroke="#000000" d="M6338,-122.027C6338,-138.3976 6338,-160 6338,-160 6338,-160 5477.8571,-160 5477.8571,-160"/>
<polygon fill="#000000" stroke="#000000" points="5477.8571,-156.5001 5467.8571,-160 5477.8571,-163.5001 5477.8571,-156.5001"/>
</g>
<!-- RouterModule.forRoot(args) -->
<g id="node15" class="node">
<title>RouterModule.forRoot(args)</title>
<polygon fill="#8dd3c7" stroke="#000000" points="6235.8419,-122 6232.8419,-126 6211.8419,-126 6208.8419,-122 6058.1581,-122 6058.1581,-86 6235.8419,-86 6235.8419,-122"/>
<text text-anchor="middle" x="6147" y="-99.8" font-family="Times,serif" font-size="14.00" fill="#000000">RouterModule.forRoot(args)</text>
</g>
<!-- RouterModule.forRoot(args)&#45;&gt;AppModule -->
<g id="edge14" class="edge">
<title>RouterModule.forRoot(args)&#45;&gt;AppModule</title>
<path fill="none" stroke="#000000" d="M6147,-122.2819C6147,-137.9478 6147,-158 6147,-158 6147,-158 5477.8804,-158 5477.8804,-158"/>
<polygon fill="#000000" stroke="#000000" points="5477.8805,-154.5001 5467.8804,-158 5477.8804,-161.5001 5477.8805,-154.5001"/>
</g>
<!-- MetaModule.forRoot(args) -->
<g id="node16" class="node">
<title>MetaModule.forRoot(args)</title>
<polygon fill="#8dd3c7" stroke="#000000" points="6040.0036,-122 6037.0036,-126 6016.0036,-126 6013.0036,-122 5871.9964,-122 5871.9964,-86 6040.0036,-86 6040.0036,-122"/>
<text text-anchor="middle" x="5956" y="-99.8" font-family="Times,serif" font-size="14.00" fill="#000000">MetaModule.forRoot(args)</text>
</g>
<!-- MetaModule.forRoot(args)&#45;&gt;AppModule -->
<g id="edge15" class="edge">
<title>MetaModule.forRoot(args)&#45;&gt;AppModule</title>
<path fill="none" stroke="#000000" d="M5956,-122.1871C5956,-137.1824 5956,-156 5956,-156 5956,-156 5478.0312,-156 5478.0312,-156"/>
<polygon fill="#000000" stroke="#000000" points="5478.0313,-152.5001 5468.0312,-156 5478.0312,-159.5001 5478.0313,-152.5001"/>
</g>
<!-- AuthModalModule.forRoot(args) -->
<g id="node17" class="node">
<title>AuthModalModule.forRoot(args)</title>
<polygon fill="#8dd3c7" stroke="#000000" points="5853.7863,-122 5850.7863,-126 5829.7863,-126 5826.7863,-122 5650.2137,-122 5650.2137,-86 5853.7863,-86 5853.7863,-122"/>
<text text-anchor="middle" x="5752" y="-99.8" font-family="Times,serif" font-size="14.00" fill="#000000">AuthModalModule.forRoot(args)</text>
</g>
<!-- AuthModalModule.forRoot(args)&#45;&gt;AppModule -->
<g id="edge16" class="edge">
<title>AuthModalModule.forRoot(args)&#45;&gt;AppModule</title>
<path fill="none" stroke="#000000" d="M5752,-122.0511C5752,-136.373 5752,-154 5752,-154 5752,-154 5477.9514,-154 5477.9514,-154"/>
<polygon fill="#000000" stroke="#000000" points="5477.9514,-150.5001 5467.9514,-154 5477.9514,-157.5001 5477.9514,-150.5001"/>
</g>
<!-- NgxBindIOModule.forRoot() -->
<g id="node18" class="node">
<title>NgxBindIOModule.forRoot()</title>
<polygon fill="#8dd3c7" stroke="#000000" points="5632.0204,-122 5629.0204,-126 5608.0204,-126 5605.0204,-122 5449.9796,-122 5449.9796,-86 5632.0204,-86 5632.0204,-122"/>
<text text-anchor="middle" x="5541" y="-99.8" font-family="Times,serif" font-size="14.00" fill="#000000">NgxBindIOModule.forRoot()</text>
</g>
<!-- NgxBindIOModule.forRoot()&#45;&gt;AppModule -->
<g id="edge17" class="edge">
<title>NgxBindIOModule.forRoot()&#45;&gt;AppModule</title>
<path fill="none" stroke="#000000" d="M5458.909,-122.1061C5458.909,-122.1061 5458.909,-140.991 5458.909,-140.991"/>
<polygon fill="#000000" stroke="#000000" points="5455.4091,-140.9909 5458.909,-150.991 5462.4091,-140.991 5455.4091,-140.9909"/>
</g>
<!-- UsersListFiltersModalModule.forRoot() -->
<g id="node19" class="node">
<title>UsersListFiltersModalModule.forRoot()</title>
<polygon fill="#8dd3c7" stroke="#000000" points="5431.8928,-122 5428.8928,-126 5407.8928,-126 5404.8928,-122 5190.1072,-122 5190.1072,-86 5431.8928,-86 5431.8928,-122"/>
<text text-anchor="middle" x="5311" y="-99.8" font-family="Times,serif" font-size="14.00" fill="#000000">UsersListFiltersModalModule.forRoot()</text>
</g>
<!-- UsersListFiltersModalModule.forRoot()&#45;&gt;AppModule -->
<g id="edge18" class="edge">
<title>UsersListFiltersModalModule.forRoot()&#45;&gt;AppModule</title>
<path fill="none" stroke="#000000" d="M5408.0591,-122.1061C5408.0591,-122.1061 5408.0591,-140.991 5408.0591,-140.991"/>
<polygon fill="#000000" stroke="#000000" points="5404.5592,-140.9909 5408.0591,-150.991 5411.5592,-140.991 5404.5592,-140.9909"/>
</g>
<!-- GroupsListFiltersModalModule.forRoot() -->
<g id="node20" class="node">
<title>GroupsListFiltersModalModule.forRoot()</title>
<polygon fill="#8dd3c7" stroke="#000000" points="5171.7337,-122 5168.7337,-126 5147.7337,-126 5144.7337,-122 4920.2663,-122 4920.2663,-86 5171.7337,-86 5171.7337,-122"/>
<text text-anchor="middle" x="5046" y="-99.8" font-family="Times,serif" font-size="14.00" fill="#000000">GroupsListFiltersModalModule.forRoot()</text>
</g>
<!-- GroupsListFiltersModalModule.forRoot()&#45;&gt;AppModule -->
<g id="edge19" class="edge">
<title>GroupsListFiltersModalModule.forRoot()&#45;&gt;AppModule</title>
<path fill="none" stroke="#000000" d="M5046,-122.0511C5046,-136.373 5046,-154 5046,-154 5046,-154 5374.2463,-154 5374.2463,-154"/>
<polygon fill="#000000" stroke="#000000" points="5374.2464,-157.5001 5384.2463,-154 5374.2463,-150.5001 5374.2464,-157.5001"/>
</g>
<!-- TasksListFiltersModalModule.forRoot() -->
<g id="node21" class="node">
<title>TasksListFiltersModalModule.forRoot()</title>
<polygon fill="#8dd3c7" stroke="#000000" points="4902.1784,-122 4899.1784,-126 4878.1784,-126 4875.1784,-122 4659.8216,-122 4659.8216,-86 4902.1784,-86 4902.1784,-122"/>
<text text-anchor="middle" x="4781" y="-99.8" font-family="Times,serif" font-size="14.00" fill="#000000">TasksListFiltersModalModule.forRoot()</text>
</g>
<!-- TasksListFiltersModalModule.forRoot()&#45;&gt;AppModule -->
<g id="edge20" class="edge">
<title>TasksListFiltersModalModule.forRoot()&#45;&gt;AppModule</title>
<path fill="none" stroke="#000000" d="M4781,-122.1871C4781,-137.1824 4781,-156 4781,-156 4781,-156 5374.1767,-156 5374.1767,-156"/>
<polygon fill="#000000" stroke="#000000" points="5374.1768,-159.5001 5384.1767,-156 5374.1767,-152.5001 5374.1768,-159.5001"/>
</g>
<!-- ProjectsListFiltersModalModule.forRoot(args) -->
<g id="node22" class="node">
<title>ProjectsListFiltersModalModule.forRoot(args)</title>
<polygon fill="#8dd3c7" stroke="#000000" points="4641.4401,-122 4638.4401,-126 4617.4401,-126 4614.4401,-122 4362.5599,-122 4362.5599,-86 4641.4401,-86 4641.4401,-122"/>
<text text-anchor="middle" x="4502" y="-99.8" font-family="Times,serif" font-size="14.00" fill="#000000">ProjectsListFiltersModalModule.forRoot(args)</text>
</g>
<!-- ProjectsListFiltersModalModule.forRoot(args)&#45;&gt;AppModule -->
<g id="edge21" class="edge">
<title>ProjectsListFiltersModalModule.forRoot(args)&#45;&gt;AppModule</title>
<path fill="none" stroke="#000000" d="M4502,-122.2819C4502,-137.9478 4502,-158 4502,-158 4502,-158 5374.2001,-158 5374.2001,-158"/>
<polygon fill="#000000" stroke="#000000" points="5374.2001,-161.5001 5384.2001,-158 5374.2001,-154.5001 5374.2001,-161.5001"/>
</g>
<!-- RuckenCoreModule -->
<g id="node23" class="node">
<title>RuckenCoreModule</title>
<polygon fill="#8dd3c7" stroke="#000000" points="4344.5283,-122 4341.5283,-126 4320.5283,-126 4317.5283,-122 4215.4717,-122 4215.4717,-86 4344.5283,-86 4344.5283,-122"/>
<text text-anchor="middle" x="4280" y="-99.8" font-family="Times,serif" font-size="14.00" fill="#000000">RuckenCoreModule</text>
</g>
<!-- RuckenCoreModule&#45;&gt;AppModule -->
<g id="edge22" class="edge">
<title>RuckenCoreModule&#45;&gt;AppModule</title>
<path fill="none" stroke="#000000" d="M4280,-122.027C4280,-138.3976 4280,-160 4280,-160 4280,-160 5374.1958,-160 5374.1958,-160"/>
<polygon fill="#000000" stroke="#000000" points="5374.1958,-163.5001 5384.1958,-160 5374.1958,-156.5001 5374.1958,-163.5001"/>
</g>
<!-- RuckenIonicModule -->
<g id="node24" class="node">
<title>RuckenIonicModule</title>
<polygon fill="#8dd3c7" stroke="#000000" points="4197.5814,-122 4194.5814,-126 4173.5814,-126 4170.5814,-122 4066.4186,-122 4066.4186,-86 4197.5814,-86 4197.5814,-122"/>
<text text-anchor="middle" x="4132" y="-99.8" font-family="Times,serif" font-size="14.00" fill="#000000">RuckenIonicModule</text>
</g>
<!-- RuckenIonicModule&#45;&gt;AppModule -->
<g id="edge23" class="edge">
<title>RuckenIonicModule&#45;&gt;AppModule</title>
<path fill="none" stroke="#000000" d="M4132,-122.0336C4132,-139.0597 4132,-162 4132,-162 4132,-162 5374.0477,-162 5374.0477,-162"/>
<polygon fill="#000000" stroke="#000000" points="5374.0477,-165.5001 5384.0477,-162 5374.0476,-158.5001 5374.0477,-165.5001"/>
</g>
<!-- RuckenTodoCoreModule -->
<g id="node25" class="node">
<title>RuckenTodoCoreModule</title>
<polygon fill="#8dd3c7" stroke="#000000" points="4048.58,-122 4045.58,-126 4024.58,-126 4021.58,-122 3889.42,-122 3889.42,-86 4048.58,-86 4048.58,-122"/>
<text text-anchor="middle" x="3969" y="-99.8" font-family="Times,serif" font-size="14.00" fill="#000000">RuckenTodoCoreModule</text>
</g>
<!-- RuckenTodoCoreModule&#45;&gt;AppModule -->
<g id="edge24" class="edge">
<title>RuckenTodoCoreModule&#45;&gt;AppModule</title>
<path fill="none" stroke="#000000" d="M3969,-122.002C3969,-139.6754 3969,-164 3969,-164 3969,-164 5373.9661,-164 5373.9661,-164"/>
<polygon fill="#000000" stroke="#000000" points="5373.9662,-167.5001 5383.9661,-164 5373.9661,-160.5001 5373.9662,-167.5001"/>
</g>
<!-- RuckenTodoIonicModule -->
<g id="node26" class="node">
<title>RuckenTodoIonicModule</title>
<polygon fill="#8dd3c7" stroke="#000000" points="3871.1344,-122 3868.1344,-126 3847.1344,-126 3844.1344,-122 3710.8656,-122 3710.8656,-86 3871.1344,-86 3871.1344,-122"/>
<text text-anchor="middle" x="3791" y="-99.8" font-family="Times,serif" font-size="14.00" fill="#000000">RuckenTodoIonicModule</text>
</g>
<!-- RuckenTodoIonicModule&#45;&gt;AppModule -->
<g id="edge25" class="edge">
<title>RuckenTodoIonicModule&#45;&gt;AppModule</title>
<path fill="none" stroke="#000000" d="M3791,-122.2667C3791,-140.5552 3791,-166 3791,-166 3791,-166 5373.941,-166 5373.941,-166"/>
<polygon fill="#000000" stroke="#000000" points="5373.941,-169.5001 5383.941,-166 5373.941,-162.5001 5373.941,-169.5001"/>
</g>
<!-- { provide: CONTENT_TYPES_CONFIG_TOKEN, useValue: &#160;} -->
<g id="node28" class="node">
<title>{ provide: CONTENT_TYPES_CONFIG_TOKEN, useValue: &#160;}</title>
<ellipse fill="#fdb462" stroke="#000000" cx="3424" cy="-104" rx="263.0597" ry="18"/>
<text text-anchor="middle" x="3424" y="-99.8" font-family="Times,serif" font-size="14.00" fill="#000000">{ provide: CONTENT_TYPES_CONFIG_TOKEN, useValue: &#160;}</text>
</g>
<!-- { provide: CONTENT_TYPES_CONFIG_TOKEN, useValue: &#160;}&#45;&gt;AppModule -->
<g id="edge27" class="edge">
<title>{ provide: CONTENT_TYPES_CONFIG_TOKEN, useValue: &#160;}&#45;&gt;AppModule</title>
<path fill="none" stroke="#000000" d="M3424,-122.1686C3424,-141.0898 3424,-168 3424,-168 3424,-168 5374.1854,-168 5374.1854,-168"/>
<polygon fill="#000000" stroke="#000000" points="5374.1854,-171.5001 5384.1854,-168 5374.1853,-164.5001 5374.1854,-171.5001"/>
</g>
<!-- { provide: PERMISSIONS_CONFIG_TOKEN, useValue: &#160;} -->
<g id="node29" class="node">
<title>{ provide: PERMISSIONS_CONFIG_TOKEN, useValue: &#160;}</title>
<ellipse fill="#fdb462" stroke="#000000" cx="2896" cy="-104" rx="246.8224" ry="18"/>
<text text-anchor="middle" x="2896" y="-99.8" font-family="Times,serif" font-size="14.00" fill="#000000">{ provide: PERMISSIONS_CONFIG_TOKEN, useValue: &#160;}</text>
</g>
<!-- { provide: PERMISSIONS_CONFIG_TOKEN, useValue: &#160;}&#45;&gt;AppModule -->
<g id="edge28" class="edge">
<title>{ provide: PERMISSIONS_CONFIG_TOKEN, useValue: &#160;}&#45;&gt;AppModule</title>
<path fill="none" stroke="#000000" d="M2896,-122.308C2896,-142.1455 2896,-171 2896,-171 2896,-171 5374.198,-171 5374.198,-171"/>
<polygon fill="#000000" stroke="#000000" points="5374.198,-174.5001 5384.198,-171 5374.1979,-167.5001 5374.198,-174.5001"/>
</g>
<!-- { provide: USERS_CONFIG_TOKEN, useValue: &#160;} -->
<g id="node30" class="node">
<title>{ provide: USERS_CONFIG_TOKEN, useValue: &#160;}</title>
<ellipse fill="#fdb462" stroke="#000000" cx="2417" cy="-104" rx="213.8791" ry="18"/>
<text text-anchor="middle" x="2417" y="-99.8" font-family="Times,serif" font-size="14.00" fill="#000000">{ provide: USERS_CONFIG_TOKEN, useValue: &#160;}</text>
</g>
<!-- { provide: USERS_CONFIG_TOKEN, useValue: &#160;}&#45;&gt;AppModule -->
<g id="edge29" class="edge">
<title>{ provide: USERS_CONFIG_TOKEN, useValue: &#160;}&#45;&gt;AppModule</title>
<path fill="none" stroke="#000000" d="M2417,-122.1289C2417,-142.5724 2417,-173 2417,-173 2417,-173 5374.324,-173 5374.324,-173"/>
<polygon fill="#000000" stroke="#000000" points="5374.3241,-176.5001 5384.324,-173 5374.324,-169.5001 5374.3241,-176.5001"/>
</g>
<!-- { provide: GROUPS_CONFIG_TOKEN, useValue: &#160;} -->
<g id="node31" class="node">
<title>{ provide: GROUPS_CONFIG_TOKEN, useValue: &#160;}</title>
<ellipse fill="#fdb462" stroke="#000000" cx="1963" cy="-104" rx="221.9656" ry="18"/>
<text text-anchor="middle" x="1963" y="-99.8" font-family="Times,serif" font-size="14.00" fill="#000000">{ provide: GROUPS_CONFIG_TOKEN, useValue: &#160;}</text>
</g>
<!-- { provide: GROUPS_CONFIG_TOKEN, useValue: &#160;}&#45;&gt;AppModule -->
<g id="edge30" class="edge">
<title>{ provide: GROUPS_CONFIG_TOKEN, useValue: &#160;}&#45;&gt;AppModule</title>
<path fill="none" stroke="#000000" d="M1963,-122.2843C1963,-143.3211 1963,-175 1963,-175 1963,-175 5374.0825,-175 5374.0825,-175"/>
<polygon fill="#000000" stroke="#000000" points="5374.0825,-178.5001 5384.0825,-175 5374.0825,-171.5001 5374.0825,-178.5001"/>
</g>
<!-- { provide: PROJECTS_CONFIG_TOKEN, useValue: &#160;} -->
<g id="node32" class="node">
<title>{ provide: PROJECTS_CONFIG_TOKEN, useValue: &#160;}</title>
<ellipse fill="#fdb462" stroke="#000000" cx="1493" cy="-104" rx="230.0695" ry="18"/>
<text text-anchor="middle" x="1493" y="-99.8" font-family="Times,serif" font-size="14.00" fill="#000000">{ provide: PROJECTS_CONFIG_TOKEN, useValue: &#160;}</text>
</g>
<!-- { provide: PROJECTS_CONFIG_TOKEN, useValue: &#160;}&#45;&gt;AppModule -->
<g id="edge31" class="edge">
<title>{ provide: PROJECTS_CONFIG_TOKEN, useValue: &#160;}&#45;&gt;AppModule</title>
<path fill="none" stroke="#000000" d="M1493,-122.0449C1493,-143.6623 1493,-177 1493,-177 1493,-177 5374.1634,-177 5374.1634,-177"/>
<polygon fill="#000000" stroke="#000000" points="5374.1634,-180.5001 5384.1634,-177 5374.1633,-173.5001 5374.1634,-180.5001"/>
</g>
<!-- { provide: TASKS_CONFIG_TOKEN, useValue: &#160;} -->
<g id="node33" class="node">
<title>{ provide: TASKS_CONFIG_TOKEN, useValue: &#160;}</title>
<ellipse fill="#fdb462" stroke="#000000" cx="1030" cy="-104" rx="214.4413" ry="18"/>
<text text-anchor="middle" x="1030" y="-99.8" font-family="Times,serif" font-size="14.00" fill="#000000">{ provide: TASKS_CONFIG_TOKEN, useValue: &#160;}</text>
</g>
<!-- { provide: TASKS_CONFIG_TOKEN, useValue: &#160;}&#45;&gt;AppModule -->
<g id="edge32" class="edge">
<title>{ provide: TASKS_CONFIG_TOKEN, useValue: &#160;}&#45;&gt;AppModule</title>
<path fill="none" stroke="#000000" d="M1030,-122.1554C1030,-144.3519 1030,-179 1030,-179 1030,-179 5374.2499,-179 5374.2499,-179"/>
<polygon fill="#000000" stroke="#000000" points="5374.2499,-182.5001 5384.2499,-179 5374.2499,-175.5001 5374.2499,-182.5001"/>
</g>
<!-- StatusBar -->
<g id="node34" class="node">
<title>StatusBar</title>
<ellipse fill="#fdb462" stroke="#000000" cx="749" cy="-104" rx="48.6694" ry="18"/>
<text text-anchor="middle" x="749" y="-99.8" font-family="Times,serif" font-size="14.00" fill="#000000">StatusBar</text>
</g>
<!-- StatusBar&#45;&gt;AppModule -->
<g id="edge33" class="edge">
<title>StatusBar&#45;&gt;AppModule</title>
<path fill="none" stroke="#000000" d="M749,-122.2479C749,-145.0179 749,-181 749,-181 749,-181 5374.1384,-181 5374.1384,-181"/>
<polygon fill="#000000" stroke="#000000" points="5374.1385,-184.5001 5384.1384,-181 5374.1384,-177.5001 5374.1385,-184.5001"/>
</g>
<!-- SplashScreen -->
<g id="node35" class="node">
<title>SplashScreen</title>
<ellipse fill="#fdb462" stroke="#000000" cx="619" cy="-104" rx="63.1189" ry="18"/>
<text text-anchor="middle" x="619" y="-99.8" font-family="Times,serif" font-size="14.00" fill="#000000">SplashScreen</text>
</g>
<!-- SplashScreen&#45;&gt;AppModule -->
<g id="edge34" class="edge">
<title>SplashScreen&#45;&gt;AppModule</title>
<path fill="none" stroke="#000000" d="M619,-122.3228C619,-145.6602 619,-183 619,-183 619,-183 5374.0784,-183 5374.0784,-183"/>
<polygon fill="#000000" stroke="#000000" points="5374.0785,-186.5001 5384.0784,-183 5374.0784,-179.5001 5374.0785,-186.5001"/>
</g>
<!-- { provide: RouteReuseStrategy, useClass: IonicRouteStrategy } -->
<g id="node36" class="node">
<title>{ provide: RouteReuseStrategy, useClass: IonicRouteStrategy }</title>
<ellipse fill="#fdb462" stroke="#000000" cx="281" cy="-104" rx="257.2723" ry="18"/>
<text text-anchor="middle" x="281" y="-99.8" font-family="Times,serif" font-size="14.00" fill="#000000">{ provide: RouteReuseStrategy, useClass: IonicRouteStrategy }</text>
</g>
<!-- { provide: RouteReuseStrategy, useClass: IonicRouteStrategy }&#45;&gt;AppModule -->
<g id="edge35" class="edge">
<title>{ provide: RouteReuseStrategy, useClass: IonicRouteStrategy }&#45;&gt;AppModule</title>
<path fill="none" stroke="#000000" d="M281,-122.3802C281,-146.2785 281,-185 281,-185 281,-185 5374.2083,-185 5374.2083,-185"/>
<polygon fill="#000000" stroke="#000000" points="5374.2083,-188.5001 5384.2083,-185 5374.2083,-181.5001 5374.2083,-188.5001"/>
</g>
</g>
</svg>
