<?xml version="1.0" encoding="UTF-8" standalone="no"?>
<!DOCTYPE svg PUBLIC "-//W3C//DTD SVG 1.1//EN"
 "http://www.w3.org/Graphics/SVG/1.1/DTD/svg11.dtd">
<!-- Generated by graphviz version 2.40.1 (20161225.0304)
 -->
<!-- Title: dependencies Pages: 1 -->
<svg width="9684pt" height="284pt"
 viewBox="0.00 0.00 9684.00 284.00" xmlns="http://www.w3.org/2000/svg" xmlns:xlink="http://www.w3.org/1999/xlink">
<g id="graph0" class="graph" transform="scale(1 1) rotate(0) translate(4 280)">
<title>dependencies</title>
<polygon fill="#ffffff" stroke="transparent" points="-4,4 -4,-280 9680,-280 9680,4 -4,4"/>
<text text-anchor="start" x="4817.0091" y="-42.4" font-family="sans-serif" font-weight="bold" font-size="14.00" fill="#000000">Legend</text>
<polygon fill="#ffffb3" stroke="transparent" points="4604,-10 4604,-30 4624,-30 4624,-10 4604,-10"/>
<text text-anchor="start" x="4627.629" y="-15.4" font-family="sans-serif" font-size="14.00" fill="#000000"> &#160;Declarations</text>
<polygon fill="#8dd3c7" stroke="transparent" points="4717,-10 4717,-30 4737,-30 4737,-10 4717,-10"/>
<text text-anchor="start" x="4740.7251" y="-15.4" font-family="sans-serif" font-size="14.00" fill="#000000"> &#160;Module</text>
<polygon fill="#80b1d3" stroke="transparent" points="4803,-10 4803,-30 4823,-30 4823,-10 4803,-10"/>
<text text-anchor="start" x="4826.7812" y="-15.4" font-family="sans-serif" font-size="14.00" fill="#000000"> &#160;Bootstrap</text>
<polygon fill="#fdb462" stroke="transparent" points="4900,-10 4900,-30 4920,-30 4920,-10 4900,-10"/>
<text text-anchor="start" x="4923.6732" y="-15.4" font-family="sans-serif" font-size="14.00" fill="#000000"> &#160;Providers</text>
<polygon fill="#fb8072" stroke="transparent" points="4996,-10 4996,-30 5016,-30 5016,-10 4996,-10"/>
<text text-anchor="start" x="5019.7258" y="-15.4" font-family="sans-serif" font-size="14.00" fill="#000000"> &#160;Exports</text>
<g id="clust1" class="cluster">
<title>cluster_AppModule</title>
<polygon fill="none" stroke="#000000" stroke-dasharray="1,5" points="8,-70 8,-268 9668,-268 9668,-70 8,-70"/>
</g>
<g id="clust2" class="cluster">
<title>cluster_AppModule_declarations</title>
<polygon fill="none" stroke="#000000" points="9538,-78 9538,-130 9660,-130 9660,-78 9538,-78"/>
</g>
<g id="clust4" class="cluster">
<title>cluster_AppModule_imports</title>
<polygon fill="none" stroke="#000000" points="4465,-78 4465,-130 9530,-130 9530,-78 4465,-78"/>
</g>
<g id="clust6" class="cluster">
<title>cluster_AppModule_bootstrap</title>
<polygon fill="none" stroke="#000000" points="6011,-208 6011,-260 6135,-260 6135,-208 6011,-208"/>
</g>
<g id="clust7" class="cluster">
<title>cluster_AppModule_providers</title>
<polygon fill="none" stroke="#000000" points="16,-78 16,-130 4457,-130 4457,-78 16,-78"/>
</g>
<!-- AppComponent -->
<g id="node1" class="node">
<title>AppComponent</title>
<polygon fill="#ffffb3" stroke="#000000" points="9651.9399,-122 9546.0601,-122 9546.0601,-86 9651.9399,-86 9651.9399,-122"/>
<text text-anchor="middle" x="9599" y="-99.8" font-family="Times,serif" font-size="14.00" fill="#000000">AppComponent</text>
</g>
<!-- AppModule -->
<g id="node2" class="node">
<title>AppModule</title>
<polygon fill="#8dd3c7" stroke="#000000" points="6114.6571,-187 6111.6571,-191 6090.6571,-191 6087.6571,-187 6031.3429,-187 6031.3429,-151 6114.6571,-151 6114.6571,-187"/>
<text text-anchor="middle" x="6073" y="-164.8" font-family="Times,serif" font-size="14.00" fill="#000000">AppModule</text>
</g>
<!-- AppComponent&#45;&gt;AppModule -->
<g id="edge1" class="edge">
<title>AppComponent&#45;&gt;AppModule</title>
<path fill="none" stroke="#000000" d="M9599,-122.1985C9599,-146.3563 9599,-186 9599,-186 9599,-186 6124.7441,-186 6124.7441,-186"/>
<polygon fill="#000000" stroke="#000000" points="6124.7441,-182.5001 6114.7441,-186 6124.7441,-189.5001 6124.7441,-182.5001"/>
</g>
<!-- AppComponent  -->
<g id="node28" class="node">
<title>AppComponent </title>
<polygon fill="#80b1d3" stroke="#000000" points="6127.439,-252 6018.561,-252 6018.561,-216 6127.439,-216 6127.439,-252"/>
<text text-anchor="middle" x="6073" y="-229.8" font-family="Times,serif" font-size="14.00" fill="#000000">AppComponent </text>
</g>
<!-- AppModule&#45;&gt;AppComponent  -->
<g id="edge27" class="edge">
<title>AppModule&#45;&gt;AppComponent </title>
<path fill="none" stroke="#000000" stroke-dasharray="1,5" d="M6073,-187.1061C6073,-187.1061 6073,-205.991 6073,-205.991"/>
<polygon fill="#000000" stroke="#000000" points="6069.5001,-205.9909 6073,-215.991 6076.5001,-205.991 6069.5001,-205.9909"/>
</g>
<!-- CommonModule -->
<g id="node3" class="node">
<title>CommonModule</title>
<polygon fill="#8dd3c7" stroke="#000000" points="9521.6681,-122 9518.6681,-126 9497.6681,-126 9494.6681,-122 9410.3319,-122 9410.3319,-86 9521.6681,-86 9521.6681,-122"/>
<text text-anchor="middle" x="9466" y="-99.8" font-family="Times,serif" font-size="14.00" fill="#000000">CommonModule</text>
</g>
<!-- CommonModule&#45;&gt;AppModule -->
<g id="edge2" class="edge">
<title>CommonModule&#45;&gt;AppModule</title>
<path fill="none" stroke="#000000" d="M9466,-122.1532C9466,-145.7566 9466,-184 9466,-184 9466,-184 6124.6759,-184 6124.6759,-184"/>
<polygon fill="#000000" stroke="#000000" points="6124.676,-180.5001 6114.6759,-184 6124.6759,-187.5001 6124.676,-180.5001"/>
</g>
<!-- SharedModule -->
<g id="node4" class="node">
<title>SharedModule</title>
<polygon fill="#8dd3c7" stroke="#000000" points="9392.4231,-122 9389.4231,-126 9368.4231,-126 9365.4231,-122 9293.5769,-122 9293.5769,-86 9392.4231,-86 9392.4231,-122"/>
<text text-anchor="middle" x="9343" y="-99.8" font-family="Times,serif" font-size="14.00" fill="#000000">SharedModule</text>
</g>
<!-- SharedModule&#45;&gt;AppModule -->
<g id="edge3" class="edge">
<title>SharedModule&#45;&gt;AppModule</title>
<path fill="none" stroke="#000000" d="M9343,-122.0908C9343,-145.1328 9343,-182 9343,-182 9343,-182 6124.9408,-182 6124.9408,-182"/>
<polygon fill="#000000" stroke="#000000" points="6124.9409,-178.5001 6114.9408,-182 6124.9408,-185.5001 6124.9409,-178.5001"/>
</g>
<!-- HttpClientModule -->
<g id="node5" class="node">
<title>HttpClientModule</title>
<polygon fill="#8dd3c7" stroke="#000000" points="9275.1611,-122 9272.1611,-126 9251.1611,-126 9248.1611,-122 9156.8389,-122 9156.8389,-86 9275.1611,-86 9275.1611,-122"/>
<text text-anchor="middle" x="9216" y="-99.8" font-family="Times,serif" font-size="14.00" fill="#000000">HttpClientModule</text>
</g>
<!-- HttpClientModule&#45;&gt;AppModule -->
<g id="edge4" class="edge">
<title>HttpClientModule&#45;&gt;AppModule</title>
<path fill="none" stroke="#000000" d="M9216,-122.0109C9216,-144.4852 9216,-180 9216,-180 9216,-180 6124.761,-180 6124.761,-180"/>
<polygon fill="#000000" stroke="#000000" points="6124.761,-176.5001 6114.761,-180 6124.761,-183.5001 6124.761,-176.5001"/>
</g>
<!-- NgxRemoteConfigModule.forRoot(args) -->
<g id="node6" class="node">
<title>NgxRemoteConfigModule.forRoot(args)</title>
<polygon fill="#8dd3c7" stroke="#000000" points="9138.7807,-122 9135.7807,-126 9114.7807,-126 9111.7807,-122 8893.2193,-122 8893.2193,-86 9138.7807,-86 9138.7807,-122"/>
<text text-anchor="middle" x="9016" y="-99.8" font-family="Times,serif" font-size="14.00" fill="#000000">NgxRemoteConfigModule.forRoot(args)</text>
</g>
<!-- NgxRemoteConfigModule.forRoot(args)&#45;&gt;AppModule -->
<g id="edge5" class="edge">
<title>NgxRemoteConfigModule.forRoot(args)&#45;&gt;AppModule</title>
<path fill="none" stroke="#000000" d="M9016,-122.2921C9016,-144.2057 9016,-178 9016,-178 9016,-178 6124.8854,-178 6124.8854,-178"/>
<polygon fill="#000000" stroke="#000000" points="6124.8855,-174.5001 6114.8854,-178 6124.8854,-181.5001 6124.8855,-174.5001"/>
</g>
<!-- IonicStorageModule.forRoot() -->
<g id="node7" class="node">
<title>IonicStorageModule.forRoot()</title>
<polygon fill="#8dd3c7" stroke="#000000" points="8874.9487,-122 8871.9487,-126 8850.9487,-126 8847.9487,-122 8687.0513,-122 8687.0513,-86 8874.9487,-86 8874.9487,-122"/>
<text text-anchor="middle" x="8781" y="-99.8" font-family="Times,serif" font-size="14.00" fill="#000000">IonicStorageModule.forRoot()</text>
</g>
<!-- IonicStorageModule.forRoot()&#45;&gt;AppModule -->
<g id="edge6" class="edge">
<title>IonicStorageModule.forRoot()&#45;&gt;AppModule</title>
<path fill="none" stroke="#000000" d="M8781,-122.1686C8781,-143.498 8781,-176 8781,-176 8781,-176 6124.7222,-176 6124.7222,-176"/>
<polygon fill="#000000" stroke="#000000" points="6124.7223,-172.5001 6114.7222,-176 6124.7222,-179.5001 6124.7223,-172.5001"/>
</g>
<!-- TranslateModule.forRoot() -->
<g id="node8" class="node">
<title>TranslateModule.forRoot()</title>
<polygon fill="#8dd3c7" stroke="#000000" points="8669.0022,-122 8666.0022,-126 8645.0022,-126 8642.0022,-122 8500.9978,-122 8500.9978,-86 8669.0022,-86 8669.0022,-122"/>
<text text-anchor="middle" x="8585" y="-99.8" font-family="Times,serif" font-size="14.00" fill="#000000">TranslateModule.forRoot()</text>
</g>
<!-- TranslateModule.forRoot()&#45;&gt;AppModule -->
<g id="edge7" class="edge">
<title>TranslateModule.forRoot()&#45;&gt;AppModule</title>
<path fill="none" stroke="#000000" d="M8585,-122.0267C8585,-142.7672 8585,-174 8585,-174 8585,-174 6124.7639,-174 6124.7639,-174"/>
<polygon fill="#000000" stroke="#000000" points="6124.764,-170.5001 6114.7639,-174 6124.7639,-177.5001 6124.764,-170.5001"/>
</g>
<!-- BrowserModule.withServerTransition(args) -->
<g id="node9" class="node">
<title>BrowserModule.withServerTransition(args)</title>
<polygon fill="#8dd3c7" stroke="#000000" points="8483.0794,-122 8480.0794,-126 8459.0794,-126 8456.0794,-122 8220.9206,-122 8220.9206,-86 8483.0794,-86 8483.0794,-122"/>
<text text-anchor="middle" x="8352" y="-99.8" font-family="Times,serif" font-size="14.00" fill="#000000">BrowserModule.withServerTransition(args)</text>
</g>
<!-- BrowserModule.withServerTransition(args)&#45;&gt;AppModule -->
<g id="edge8" class="edge">
<title>BrowserModule.withServerTransition(args)&#45;&gt;AppModule</title>
<path fill="none" stroke="#000000" d="M8352,-122.2228C8352,-142.3652 8352,-172 8352,-172 8352,-172 6124.995,-172 6124.995,-172"/>
<polygon fill="#000000" stroke="#000000" points="6124.995,-168.5001 6114.995,-172 6124.9949,-175.5001 6124.995,-168.5001"/>
</g>
<!-- TransferHttpCacheModule.forRoot() -->
<g id="node10" class="node">
<title>TransferHttpCacheModule.forRoot()</title>
<polygon fill="#8dd3c7" stroke="#000000" points="8202.6959,-122 8199.6959,-126 8178.6959,-126 8175.6959,-122 7979.3041,-122 7979.3041,-86 8202.6959,-86 8202.6959,-122"/>
<text text-anchor="middle" x="8091" y="-99.8" font-family="Times,serif" font-size="14.00" fill="#000000">TransferHttpCacheModule.forRoot()</text>
</g>
<!-- TransferHttpCacheModule.forRoot()&#45;&gt;AppModule -->
<g id="edge9" class="edge">
<title>TransferHttpCacheModule.forRoot()&#45;&gt;AppModule</title>
<path fill="none" stroke="#000000" d="M8091,-122.0348C8091,-141.5762 8091,-170 8091,-170 8091,-170 6124.6856,-170 6124.6856,-170"/>
<polygon fill="#000000" stroke="#000000" points="6124.6856,-166.5001 6114.6856,-170 6124.6855,-173.5001 6124.6856,-166.5001"/>
</g>
<!-- NgxPermissionsModule.forRoot() -->
<g id="node11" class="node">
<title>NgxPermissionsModule.forRoot()</title>
<polygon fill="#8dd3c7" stroke="#000000" points="7961.6896,-122 7958.6896,-126 7937.6896,-126 7934.6896,-122 7754.3104,-122 7754.3104,-86 7961.6896,-86 7961.6896,-122"/>
<text text-anchor="middle" x="7858" y="-99.8" font-family="Times,serif" font-size="14.00" fill="#000000">NgxPermissionsModule.forRoot()</text>
</g>
<!-- NgxPermissionsModule.forRoot()&#45;&gt;AppModule -->
<g id="edge10" class="edge">
<title>NgxPermissionsModule.forRoot()&#45;&gt;AppModule</title>
<path fill="none" stroke="#000000" d="M7858,-122.1061C7858,-141.3391 7858,-169 7858,-169 7858,-169 6124.9283,-169 6124.9283,-169"/>
<polygon fill="#000000" stroke="#000000" points="6124.9283,-165.5001 6114.9283,-169 6124.9283,-172.5001 6124.9283,-165.5001"/>
</g>
<!-- IonicModule.forRoot() -->
<g id="node12" class="node">
<title>IonicModule.forRoot()</title>
<polygon fill="#8dd3c7" stroke="#000000" points="7736.1855,-122 7733.1855,-126 7712.1855,-126 7709.1855,-122 7591.8145,-122 7591.8145,-86 7736.1855,-86 7736.1855,-122"/>
<text text-anchor="middle" x="7664" y="-99.8" font-family="Times,serif" font-size="14.00" fill="#000000">IonicModule.forRoot()</text>
</g>
<!-- IonicModule.forRoot()&#45;&gt;AppModule -->
<g id="edge11" class="edge">
<title>IonicModule.forRoot()&#45;&gt;AppModule</title>
<path fill="none" stroke="#000000" d="M7664,-122.2222C7664,-140.8285 7664,-167 7664,-167 7664,-167 6124.7376,-167 6124.7376,-167"/>
<polygon fill="#000000" stroke="#000000" points="6124.7376,-163.5001 6114.7376,-167 6124.7376,-170.5001 6124.7376,-163.5001"/>
</g>
<!-- AuthModule.forRoot(args) -->
<g id="node13" class="node">
<title>AuthModule.forRoot(args)</title>
<polygon fill="#8dd3c7" stroke="#000000" points="7573.7366,-122 7570.7366,-126 7549.7366,-126 7546.7366,-122 7406.2634,-122 7406.2634,-86 7573.7366,-86 7573.7366,-122"/>
<text text-anchor="middle" x="7490" y="-99.8" font-family="Times,serif" font-size="14.00" fill="#000000">AuthModule.forRoot(args)</text>
</g>
<!-- AuthModule.forRoot(args)&#45;&gt;AppModule -->
<g id="edge12" class="edge">
<title>AuthModule.forRoot(args)&#45;&gt;AppModule</title>
<path fill="none" stroke="#000000" d="M7490,-122.302C7490,-140.2699 7490,-165 7490,-165 7490,-165 6125.0236,-165 6125.0236,-165"/>
<polygon fill="#000000" stroke="#000000" points="6125.0236,-161.5001 6115.0236,-165 6125.0235,-168.5001 6125.0236,-161.5001"/>
</g>
<!-- AccountModule.forRoot(args) -->
<g id="node14" class="node">
<title>AccountModule.forRoot(args)</title>
<polygon fill="#8dd3c7" stroke="#000000" points="7388.1659,-122 7385.1659,-126 7364.1659,-126 7361.1659,-122 7201.8341,-122 7201.8341,-86 7388.1659,-86 7388.1659,-122"/>
<text text-anchor="middle" x="7295" y="-99.8" font-family="Times,serif" font-size="14.00" fill="#000000">AccountModule.forRoot(args)</text>
</g>
<!-- AccountModule.forRoot(args)&#45;&gt;AppModule -->
<g id="edge13" class="edge">
<title>AccountModule.forRoot(args)&#45;&gt;AppModule</title>
<path fill="none" stroke="#000000" d="M7295,-122.0225C7295,-139.3734 7295,-163 7295,-163 7295,-163 6124.7105,-163 6124.7105,-163"/>
<polygon fill="#000000" stroke="#000000" points="6124.7105,-159.5001 6114.7105,-163 6124.7105,-166.5001 6124.7105,-159.5001"/>
</g>
<!-- LangModule.forRoot(args) -->
<g id="node15" class="node">
<title>LangModule.forRoot(args)</title>
<polygon fill="#8dd3c7" stroke="#000000" points="7184.0064,-122 7181.0064,-126 7160.0064,-126 7157.0064,-122 7015.9936,-122 7015.9936,-86 7184.0064,-86 7184.0064,-122"/>
<text text-anchor="middle" x="7100" y="-99.8" font-family="Times,serif" font-size="14.00" fill="#000000">LangModule.forRoot(args)</text>
</g>
<!-- LangModule.forRoot(args)&#45;&gt;AppModule -->
<g id="edge14" class="edge">
<title>LangModule.forRoot(args)&#45;&gt;AppModule</title>
<path fill="none" stroke="#000000" d="M7100,-122.0352C7100,-138.7344 7100,-161 7100,-161 7100,-161 6124.8524,-161 6124.8524,-161"/>
<polygon fill="#000000" stroke="#000000" points="6124.8524,-157.5001 6114.8524,-161 6124.8523,-164.5001 6124.8524,-157.5001"/>
</g>
<!-- RouterModule.forRoot(args) -->
<g id="node16" class="node">
<title>RouterModule.forRoot(args)</title>
<polygon fill="#8dd3c7" stroke="#000000" points="6997.8419,-122 6994.8419,-126 6973.8419,-126 6970.8419,-122 6820.1581,-122 6820.1581,-86 6997.8419,-86 6997.8419,-122"/>
<text text-anchor="middle" x="6909" y="-99.8" font-family="Times,serif" font-size="14.00" fill="#000000">RouterModule.forRoot(args)</text>
</g>
<!-- RouterModule.forRoot(args)&#45;&gt;AppModule -->
<g id="edge15" class="edge">
<title>RouterModule.forRoot(args)&#45;&gt;AppModule</title>
<path fill="none" stroke="#000000" d="M6909,-122.0091C6909,-138.0494 6909,-159 6909,-159 6909,-159 6124.7434,-159 6124.7434,-159"/>
<polygon fill="#000000" stroke="#000000" points="6124.7434,-155.5001 6114.7434,-159 6124.7434,-162.5001 6124.7434,-155.5001"/>
</g>
<!-- MetaModule.forRoot(args) -->
<g id="node17" class="node">
<title>MetaModule.forRoot(args)</title>
<polygon fill="#8dd3c7" stroke="#000000" points="6802.0036,-122 6799.0036,-126 6778.0036,-126 6775.0036,-122 6633.9964,-122 6633.9964,-86 6802.0036,-86 6802.0036,-122"/>
<text text-anchor="middle" x="6718" y="-99.8" font-family="Times,serif" font-size="14.00" fill="#000000">MetaModule.forRoot(args)</text>
</g>
<!-- MetaModule.forRoot(args)&#45;&gt;AppModule -->
<g id="edge16" class="edge">
<title>MetaModule.forRoot(args)&#45;&gt;AppModule</title>
<path fill="none" stroke="#000000" d="M6718,-122.2396C6718,-137.5706 6718,-157 6718,-157 6718,-157 6124.8233,-157 6124.8233,-157"/>
<polygon fill="#000000" stroke="#000000" points="6124.8233,-153.5001 6114.8233,-157 6124.8232,-160.5001 6124.8233,-153.5001"/>
</g>
<!-- AuthModalModule.forRoot(args) -->
<g id="node18" class="node">
<title>AuthModalModule.forRoot(args)</title>
<polygon fill="#8dd3c7" stroke="#000000" points="6615.7863,-122 6612.7863,-126 6591.7863,-126 6588.7863,-122 6412.2137,-122 6412.2137,-86 6615.7863,-86 6615.7863,-122"/>
<text text-anchor="middle" x="6514" y="-99.8" font-family="Times,serif" font-size="14.00" fill="#000000">AuthModalModule.forRoot(args)</text>
</g>
<!-- AuthModalModule.forRoot(args)&#45;&gt;AppModule -->
<g id="edge17" class="edge">
<title>AuthModalModule.forRoot(args)&#45;&gt;AppModule</title>
<path fill="none" stroke="#000000" d="M6514,-122.1243C6514,-136.7832 6514,-155 6514,-155 6514,-155 6124.8858,-155 6124.8858,-155"/>
<polygon fill="#000000" stroke="#000000" points="6124.8858,-151.5001 6114.8858,-155 6124.8858,-158.5001 6124.8858,-151.5001"/>
</g>
<!-- NgxBindIOModule.forRoot() -->
<g id="node19" class="node">
<title>NgxBindIOModule.forRoot()</title>
<polygon fill="#8dd3c7" stroke="#000000" points="6394.0204,-122 6391.0204,-126 6370.0204,-126 6367.0204,-122 6211.9796,-122 6211.9796,-86 6394.0204,-86 6394.0204,-122"/>
<text text-anchor="middle" x="6303" y="-99.8" font-family="Times,serif" font-size="14.00" fill="#000000">NgxBindIOModule.forRoot()</text>
</g>
<!-- NgxBindIOModule.forRoot()&#45;&gt;AppModule -->
<g id="edge18" class="edge">
<title>NgxBindIOModule.forRoot()&#45;&gt;AppModule</title>
<path fill="none" stroke="#000000" d="M6303,-122.2458C6303,-136.1772 6303,-153 6303,-153 6303,-153 6124.9181,-153 6124.9181,-153"/>
<polygon fill="#000000" stroke="#000000" points="6124.9181,-149.5001 6114.9181,-153 6124.9181,-156.5001 6124.9181,-149.5001"/>
</g>
<!-- UsersListFiltersModalModule.forRoot() -->
<g id="node20" class="node">
<title>UsersListFiltersModalModule.forRoot()</title>
<polygon fill="#8dd3c7" stroke="#000000" points="6193.8928,-122 6190.8928,-126 6169.8928,-126 6166.8928,-122 5952.1072,-122 5952.1072,-86 6193.8928,-86 6193.8928,-122"/>
<text text-anchor="middle" x="6073" y="-99.8" font-family="Times,serif" font-size="14.00" fill="#000000">UsersListFiltersModalModule.forRoot()</text>
</g>
<!-- UsersListFiltersModalModule.forRoot()&#45;&gt;AppModule -->
<g id="edge19" class="edge">
<title>UsersListFiltersModalModule.forRoot()&#45;&gt;AppModule</title>
<path fill="none" stroke="#000000" d="M6073,-122.1061C6073,-122.1061 6073,-140.991 6073,-140.991"/>
<polygon fill="#000000" stroke="#000000" points="6069.5001,-140.9909 6073,-150.991 6076.5001,-140.991 6069.5001,-140.9909"/>
</g>
<!-- GroupsListFiltersModalModule.forRoot() -->
<g id="node21" class="node">
<title>GroupsListFiltersModalModule.forRoot()</title>
<polygon fill="#8dd3c7" stroke="#000000" points="5933.7337,-122 5930.7337,-126 5909.7337,-126 5906.7337,-122 5682.2663,-122 5682.2663,-86 5933.7337,-86 5933.7337,-122"/>
<text text-anchor="middle" x="5808" y="-99.8" font-family="Times,serif" font-size="14.00" fill="#000000">GroupsListFiltersModalModule.forRoot()</text>
</g>
<!-- GroupsListFiltersModalModule.forRoot()&#45;&gt;AppModule -->
<g id="edge20" class="edge">
<title>GroupsListFiltersModalModule.forRoot()&#45;&gt;AppModule</title>
<path fill="none" stroke="#000000" d="M5808,-122.2458C5808,-136.1772 5808,-153 5808,-153 5808,-153 6021.3022,-153 6021.3022,-153"/>
<polygon fill="#000000" stroke="#000000" points="6021.3023,-156.5001 6031.3022,-153 6021.3022,-149.5001 6021.3023,-156.5001"/>
</g>
<!-- TasksListFiltersModalModule.forRoot() -->
<g id="node22" class="node">
<title>TasksListFiltersModalModule.forRoot()</title>
<polygon fill="#8dd3c7" stroke="#000000" points="5664.1784,-122 5661.1784,-126 5640.1784,-126 5637.1784,-122 5421.8216,-122 5421.8216,-86 5664.1784,-86 5664.1784,-122"/>
<text text-anchor="middle" x="5543" y="-99.8" font-family="Times,serif" font-size="14.00" fill="#000000">TasksListFiltersModalModule.forRoot()</text>
</g>
<!-- TasksListFiltersModalModule.forRoot()&#45;&gt;AppModule -->
<g id="edge21" class="edge">
<title>TasksListFiltersModalModule.forRoot()&#45;&gt;AppModule</title>
<path fill="none" stroke="#000000" d="M5543,-122.1243C5543,-136.7832 5543,-155 5543,-155 5543,-155 6020.9688,-155 6020.9688,-155"/>
<polygon fill="#000000" stroke="#000000" points="6020.9688,-158.5001 6030.9688,-155 6020.9687,-151.5001 6020.9688,-158.5001"/>
</g>
<!-- ProjectsListFiltersModalModule.forRoot(args) -->
<g id="node23" class="node">
<title>ProjectsListFiltersModalModule.forRoot(args)</title>
<polygon fill="#8dd3c7" stroke="#000000" points="5403.4401,-122 5400.4401,-126 5379.4401,-126 5376.4401,-122 5124.5599,-122 5124.5599,-86 5403.4401,-86 5403.4401,-122"/>
<text text-anchor="middle" x="5264" y="-99.8" font-family="Times,serif" font-size="14.00" fill="#000000">ProjectsListFiltersModalModule.forRoot(args)</text>
</g>
<!-- ProjectsListFiltersModalModule.forRoot(args)&#45;&gt;AppModule -->
<g id="edge22" class="edge">
<title>ProjectsListFiltersModalModule.forRoot(args)&#45;&gt;AppModule</title>
<path fill="none" stroke="#000000" d="M5264,-122.2396C5264,-137.5706 5264,-157 5264,-157 5264,-157 6021.2082,-157 6021.2082,-157"/>
<polygon fill="#000000" stroke="#000000" points="6021.2082,-160.5001 6031.2082,-157 6021.2082,-153.5001 6021.2082,-160.5001"/>
</g>
<!-- RuckenCoreModule -->
<g id="node24" class="node">
<title>RuckenCoreModule</title>
<polygon fill="#8dd3c7" stroke="#000000" points="5106.5283,-122 5103.5283,-126 5082.5283,-126 5079.5283,-122 4977.4717,-122 4977.4717,-86 5106.5283,-86 5106.5283,-122"/>
<text text-anchor="middle" x="5042" y="-99.8" font-family="Times,serif" font-size="14.00" fill="#000000">RuckenCoreModule</text>
</g>
<!-- RuckenCoreModule&#45;&gt;AppModule -->
<g id="edge23" class="edge">
<title>RuckenCoreModule&#45;&gt;AppModule</title>
<path fill="none" stroke="#000000" d="M5042,-122.0091C5042,-138.0494 5042,-159 5042,-159 5042,-159 6021.3066,-159 6021.3066,-159"/>
<polygon fill="#000000" stroke="#000000" points="6021.3067,-162.5001 6031.3066,-159 6021.3066,-155.5001 6021.3067,-162.5001"/>
</g>
<!-- RuckenIonicModule -->
<g id="node25" class="node">
<title>RuckenIonicModule</title>
<polygon fill="#8dd3c7" stroke="#000000" points="4959.5814,-122 4956.5814,-126 4935.5814,-126 4932.5814,-122 4828.4186,-122 4828.4186,-86 4959.5814,-86 4959.5814,-122"/>
<text text-anchor="middle" x="4894" y="-99.8" font-family="Times,serif" font-size="14.00" fill="#000000">RuckenIonicModule</text>
</g>
<!-- RuckenIonicModule&#45;&gt;AppModule -->
<g id="edge24" class="edge">
<title>RuckenIonicModule&#45;&gt;AppModule</title>
<path fill="none" stroke="#000000" d="M4894,-122.0352C4894,-138.7344 4894,-161 4894,-161 4894,-161 6021.0388,-161 6021.0388,-161"/>
<polygon fill="#000000" stroke="#000000" points="6021.0388,-164.5001 6031.0388,-161 6021.0387,-157.5001 6021.0388,-164.5001"/>
</g>
<!-- RuckenTodoCoreModule -->
<g id="node26" class="node">
<title>RuckenTodoCoreModule</title>
<polygon fill="#8dd3c7" stroke="#000000" points="4810.58,-122 4807.58,-126 4786.58,-126 4783.58,-122 4651.42,-122 4651.42,-86 4810.58,-86 4810.58,-122"/>
<text text-anchor="middle" x="4731" y="-99.8" font-family="Times,serif" font-size="14.00" fill="#000000">RuckenTodoCoreModule</text>
</g>
<!-- RuckenTodoCoreModule&#45;&gt;AppModule -->
<g id="edge25" class="edge">
<title>RuckenTodoCoreModule&#45;&gt;AppModule</title>
<path fill="none" stroke="#000000" d="M4731,-122.0225C4731,-139.3734 4731,-163 4731,-163 4731,-163 6020.9933,-163 6020.9933,-163"/>
<polygon fill="#000000" stroke="#000000" points="6020.9934,-166.5001 6030.9933,-163 6020.9933,-159.5001 6020.9934,-166.5001"/>
</g>
<!-- RuckenTodoIonicModule -->
<g id="node27" class="node">
<title>RuckenTodoIonicModule</title>
<polygon fill="#8dd3c7" stroke="#000000" points="4633.1344,-122 4630.1344,-126 4609.1344,-126 4606.1344,-122 4472.8656,-122 4472.8656,-86 4633.1344,-86 4633.1344,-122"/>
<text text-anchor="middle" x="4553" y="-99.8" font-family="Times,serif" font-size="14.00" fill="#000000">RuckenTodoIonicModule</text>
</g>
<!-- RuckenTodoIonicModule&#45;&gt;AppModule -->
<g id="edge26" class="edge">
<title>RuckenTodoIonicModule&#45;&gt;AppModule</title>
<path fill="none" stroke="#000000" d="M4553,-122.302C4553,-140.2699 4553,-165 4553,-165 4553,-165 6021.1586,-165 6021.1586,-165"/>
<polygon fill="#000000" stroke="#000000" points="6021.1586,-168.5001 6031.1586,-165 6021.1586,-161.5001 6021.1586,-168.5001"/>
</g>
<!-- HTTP -->
<g id="node29" class="node">
<title>HTTP</title>
<ellipse fill="#fdb462" stroke="#000000" cx="4414" cy="-104" rx="35.3509" ry="18"/>
<text text-anchor="middle" x="4414" y="-99.8" font-family="Times,serif" font-size="14.00" fill="#000000">HTTP</text>
</g>
<!-- HTTP&#45;&gt;AppModule -->
<g id="edge28" class="edge">
<title>HTTP&#45;&gt;AppModule</title>
<path fill="none" stroke="#000000" d="M4414,-122.2222C4414,-140.8285 4414,-167 4414,-167 4414,-167 6021.1611,-167 6021.1611,-167"/>
<polygon fill="#000000" stroke="#000000" points="6021.1611,-170.5001 6031.1611,-167 6021.161,-163.5001 6021.1611,-170.5001"/>
</g>
<!-- { provide: NgxRemoteConfigService, useClass: NgxRemoteConfigIonicService } -->
<g id="node30" class="node">
<title>{ provide: NgxRemoteConfigService, useClass: NgxRemoteConfigIonicService }</title>
<ellipse fill="#fdb462" stroke="#000000" cx="4033" cy="-104" rx="328.3663" ry="18"/>
<text text-anchor="middle" x="4033" y="-99.8" font-family="Times,serif" font-size="14.00" fill="#000000">{ provide: NgxRemoteConfigService, useClass: NgxRemoteConfigIonicService }</text>
</g>
<!-- { provide: NgxRemoteConfigService, useClass: NgxRemoteConfigIonicService }&#45;&gt;AppModule -->
<g id="edge29" class="edge">
<title>{ provide: NgxRemoteConfigService, useClass: NgxRemoteConfigIonicService }&#45;&gt;AppModule</title>
<path fill="none" stroke="#000000" d="M4033,-122.1061C4033,-141.3391 4033,-169 4033,-169 4033,-169 6021.3258,-169 6021.3258,-169"/>
<polygon fill="#000000" stroke="#000000" points="6021.3258,-172.5001 6031.3258,-169 6021.3258,-165.5001 6021.3258,-172.5001"/>
</g>
<!-- { provide: CONTENT_TYPES_CONFIG_TOKEN, useValue: &#160;} -->
<g id="node31" class="node">
<title>{ provide: CONTENT_TYPES_CONFIG_TOKEN, useValue: &#160;}</title>
<ellipse fill="#fdb462" stroke="#000000" cx="3424" cy="-104" rx="263.0597" ry="18"/>
<text text-anchor="middle" x="3424" y="-99.8" font-family="Times,serif" font-size="14.00" fill="#000000">{ provide: CONTENT_TYPES_CONFIG_TOKEN, useValue: &#160;}</text>
</g>
<!-- { provide: CONTENT_TYPES_CONFIG_TOKEN, useValue: &#160;}&#45;&gt;AppModule -->
<g id="edge30" class="edge">
<title>{ provide: CONTENT_TYPES_CONFIG_TOKEN, useValue: &#160;}&#45;&gt;AppModule</title>
<path fill="none" stroke="#000000" d="M3424,-122.0348C3424,-141.5762 3424,-170 3424,-170 3424,-170 6021.1235,-170 6021.1235,-170"/>
<polygon fill="#000000" stroke="#000000" points="6021.1235,-173.5001 6031.1235,-170 6021.1235,-166.5001 6021.1235,-173.5001"/>
</g>
<!-- { provide: PERMISSIONS_CONFIG_TOKEN, useValue: &#160;} -->
<g id="node32" class="node">
<title>{ provide: PERMISSIONS_CONFIG_TOKEN, useValue: &#160;}</title>
<ellipse fill="#fdb462" stroke="#000000" cx="2896" cy="-104" rx="246.8224" ry="18"/>
<text text-anchor="middle" x="2896" y="-99.8" font-family="Times,serif" font-size="14.00" fill="#000000">{ provide: PERMISSIONS_CONFIG_TOKEN, useValue: &#160;}</text>
</g>
<!-- { provide: PERMISSIONS_CONFIG_TOKEN, useValue: &#160;}&#45;&gt;AppModule -->
<g id="edge31" class="edge">
<title>{ provide: PERMISSIONS_CONFIG_TOKEN, useValue: &#160;}&#45;&gt;AppModule</title>
<path fill="none" stroke="#000000" d="M2896,-122.2228C2896,-142.3652 2896,-172 2896,-172 2896,-172 6021.0821,-172 6021.0821,-172"/>
<polygon fill="#000000" stroke="#000000" points="6021.0822,-175.5001 6031.0821,-172 6021.0821,-168.5001 6021.0822,-175.5001"/>
</g>
<!-- { provide: USERS_CONFIG_TOKEN, useValue: &#160;} -->
<g id="node33" class="node">
<title>{ provide: USERS_CONFIG_TOKEN, useValue: &#160;}</title>
<ellipse fill="#fdb462" stroke="#000000" cx="2417" cy="-104" rx="213.8791" ry="18"/>
<text text-anchor="middle" x="2417" y="-99.8" font-family="Times,serif" font-size="14.00" fill="#000000">{ provide: USERS_CONFIG_TOKEN, useValue: &#160;}</text>
</g>
<!-- { provide: USERS_CONFIG_TOKEN, useValue: &#160;}&#45;&gt;AppModule -->
<g id="edge32" class="edge">
<title>{ provide: USERS_CONFIG_TOKEN, useValue: &#160;}&#45;&gt;AppModule</title>
<path fill="none" stroke="#000000" d="M2417,-122.0267C2417,-142.7672 2417,-174 2417,-174 2417,-174 6021.3115,-174 6021.3115,-174"/>
<polygon fill="#000000" stroke="#000000" points="6021.3116,-177.5001 6031.3115,-174 6021.3115,-170.5001 6021.3116,-177.5001"/>
</g>
<!-- { provide: GROUPS_CONFIG_TOKEN, useValue: &#160;} -->
<g id="node34" class="node">
<title>{ provide: GROUPS_CONFIG_TOKEN, useValue: &#160;}</title>
<ellipse fill="#fdb462" stroke="#000000" cx="1963" cy="-104" rx="221.9656" ry="18"/>
<text text-anchor="middle" x="1963" y="-99.8" font-family="Times,serif" font-size="14.00" fill="#000000">{ provide: GROUPS_CONFIG_TOKEN, useValue: &#160;}</text>
</g>
<!-- { provide: GROUPS_CONFIG_TOKEN, useValue: &#160;}&#45;&gt;AppModule -->
<g id="edge33" class="edge">
<title>{ provide: GROUPS_CONFIG_TOKEN, useValue: &#160;}&#45;&gt;AppModule</title>
<path fill="none" stroke="#000000" d="M1963,-122.1686C1963,-143.498 1963,-176 1963,-176 1963,-176 6021.3198,-176 6021.3198,-176"/>
<polygon fill="#000000" stroke="#000000" points="6021.3198,-179.5001 6031.3198,-176 6021.3197,-172.5001 6021.3198,-179.5001"/>
</g>
<!-- { provide: PROJECTS_CONFIG_TOKEN, useValue: &#160;} -->
<g id="node35" class="node">
<title>{ provide: PROJECTS_CONFIG_TOKEN, useValue: &#160;}</title>
<ellipse fill="#fdb462" stroke="#000000" cx="1493" cy="-104" rx="230.0695" ry="18"/>
<text text-anchor="middle" x="1493" y="-99.8" font-family="Times,serif" font-size="14.00" fill="#000000">{ provide: PROJECTS_CONFIG_TOKEN, useValue: &#160;}</text>
</g>
<!-- { provide: PROJECTS_CONFIG_TOKEN, useValue: &#160;}&#45;&gt;AppModule -->
<g id="edge34" class="edge">
<title>{ provide: PROJECTS_CONFIG_TOKEN, useValue: &#160;}&#45;&gt;AppModule</title>
<path fill="none" stroke="#000000" d="M1493,-122.2921C1493,-144.2057 1493,-178 1493,-178 1493,-178 6021.2984,-178 6021.2984,-178"/>
<polygon fill="#000000" stroke="#000000" points="6021.2984,-181.5001 6031.2984,-178 6021.2984,-174.5001 6021.2984,-181.5001"/>
</g>
<!-- { provide: TASKS_CONFIG_TOKEN, useValue: &#160;} -->
<g id="node36" class="node">
<title>{ provide: TASKS_CONFIG_TOKEN, useValue: &#160;}</title>
<ellipse fill="#fdb462" stroke="#000000" cx="1030" cy="-104" rx="214.4413" ry="18"/>
<text text-anchor="middle" x="1030" y="-99.8" font-family="Times,serif" font-size="14.00" fill="#000000">{ provide: TASKS_CONFIG_TOKEN, useValue: &#160;}</text>
</g>
<!-- { provide: TASKS_CONFIG_TOKEN, useValue: &#160;}&#45;&gt;AppModule -->
<g id="edge35" class="edge">
<title>{ provide: TASKS_CONFIG_TOKEN, useValue: &#160;}&#45;&gt;AppModule</title>
<path fill="none" stroke="#000000" d="M1030,-122.0109C1030,-144.4852 1030,-180 1030,-180 1030,-180 6021.2924,-180 6021.2924,-180"/>
<polygon fill="#000000" stroke="#000000" points="6021.2924,-183.5001 6031.2924,-180 6021.2923,-176.5001 6021.2924,-183.5001"/>
</g>
<!-- StatusBar -->
<g id="node37" class="node">
<title>StatusBar</title>
<ellipse fill="#fdb462" stroke="#000000" cx="749" cy="-104" rx="48.6694" ry="18"/>
<text text-anchor="middle" x="749" y="-99.8" font-family="Times,serif" font-size="14.00" fill="#000000">StatusBar</text>
</g>
<!-- StatusBar&#45;&gt;AppModule -->
<g id="edge36" class="edge">
<title>StatusBar&#45;&gt;AppModule</title>
<path fill="none" stroke="#000000" d="M749,-122.0908C749,-145.1328 749,-182 749,-182 749,-182 6021.3058,-182 6021.3058,-182"/>
<polygon fill="#000000" stroke="#000000" points="6021.3059,-185.5001 6031.3058,-182 6021.3058,-178.5001 6021.3059,-185.5001"/>
</g>
<!-- SplashScreen -->
<g id="node38" class="node">
<title>SplashScreen</title>
<ellipse fill="#fdb462" stroke="#000000" cx="619" cy="-104" rx="63.1189" ry="18"/>
<text text-anchor="middle" x="619" y="-99.8" font-family="Times,serif" font-size="14.00" fill="#000000">SplashScreen</text>
</g>
<!-- SplashScreen&#45;&gt;AppModule -->
<g id="edge37" class="edge">
<title>SplashScreen&#45;&gt;AppModule</title>
<path fill="none" stroke="#000000" d="M619,-122.1532C619,-145.7566 619,-184 619,-184 619,-184 6021.072,-184 6021.072,-184"/>
<polygon fill="#000000" stroke="#000000" points="6021.072,-187.5001 6031.072,-184 6021.0719,-180.5001 6021.072,-187.5001"/>
</g>
<!-- { provide: RouteReuseStrategy, useClass: IonicRouteStrategy } -->
<g id="node39" class="node">
<title>{ provide: RouteReuseStrategy, useClass: IonicRouteStrategy }</title>
<ellipse fill="#fdb462" stroke="#000000" cx="281" cy="-104" rx="257.2723" ry="18"/>
<text text-anchor="middle" x="281" y="-99.8" font-family="Times,serif" font-size="14.00" fill="#000000">{ provide: RouteReuseStrategy, useClass: IonicRouteStrategy }</text>
</g>
<!-- { provide: RouteReuseStrategy, useClass: IonicRouteStrategy }&#45;&gt;AppModule -->
<g id="edge38" class="edge">
<title>{ provide: RouteReuseStrategy, useClass: IonicRouteStrategy }&#45;&gt;AppModule</title>
<path fill="none" stroke="#000000" d="M281,-122.1985C281,-146.3563 281,-186 281,-186 281,-186 6021.3298,-186 6021.3298,-186"/>
<polygon fill="#000000" stroke="#000000" points="6021.3298,-189.5001 6031.3298,-186 6021.3298,-182.5001 6021.3298,-189.5001"/>
</g>
</g>
</svg>
