<?xml version="1.0" encoding="UTF-8" standalone="no"?>
<!DOCTYPE svg PUBLIC "-//W3C//DTD SVG 1.1//EN"
 "http://www.w3.org/Graphics/SVG/1.1/DTD/svg11.dtd">
<!-- Generated by graphviz version 2.40.1 (20161225.0304)
 -->
<!-- Title: dependencies Pages: 1 -->
<svg width="11387pt" height="284pt"
 viewBox="0.00 0.00 11387.00 284.00" xmlns="http://www.w3.org/2000/svg" xmlns:xlink="http://www.w3.org/1999/xlink">
<g id="graph0" class="graph" transform="scale(1 1) rotate(0) translate(4 280)">
<title>dependencies</title>
<polygon fill="#ffffff" stroke="transparent" points="-4,4 -4,-280 11383,-280 11383,4 -4,4"/>
<text text-anchor="start" x="5668.5091" y="-42.4" font-family="sans-serif" font-weight="bold" font-size="14.00" fill="#000000">Legend</text>
<polygon fill="#ffffb3" stroke="transparent" points="5455.5,-10 5455.5,-30 5475.5,-30 5475.5,-10 5455.5,-10"/>
<text text-anchor="start" x="5479.129" y="-15.4" font-family="sans-serif" font-size="14.00" fill="#000000"> &#160;Declarations</text>
<polygon fill="#8dd3c7" stroke="transparent" points="5568.5,-10 5568.5,-30 5588.5,-30 5588.5,-10 5568.5,-10"/>
<text text-anchor="start" x="5592.2251" y="-15.4" font-family="sans-serif" font-size="14.00" fill="#000000"> &#160;Module</text>
<polygon fill="#80b1d3" stroke="transparent" points="5654.5,-10 5654.5,-30 5674.5,-30 5674.5,-10 5654.5,-10"/>
<text text-anchor="start" x="5678.2812" y="-15.4" font-family="sans-serif" font-size="14.00" fill="#000000"> &#160;Bootstrap</text>
<polygon fill="#fdb462" stroke="transparent" points="5751.5,-10 5751.5,-30 5771.5,-30 5771.5,-10 5751.5,-10"/>
<text text-anchor="start" x="5775.1732" y="-15.4" font-family="sans-serif" font-size="14.00" fill="#000000"> &#160;Providers</text>
<polygon fill="#fb8072" stroke="transparent" points="5847.5,-10 5847.5,-30 5867.5,-30 5867.5,-10 5847.5,-10"/>
<text text-anchor="start" x="5871.2258" y="-15.4" font-family="sans-serif" font-size="14.00" fill="#000000"> &#160;Exports</text>
<g id="clust1" class="cluster">
<title>cluster_AppModule</title>
<polygon fill="none" stroke="#000000" stroke-dasharray="1,5" points="8,-70 8,-268 11371,-268 11371,-70 8,-70"/>
</g>
<g id="clust2" class="cluster">
<title>cluster_AppModule_declarations</title>
<polygon fill="none" stroke="#000000" points="11241,-78 11241,-130 11363,-130 11363,-78 11241,-78"/>
</g>
<g id="clust4" class="cluster">
<title>cluster_AppModule_imports</title>
<polygon fill="none" stroke="#000000" points="6492,-78 6492,-130 11233,-130 11233,-78 6492,-78"/>
</g>
<g id="clust6" class="cluster">
<title>cluster_AppModule_bootstrap</title>
<polygon fill="none" stroke="#000000" points="7688,-208 7688,-260 7812,-260 7812,-208 7688,-208"/>
</g>
<g id="clust7" class="cluster">
<title>cluster_AppModule_providers</title>
<polygon fill="none" stroke="#000000" points="16,-78 16,-130 6484,-130 6484,-78 16,-78"/>
</g>
<!-- AppComponent -->
<g id="node1" class="node">
<title>AppComponent</title>
<polygon fill="#ffffb3" stroke="#000000" points="11354.9399,-122 11249.0601,-122 11249.0601,-86 11354.9399,-86 11354.9399,-122"/>
<text text-anchor="middle" x="11302" y="-99.8" font-family="Times,serif" font-size="14.00" fill="#000000">AppComponent</text>
</g>
<!-- AppModule -->
<g id="node2" class="node">
<title>AppModule</title>
<polygon fill="#8dd3c7" stroke="#000000" points="7791.6571,-187 7788.6571,-191 7767.6571,-191 7764.6571,-187 7708.3429,-187 7708.3429,-151 7791.6571,-151 7791.6571,-187"/>
<text text-anchor="middle" x="7750" y="-164.8" font-family="Times,serif" font-size="14.00" fill="#000000">AppModule</text>
</g>
<!-- AppComponent&#45;&gt;AppModule -->
<g id="edge1" class="edge">
<title>AppComponent&#45;&gt;AppModule</title>
<path fill="none" stroke="#000000" d="M11302,-122.1985C11302,-146.3563 11302,-186 11302,-186 11302,-186 7801.7398,-186 7801.7398,-186"/>
<polygon fill="#000000" stroke="#000000" points="7801.7399,-182.5001 7791.7398,-186 7801.7398,-189.5001 7801.7399,-182.5001"/>
</g>
<!-- AppComponent  -->
<g id="node27" class="node">
<title>AppComponent </title>
<polygon fill="#80b1d3" stroke="#000000" points="7804.439,-252 7695.561,-252 7695.561,-216 7804.439,-216 7804.439,-252"/>
<text text-anchor="middle" x="7750" y="-229.8" font-family="Times,serif" font-size="14.00" fill="#000000">AppComponent </text>
</g>
<!-- AppModule&#45;&gt;AppComponent  -->
<g id="edge26" class="edge">
<title>AppModule&#45;&gt;AppComponent </title>
<path fill="none" stroke="#000000" stroke-dasharray="1,5" d="M7750,-187.1061C7750,-187.1061 7750,-205.991 7750,-205.991"/>
<polygon fill="#000000" stroke="#000000" points="7746.5001,-205.9909 7750,-215.991 7753.5001,-205.991 7746.5001,-205.9909"/>
</g>
<!-- CommonModule -->
<g id="node3" class="node">
<title>CommonModule</title>
<polygon fill="#8dd3c7" stroke="#000000" points="11224.6681,-122 11221.6681,-126 11200.6681,-126 11197.6681,-122 11113.3319,-122 11113.3319,-86 11224.6681,-86 11224.6681,-122"/>
<text text-anchor="middle" x="11169" y="-99.8" font-family="Times,serif" font-size="14.00" fill="#000000">CommonModule</text>
</g>
<!-- CommonModule&#45;&gt;AppModule -->
<g id="edge2" class="edge">
<title>CommonModule&#45;&gt;AppModule</title>
<path fill="none" stroke="#000000" d="M11169,-122.1532C11169,-145.7566 11169,-184 11169,-184 11169,-184 7801.6896,-184 7801.6896,-184"/>
<polygon fill="#000000" stroke="#000000" points="7801.6896,-180.5001 7791.6896,-184 7801.6895,-187.5001 7801.6896,-180.5001"/>
</g>
<!-- PipesModule -->
<g id="node4" class="node">
<title>PipesModule</title>
<polygon fill="#8dd3c7" stroke="#000000" points="11094.8823,-122 11091.8823,-126 11070.8823,-126 11067.8823,-122 11005.1177,-122 11005.1177,-86 11094.8823,-86 11094.8823,-122"/>
<text text-anchor="middle" x="11050" y="-99.8" font-family="Times,serif" font-size="14.00" fill="#000000">PipesModule</text>
</g>
<!-- PipesModule&#45;&gt;AppModule -->
<g id="edge3" class="edge">
<title>PipesModule&#45;&gt;AppModule</title>
<path fill="none" stroke="#000000" d="M11050,-122.0908C11050,-145.1328 11050,-182 11050,-182 11050,-182 7801.7242,-182 7801.7242,-182"/>
<polygon fill="#000000" stroke="#000000" points="7801.7242,-178.5001 7791.7242,-182 7801.7242,-185.5001 7801.7242,-178.5001"/>
</g>
<!-- HttpClientModule -->
<g id="node5" class="node">
<title>HttpClientModule</title>
<polygon fill="#8dd3c7" stroke="#000000" points="10987.1611,-122 10984.1611,-126 10963.1611,-126 10960.1611,-122 10868.8389,-122 10868.8389,-86 10987.1611,-86 10987.1611,-122"/>
<text text-anchor="middle" x="10928" y="-99.8" font-family="Times,serif" font-size="14.00" fill="#000000">HttpClientModule</text>
</g>
<!-- HttpClientModule&#45;&gt;AppModule -->
<g id="edge4" class="edge">
<title>HttpClientModule&#45;&gt;AppModule</title>
<path fill="none" stroke="#000000" d="M10928,-122.2479C10928,-145.0179 10928,-181 10928,-181 10928,-181 7801.931,-181 7801.931,-181"/>
<polygon fill="#000000" stroke="#000000" points="7801.9311,-177.5001 7791.931,-181 7801.931,-184.5001 7801.9311,-177.5001"/>
</g>
<!-- NgxRepositoryModule -->
<g id="node6" class="node">
<title>NgxRepositoryModule</title>
<polygon fill="#8dd3c7" stroke="#000000" points="10850.594,-122 10847.594,-126 10826.594,-126 10823.594,-122 10705.406,-122 10705.406,-86 10850.594,-86 10850.594,-122"/>
<text text-anchor="middle" x="10778" y="-99.8" font-family="Times,serif" font-size="14.00" fill="#000000">NgxRepositoryModule</text>
</g>
<!-- NgxRepositoryModule&#45;&gt;AppModule -->
<g id="edge5" class="edge">
<title>NgxRepositoryModule&#45;&gt;AppModule</title>
<path fill="none" stroke="#000000" d="M10778,-122.1554C10778,-144.3519 10778,-179 10778,-179 10778,-179 7801.9391,-179 7801.9391,-179"/>
<polygon fill="#000000" stroke="#000000" points="7801.9391,-175.5001 7791.9391,-179 7801.9391,-182.5001 7801.9391,-175.5001"/>
</g>
<!-- IonicStorageModule.forRoot() -->
<g id="node7" class="node">
<title>IonicStorageModule.forRoot()</title>
<polygon fill="#8dd3c7" stroke="#000000" points="10687.9487,-122 10684.9487,-126 10663.9487,-126 10660.9487,-122 10500.0513,-122 10500.0513,-86 10687.9487,-86 10687.9487,-122"/>
<text text-anchor="middle" x="10594" y="-99.8" font-family="Times,serif" font-size="14.00" fill="#000000">IonicStorageModule.forRoot()</text>
</g>
<!-- IonicStorageModule.forRoot()&#45;&gt;AppModule -->
<g id="edge6" class="edge">
<title>IonicStorageModule.forRoot()&#45;&gt;AppModule</title>
<path fill="none" stroke="#000000" d="M10594,-122.0449C10594,-143.6623 10594,-177 10594,-177 10594,-177 7801.8534,-177 7801.8534,-177"/>
<polygon fill="#000000" stroke="#000000" points="7801.8534,-173.5001 7791.8534,-177 7801.8533,-180.5001 7801.8534,-173.5001"/>
</g>
<!-- TranslateModule.forRoot() -->
<g id="node8" class="node">
<title>TranslateModule.forRoot()</title>
<polygon fill="#8dd3c7" stroke="#000000" points="10482.0022,-122 10479.0022,-126 10458.0022,-126 10455.0022,-122 10313.9978,-122 10313.9978,-86 10482.0022,-86 10482.0022,-122"/>
<text text-anchor="middle" x="10398" y="-99.8" font-family="Times,serif" font-size="14.00" fill="#000000">TranslateModule.forRoot()</text>
</g>
<!-- TranslateModule.forRoot()&#45;&gt;AppModule -->
<g id="edge7" class="edge">
<title>TranslateModule.forRoot()&#45;&gt;AppModule</title>
<path fill="none" stroke="#000000" d="M10398,-122.2843C10398,-143.3211 10398,-175 10398,-175 10398,-175 7801.8607,-175 7801.8607,-175"/>
<polygon fill="#000000" stroke="#000000" points="7801.8607,-171.5001 7791.8607,-175 7801.8606,-178.5001 7801.8607,-171.5001"/>
</g>
<!-- BrowserModule.withServerTransition(args) -->
<g id="node9" class="node">
<title>BrowserModule.withServerTransition(args)</title>
<polygon fill="#8dd3c7" stroke="#000000" points="10296.0794,-122 10293.0794,-126 10272.0794,-126 10269.0794,-122 10033.9206,-122 10033.9206,-86 10296.0794,-86 10296.0794,-122"/>
<text text-anchor="middle" x="10165" y="-99.8" font-family="Times,serif" font-size="14.00" fill="#000000">BrowserModule.withServerTransition(args)</text>
</g>
<!-- BrowserModule.withServerTransition(args)&#45;&gt;AppModule -->
<g id="edge8" class="edge">
<title>BrowserModule.withServerTransition(args)&#45;&gt;AppModule</title>
<path fill="none" stroke="#000000" d="M10165,-122.0267C10165,-142.7672 10165,-174 10165,-174 10165,-174 7801.6624,-174 7801.6624,-174"/>
<polygon fill="#000000" stroke="#000000" points="7801.6625,-170.5001 7791.6624,-174 7801.6624,-177.5001 7801.6625,-170.5001"/>
</g>
<!-- TransferHttpCacheModule.forRoot() -->
<g id="node10" class="node">
<title>TransferHttpCacheModule.forRoot()</title>
<polygon fill="#8dd3c7" stroke="#000000" points="10015.6959,-122 10012.6959,-126 9991.6959,-126 9988.6959,-122 9792.3041,-122 9792.3041,-86 10015.6959,-86 10015.6959,-122"/>
<text text-anchor="middle" x="9904" y="-99.8" font-family="Times,serif" font-size="14.00" fill="#000000">TransferHttpCacheModule.forRoot()</text>
</g>
<!-- TransferHttpCacheModule.forRoot()&#45;&gt;AppModule -->
<g id="edge9" class="edge">
<title>TransferHttpCacheModule.forRoot()&#45;&gt;AppModule</title>
<path fill="none" stroke="#000000" d="M9904,-122.2228C9904,-142.3652 9904,-172 9904,-172 9904,-172 7802.0611,-172 7802.0611,-172"/>
<polygon fill="#000000" stroke="#000000" points="7802.0612,-168.5001 7792.0611,-172 7802.0611,-175.5001 7802.0612,-168.5001"/>
</g>
<!-- NgxPermissionsModule.forRoot() -->
<g id="node11" class="node">
<title>NgxPermissionsModule.forRoot()</title>
<polygon fill="#8dd3c7" stroke="#000000" points="9774.6896,-122 9771.6896,-126 9750.6896,-126 9747.6896,-122 9567.3104,-122 9567.3104,-86 9774.6896,-86 9774.6896,-122"/>
<text text-anchor="middle" x="9671" y="-99.8" font-family="Times,serif" font-size="14.00" fill="#000000">NgxPermissionsModule.forRoot()</text>
</g>
<!-- NgxPermissionsModule.forRoot()&#45;&gt;AppModule -->
<g id="edge10" class="edge">
<title>NgxPermissionsModule.forRoot()&#45;&gt;AppModule</title>
<path fill="none" stroke="#000000" d="M9671,-122.0348C9671,-141.5762 9671,-170 9671,-170 9671,-170 7801.9093,-170 7801.9093,-170"/>
<polygon fill="#000000" stroke="#000000" points="7801.9094,-166.5001 7791.9093,-170 7801.9093,-173.5001 7801.9094,-166.5001"/>
</g>
<!-- IonicModule.forRoot() -->
<g id="node12" class="node">
<title>IonicModule.forRoot()</title>
<polygon fill="#8dd3c7" stroke="#000000" points="9549.1855,-122 9546.1855,-126 9525.1855,-126 9522.1855,-122 9404.8145,-122 9404.8145,-86 9549.1855,-86 9549.1855,-122"/>
<text text-anchor="middle" x="9477" y="-99.8" font-family="Times,serif" font-size="14.00" fill="#000000">IonicModule.forRoot()</text>
</g>
<!-- IonicModule.forRoot()&#45;&gt;AppModule -->
<g id="edge11" class="edge">
<title>IonicModule.forRoot()&#45;&gt;AppModule</title>
<path fill="none" stroke="#000000" d="M9477,-122.1061C9477,-141.3391 9477,-169 9477,-169 9477,-169 7801.8344,-169 7801.8344,-169"/>
<polygon fill="#000000" stroke="#000000" points="7801.8344,-165.5001 7791.8344,-169 7801.8344,-172.5001 7801.8344,-165.5001"/>
</g>
<!-- AuthModule.forRoot(args) -->
<g id="node13" class="node">
<title>AuthModule.forRoot(args)</title>
<polygon fill="#8dd3c7" stroke="#000000" points="9386.7366,-122 9383.7366,-126 9362.7366,-126 9359.7366,-122 9219.2634,-122 9219.2634,-86 9386.7366,-86 9386.7366,-122"/>
<text text-anchor="middle" x="9303" y="-99.8" font-family="Times,serif" font-size="14.00" fill="#000000">AuthModule.forRoot(args)</text>
</g>
<!-- AuthModule.forRoot(args)&#45;&gt;AppModule -->
<g id="edge12" class="edge">
<title>AuthModule.forRoot(args)&#45;&gt;AppModule</title>
<path fill="none" stroke="#000000" d="M9303,-122.2222C9303,-140.8285 9303,-167 9303,-167 9303,-167 7801.9408,-167 7801.9408,-167"/>
<polygon fill="#000000" stroke="#000000" points="7801.9409,-163.5001 7791.9408,-167 7801.9408,-170.5001 7801.9409,-163.5001"/>
</g>
<!-- AccountModule.forRoot(args) -->
<g id="node14" class="node">
<title>AccountModule.forRoot(args)</title>
<polygon fill="#8dd3c7" stroke="#000000" points="9201.1659,-122 9198.1659,-126 9177.1659,-126 9174.1659,-122 9014.8341,-122 9014.8341,-86 9201.1659,-86 9201.1659,-122"/>
<text text-anchor="middle" x="9108" y="-99.8" font-family="Times,serif" font-size="14.00" fill="#000000">AccountModule.forRoot(args)</text>
</g>
<!-- AccountModule.forRoot(args)&#45;&gt;AppModule -->
<g id="edge13" class="edge">
<title>AccountModule.forRoot(args)&#45;&gt;AppModule</title>
<path fill="none" stroke="#000000" d="M9108,-122.302C9108,-140.2699 9108,-165 9108,-165 9108,-165 7801.7568,-165 7801.7568,-165"/>
<polygon fill="#000000" stroke="#000000" points="7801.7568,-161.5001 7791.7568,-165 7801.7568,-168.5001 7801.7568,-161.5001"/>
</g>
<!-- LangModule.forRoot(args) -->
<g id="node15" class="node">
<title>LangModule.forRoot(args)</title>
<polygon fill="#8dd3c7" stroke="#000000" points="8997.0064,-122 8994.0064,-126 8973.0064,-126 8970.0064,-122 8828.9936,-122 8828.9936,-86 8997.0064,-86 8997.0064,-122"/>
<text text-anchor="middle" x="8913" y="-99.8" font-family="Times,serif" font-size="14.00" fill="#000000">LangModule.forRoot(args)</text>
</g>
<!-- LangModule.forRoot(args)&#45;&gt;AppModule -->
<g id="edge14" class="edge">
<title>LangModule.forRoot(args)&#45;&gt;AppModule</title>
<path fill="none" stroke="#000000" d="M8913,-122.0225C8913,-139.3734 8913,-163 8913,-163 8913,-163 7801.7347,-163 7801.7347,-163"/>
<polygon fill="#000000" stroke="#000000" points="7801.7347,-159.5001 7791.7347,-163 7801.7346,-166.5001 7801.7347,-159.5001"/>
</g>
<!-- RouterModule.forRoot(args) -->
<g id="node16" class="node">
<title>RouterModule.forRoot(args)</title>
<polygon fill="#8dd3c7" stroke="#000000" points="8810.8419,-122 8807.8419,-126 8786.8419,-126 8783.8419,-122 8633.1581,-122 8633.1581,-86 8810.8419,-86 8810.8419,-122"/>
<text text-anchor="middle" x="8722" y="-99.8" font-family="Times,serif" font-size="14.00" fill="#000000">RouterModule.forRoot(args)</text>
</g>
<!-- RouterModule.forRoot(args)&#45;&gt;AppModule -->
<g id="edge15" class="edge">
<title>RouterModule.forRoot(args)&#45;&gt;AppModule</title>
<path fill="none" stroke="#000000" d="M8722,-122.0336C8722,-139.0597 8722,-162 8722,-162 8722,-162 7801.7656,-162 7801.7656,-162"/>
<polygon fill="#000000" stroke="#000000" points="7801.7657,-158.5001 7791.7656,-162 7801.7656,-165.5001 7801.7657,-158.5001"/>
</g>
<!-- MetaModule.forRoot(args) -->
<g id="node17" class="node">
<title>MetaModule.forRoot(args)</title>
<polygon fill="#8dd3c7" stroke="#000000" points="8615.0036,-122 8612.0036,-126 8591.0036,-126 8588.0036,-122 8446.9964,-122 8446.9964,-86 8615.0036,-86 8615.0036,-122"/>
<text text-anchor="middle" x="8531" y="-99.8" font-family="Times,serif" font-size="14.00" fill="#000000">MetaModule.forRoot(args)</text>
</g>
<!-- MetaModule.forRoot(args)&#45;&gt;AppModule -->
<g id="edge16" class="edge">
<title>MetaModule.forRoot(args)&#45;&gt;AppModule</title>
<path fill="none" stroke="#000000" d="M8531,-122.027C8531,-138.3976 8531,-160 8531,-160 8531,-160 7801.7138,-160 7801.7138,-160"/>
<polygon fill="#000000" stroke="#000000" points="7801.7139,-156.5001 7791.7138,-160 7801.7138,-163.5001 7801.7139,-156.5001"/>
</g>
<!-- AuthModalModule.forRoot(args) -->
<g id="node18" class="node">
<title>AuthModalModule.forRoot(args)</title>
<polygon fill="#8dd3c7" stroke="#000000" points="8428.7863,-122 8425.7863,-126 8404.7863,-126 8401.7863,-122 8225.2137,-122 8225.2137,-86 8428.7863,-86 8428.7863,-122"/>
<text text-anchor="middle" x="8327" y="-99.8" font-family="Times,serif" font-size="14.00" fill="#000000">AuthModalModule.forRoot(args)</text>
</g>
<!-- AuthModalModule.forRoot(args)&#45;&gt;AppModule -->
<g id="edge17" class="edge">
<title>AuthModalModule.forRoot(args)&#45;&gt;AppModule</title>
<path fill="none" stroke="#000000" d="M8327,-122.2819C8327,-137.9478 8327,-158 8327,-158 8327,-158 7801.9612,-158 7801.9612,-158"/>
<polygon fill="#000000" stroke="#000000" points="7801.9612,-154.5001 7791.9612,-158 7801.9612,-161.5001 7801.9612,-154.5001"/>
</g>
<!-- IonicAuthModalModule -->
<g id="node19" class="node">
<title>IonicAuthModalModule</title>
<polygon fill="#8dd3c7" stroke="#000000" points="8207.3627,-122 8204.3627,-126 8183.3627,-126 8180.3627,-122 8054.6373,-122 8054.6373,-86 8207.3627,-86 8207.3627,-122"/>
<text text-anchor="middle" x="8131" y="-99.8" font-family="Times,serif" font-size="14.00" fill="#000000">IonicAuthModalModule</text>
</g>
<!-- IonicAuthModalModule&#45;&gt;AppModule -->
<g id="edge18" class="edge">
<title>IonicAuthModalModule&#45;&gt;AppModule</title>
<path fill="none" stroke="#000000" d="M8131,-122.2396C8131,-137.5706 8131,-157 8131,-157 8131,-157 7801.8635,-157 7801.8635,-157"/>
<polygon fill="#000000" stroke="#000000" points="7801.8636,-153.5001 7791.8635,-157 7801.8635,-160.5001 7801.8636,-153.5001"/>
</g>
<!-- NavbarModule -->
<g id="node20" class="node">
<title>NavbarModule</title>
<polygon fill="#8dd3c7" stroke="#000000" points="8036.2465,-122 8033.2465,-126 8012.2465,-126 8009.2465,-122 7935.7535,-122 7935.7535,-86 8036.2465,-86 8036.2465,-122"/>
<text text-anchor="middle" x="7986" y="-99.8" font-family="Times,serif" font-size="14.00" fill="#000000">NavbarModule</text>
</g>
<!-- NavbarModule&#45;&gt;AppModule -->
<g id="edge19" class="edge">
<title>NavbarModule&#45;&gt;AppModule</title>
<path fill="none" stroke="#000000" d="M7986,-122.1243C7986,-136.7832 7986,-155 7986,-155 7986,-155 7801.9201,-155 7801.9201,-155"/>
<polygon fill="#000000" stroke="#000000" points="7801.9202,-151.5001 7791.9201,-155 7801.9201,-158.5001 7801.9202,-151.5001"/>
</g>
<!-- IonicModalsModule -->
<g id="node21" class="node">
<title>IonicModalsModule</title>
<polygon fill="#8dd3c7" stroke="#000000" points="7917.3104,-122 7914.3104,-126 7893.3104,-126 7890.3104,-122 7786.6896,-122 7786.6896,-86 7917.3104,-86 7917.3104,-122"/>
<text text-anchor="middle" x="7852" y="-99.8" font-family="Times,serif" font-size="14.00" fill="#000000">IonicModalsModule</text>
</g>
<!-- IonicModalsModule&#45;&gt;AppModule -->
<g id="edge20" class="edge">
<title>IonicModalsModule&#45;&gt;AppModule</title>
<path fill="none" stroke="#000000" d="M7798.1489,-122.2458C7798.1489,-136.1772 7798.1489,-153 7798.1489,-153 7798.1489,-153 7797.5194,-153 7797.5194,-153"/>
<polygon fill="#000000" stroke="#000000" points="7801.8543,-149.5002 7791.8542,-153 7801.8542,-156.5002 7801.8543,-149.5002"/>
</g>
<!-- UsersListFiltersModalModule.forRoot() -->
<g id="node22" class="node">
<title>UsersListFiltersModalModule.forRoot()</title>
<polygon fill="#8dd3c7" stroke="#000000" points="7768.8928,-122 7765.8928,-126 7744.8928,-126 7741.8928,-122 7527.1072,-122 7527.1072,-86 7768.8928,-86 7768.8928,-122"/>
<text text-anchor="middle" x="7648" y="-99.8" font-family="Times,serif" font-size="14.00" fill="#000000">UsersListFiltersModalModule.forRoot()</text>
</g>
<!-- UsersListFiltersModalModule.forRoot()&#45;&gt;AppModule -->
<g id="edge21" class="edge">
<title>UsersListFiltersModalModule.forRoot()&#45;&gt;AppModule</title>
<path fill="none" stroke="#000000" d="M7738.5591,-122.1061C7738.5591,-122.1061 7738.5591,-140.991 7738.5591,-140.991"/>
<polygon fill="#000000" stroke="#000000" points="7735.0592,-140.9909 7738.5591,-150.991 7742.0592,-140.991 7735.0592,-140.9909"/>
</g>
<!-- GroupsListFiltersModalModule.forRoot() -->
<g id="node23" class="node">
<title>GroupsListFiltersModalModule.forRoot()</title>
<polygon fill="#8dd3c7" stroke="#000000" points="7508.7337,-122 7505.7337,-126 7484.7337,-126 7481.7337,-122 7257.2663,-122 7257.2663,-86 7508.7337,-86 7508.7337,-122"/>
<text text-anchor="middle" x="7383" y="-99.8" font-family="Times,serif" font-size="14.00" fill="#000000">GroupsListFiltersModalModule.forRoot()</text>
</g>
<!-- GroupsListFiltersModalModule.forRoot()&#45;&gt;AppModule -->
<g id="edge22" class="edge">
<title>GroupsListFiltersModalModule.forRoot()&#45;&gt;AppModule</title>
<path fill="none" stroke="#000000" d="M7383,-122.2458C7383,-136.1772 7383,-153 7383,-153 7383,-153 7698.2577,-153 7698.2577,-153"/>
<polygon fill="#000000" stroke="#000000" points="7698.2578,-156.5001 7708.2577,-153 7698.2577,-149.5001 7698.2578,-156.5001"/>
</g>
<!-- ProjectsListFiltersModalModule.forRoot(args) -->
<g id="node24" class="node">
<title>ProjectsListFiltersModalModule.forRoot(args)</title>
<polygon fill="#8dd3c7" stroke="#000000" points="7239.4401,-122 7236.4401,-126 7215.4401,-126 7212.4401,-122 6960.5599,-122 6960.5599,-86 7239.4401,-86 7239.4401,-122"/>
<text text-anchor="middle" x="7100" y="-99.8" font-family="Times,serif" font-size="14.00" fill="#000000">ProjectsListFiltersModalModule.forRoot(args)</text>
</g>
<!-- ProjectsListFiltersModalModule.forRoot(args)&#45;&gt;AppModule -->
<g id="edge23" class="edge">
<title>ProjectsListFiltersModalModule.forRoot(args)&#45;&gt;AppModule</title>
<path fill="none" stroke="#000000" d="M7100,-122.1243C7100,-136.7832 7100,-155 7100,-155 7100,-155 7697.8525,-155 7697.8525,-155"/>
<polygon fill="#000000" stroke="#000000" points="7697.8525,-158.5001 7707.8525,-155 7697.8525,-151.5001 7697.8525,-158.5001"/>
</g>
<!-- TasksListFiltersModalModule.forRoot() -->
<g id="node25" class="node">
<title>TasksListFiltersModalModule.forRoot()</title>
<polygon fill="#8dd3c7" stroke="#000000" points="6942.1784,-122 6939.1784,-126 6918.1784,-126 6915.1784,-122 6699.8216,-122 6699.8216,-86 6942.1784,-86 6942.1784,-122"/>
<text text-anchor="middle" x="6821" y="-99.8" font-family="Times,serif" font-size="14.00" fill="#000000">TasksListFiltersModalModule.forRoot()</text>
</g>
<!-- TasksListFiltersModalModule.forRoot()&#45;&gt;AppModule -->
<g id="edge24" class="edge">
<title>TasksListFiltersModalModule.forRoot()&#45;&gt;AppModule</title>
<path fill="none" stroke="#000000" d="M6821,-122.2396C6821,-137.5706 6821,-157 6821,-157 6821,-157 7698.278,-157 7698.278,-157"/>
<polygon fill="#000000" stroke="#000000" points="7698.2781,-160.5001 7708.278,-157 7698.278,-153.5001 7698.2781,-160.5001"/>
</g>
<!-- NgxBindIOModule.forRoot() -->
<g id="node26" class="node">
<title>NgxBindIOModule.forRoot()</title>
<polygon fill="#8dd3c7" stroke="#000000" points="6682.0204,-122 6679.0204,-126 6658.0204,-126 6655.0204,-122 6499.9796,-122 6499.9796,-86 6682.0204,-86 6682.0204,-122"/>
<text text-anchor="middle" x="6591" y="-99.8" font-family="Times,serif" font-size="14.00" fill="#000000">NgxBindIOModule.forRoot()</text>
</g>
<!-- NgxBindIOModule.forRoot()&#45;&gt;AppModule -->
<g id="edge25" class="edge">
<title>NgxBindIOModule.forRoot()&#45;&gt;AppModule</title>
<path fill="none" stroke="#000000" d="M6591,-122.0091C6591,-138.0494 6591,-159 6591,-159 6591,-159 7698.0659,-159 7698.0659,-159"/>
<polygon fill="#000000" stroke="#000000" points="7698.0659,-162.5001 7708.0659,-159 7698.0658,-155.5001 7698.0659,-162.5001"/>
</g>
<!-- { provide: CONTENT_TYPES_CONFIG_TOKEN, useValue: &#160;} -->
<g id="node28" class="node">
<title>{ provide: CONTENT_TYPES_CONFIG_TOKEN, useValue: &#160;}</title>
<ellipse fill="#fdb462" stroke="#000000" cx="6213" cy="-104" rx="263.0597" ry="18"/>
<text text-anchor="middle" x="6213" y="-99.8" font-family="Times,serif" font-size="14.00" fill="#000000">{ provide: CONTENT_TYPES_CONFIG_TOKEN, useValue: &#160;}</text>
</g>
<!-- { provide: CONTENT_TYPES_CONFIG_TOKEN, useValue: &#160;}&#45;&gt;AppModule -->
<g id="edge27" class="edge">
<title>{ provide: CONTENT_TYPES_CONFIG_TOKEN, useValue: &#160;}&#45;&gt;AppModule</title>
<path fill="none" stroke="#000000" d="M6213,-122.027C6213,-138.3976 6213,-160 6213,-160 6213,-160 7698.0918,-160 7698.0918,-160"/>
<polygon fill="#000000" stroke="#000000" points="7698.0919,-163.5001 7708.0918,-160 7698.0918,-156.5001 7698.0919,-163.5001"/>
</g>
<!-- { provide: PERMISSIONS_CONFIG_TOKEN, useValue: &#160;} -->
<g id="node29" class="node">
<title>{ provide: PERMISSIONS_CONFIG_TOKEN, useValue: &#160;}</title>
<ellipse fill="#fdb462" stroke="#000000" cx="5685" cy="-104" rx="246.8224" ry="18"/>
<text text-anchor="middle" x="5685" y="-99.8" font-family="Times,serif" font-size="14.00" fill="#000000">{ provide: PERMISSIONS_CONFIG_TOKEN, useValue: &#160;}</text>
</g>
<!-- { provide: PERMISSIONS_CONFIG_TOKEN, useValue: &#160;}&#45;&gt;AppModule -->
<g id="edge28" class="edge">
<title>{ provide: PERMISSIONS_CONFIG_TOKEN, useValue: &#160;}&#45;&gt;AppModule</title>
<path fill="none" stroke="#000000" d="M5685,-122.0336C5685,-139.0597 5685,-162 5685,-162 5685,-162 7698.2842,-162 7698.2842,-162"/>
<polygon fill="#000000" stroke="#000000" points="7698.2842,-165.5001 7708.2842,-162 7698.2842,-158.5001 7698.2842,-165.5001"/>
</g>
<!-- { provide: USERS_CONFIG_TOKEN, useValue: &#160;} -->
<g id="node30" class="node">
<title>{ provide: USERS_CONFIG_TOKEN, useValue: &#160;}</title>
<ellipse fill="#fdb462" stroke="#000000" cx="5206" cy="-104" rx="213.8791" ry="18"/>
<text text-anchor="middle" x="5206" y="-99.8" font-family="Times,serif" font-size="14.00" fill="#000000">{ provide: USERS_CONFIG_TOKEN, useValue: &#160;}</text>
</g>
<!-- { provide: USERS_CONFIG_TOKEN, useValue: &#160;}&#45;&gt;AppModule -->
<g id="edge29" class="edge">
<title>{ provide: USERS_CONFIG_TOKEN, useValue: &#160;}&#45;&gt;AppModule</title>
<path fill="none" stroke="#000000" d="M5206,-122.002C5206,-139.6754 5206,-164 5206,-164 5206,-164 7698.2285,-164 7698.2285,-164"/>
<polygon fill="#000000" stroke="#000000" points="7698.2285,-167.5001 7708.2285,-164 7698.2285,-160.5001 7698.2285,-167.5001"/>
</g>
<!-- { provide: GROUPS_CONFIG_TOKEN, useValue: &#160;} -->
<g id="node31" class="node">
<title>{ provide: GROUPS_CONFIG_TOKEN, useValue: &#160;}</title>
<ellipse fill="#fdb462" stroke="#000000" cx="4752" cy="-104" rx="221.9656" ry="18"/>
<text text-anchor="middle" x="4752" y="-99.8" font-family="Times,serif" font-size="14.00" fill="#000000">{ provide: GROUPS_CONFIG_TOKEN, useValue: &#160;}</text>
</g>
<!-- { provide: GROUPS_CONFIG_TOKEN, useValue: &#160;}&#45;&gt;AppModule -->
<g id="edge30" class="edge">
<title>{ provide: GROUPS_CONFIG_TOKEN, useValue: &#160;}&#45;&gt;AppModule</title>
<path fill="none" stroke="#000000" d="M4752,-122.2667C4752,-140.5552 4752,-166 4752,-166 4752,-166 7698.1916,-166 7698.1916,-166"/>
<polygon fill="#000000" stroke="#000000" points="7698.1917,-169.5001 7708.1916,-166 7698.1916,-162.5001 7698.1917,-169.5001"/>
</g>
<!-- { provide: PROJECTS_CONFIG_TOKEN, useValue: &#160;} -->
<g id="node32" class="node">
<title>{ provide: PROJECTS_CONFIG_TOKEN, useValue: &#160;}</title>
<ellipse fill="#fdb462" stroke="#000000" cx="4282" cy="-104" rx="230.0695" ry="18"/>
<text text-anchor="middle" x="4282" y="-99.8" font-family="Times,serif" font-size="14.00" fill="#000000">{ provide: PROJECTS_CONFIG_TOKEN, useValue: &#160;}</text>
</g>
<!-- { provide: PROJECTS_CONFIG_TOKEN, useValue: &#160;}&#45;&gt;AppModule -->
<g id="edge31" class="edge">
<title>{ provide: PROJECTS_CONFIG_TOKEN, useValue: &#160;}&#45;&gt;AppModule</title>
<path fill="none" stroke="#000000" d="M4282,-122.1686C4282,-141.0898 4282,-168 4282,-168 4282,-168 7698.3299,-168 7698.3299,-168"/>
<polygon fill="#000000" stroke="#000000" points="7698.3299,-171.5001 7708.3299,-168 7698.3299,-164.5001 7698.3299,-171.5001"/>
</g>
<!-- { provide: TASKS_CONFIG_TOKEN, useValue: &#160;} -->
<g id="node33" class="node">
<title>{ provide: TASKS_CONFIG_TOKEN, useValue: &#160;}</title>
<ellipse fill="#fdb462" stroke="#000000" cx="3819" cy="-104" rx="214.4413" ry="18"/>
<text text-anchor="middle" x="3819" y="-99.8" font-family="Times,serif" font-size="14.00" fill="#000000">{ provide: TASKS_CONFIG_TOKEN, useValue: &#160;}</text>
</g>
<!-- { provide: TASKS_CONFIG_TOKEN, useValue: &#160;}&#45;&gt;AppModule -->
<g id="edge32" class="edge">
<title>{ provide: TASKS_CONFIG_TOKEN, useValue: &#160;}&#45;&gt;AppModule</title>
<path fill="none" stroke="#000000" d="M3819,-122.1061C3819,-141.3391 3819,-169 3819,-169 3819,-169 7698.1847,-169 7698.1847,-169"/>
<polygon fill="#000000" stroke="#000000" points="7698.1847,-172.5001 7708.1847,-169 7698.1846,-165.5001 7698.1847,-172.5001"/>
</g>
<!-- { provide: STORAGE_CONFIG_TOKEN, useClass: BrowserStorage } -->
<g id="node34" class="node">
<title>{ provide: STORAGE_CONFIG_TOKEN, useClass: BrowserStorage }</title>
<ellipse fill="#fdb462" stroke="#000000" cx="3298" cy="-104" rx="288.4746" ry="18"/>
<text text-anchor="middle" x="3298" y="-99.8" font-family="Times,serif" font-size="14.00" fill="#000000">{ provide: STORAGE_CONFIG_TOKEN, useClass: BrowserStorage }</text>
</g>
<!-- { provide: STORAGE_CONFIG_TOKEN, useClass: BrowserStorage }&#45;&gt;AppModule -->
<g id="edge33" class="edge">
<title>{ provide: STORAGE_CONFIG_TOKEN, useClass: BrowserStorage }&#45;&gt;AppModule</title>
<path fill="none" stroke="#000000" d="M3298,-122.308C3298,-142.1455 3298,-171 3298,-171 3298,-171 7698.07,-171 7698.07,-171"/>
<polygon fill="#000000" stroke="#000000" points="7698.0701,-174.5001 7708.07,-171 7698.07,-167.5001 7698.0701,-174.5001"/>
</g>
<!-- { provide: &#39;ORIGIN_URL&#39;, useValue: &#160;} -->
<g id="node35" class="node">
<title>{ provide: &#39;ORIGIN_URL&#39;, useValue: &#160;}</title>
<ellipse fill="#fdb462" stroke="#000000" cx="2822" cy="-104" rx="169.8754" ry="18"/>
<text text-anchor="middle" x="2822" y="-99.8" font-family="Times,serif" font-size="14.00" fill="#000000">{ provide: &#39;ORIGIN_URL&#39;, useValue: &#160;}</text>
</g>
<!-- { provide: &#39;ORIGIN_URL&#39;, useValue: &#160;}&#45;&gt;AppModule -->
<g id="edge34" class="edge">
<title>{ provide: &#39;ORIGIN_URL&#39;, useValue: &#160;}&#45;&gt;AppModule</title>
<path fill="none" stroke="#000000" d="M2822,-122.1289C2822,-142.5724 2822,-173 2822,-173 2822,-173 7698.1404,-173 7698.1404,-173"/>
<polygon fill="#000000" stroke="#000000" points="7698.1404,-176.5001 7708.1404,-173 7698.1404,-169.5001 7698.1404,-176.5001"/>
</g>
<!-- { provide: APP_INITIALIZER, useFactory: initializeApp, multi: , deps: [TokenService, LangService, UsersListFiltersModalService, GroupsListFiltersModalService] } -->
<g id="node36" class="node">
<title>{ provide: APP_INITIALIZER, useFactory: initializeApp, multi: , deps: [TokenService, LangService, UsersListFiltersModalService, GroupsListFiltersModalService] }</title>
<ellipse fill="#fdb462" stroke="#000000" cx="1973" cy="-104" rx="661.4927" ry="18"/>
<text text-anchor="middle" x="1973" y="-99.8" font-family="Times,serif" font-size="14.00" fill="#000000">{ provide: APP_INITIALIZER, useFactory: initializeApp, multi: , deps: [TokenService, LangService, UsersListFiltersModalService, GroupsListFiltersModalService] }</text>
</g>
<!-- { provide: APP_INITIALIZER, useFactory: initializeApp, multi: , deps: [TokenService, LangService, UsersListFiltersModalService, GroupsListFiltersModalService] }&#45;&gt;AppModule -->
<g id="edge35" class="edge">
<title>{ provide: APP_INITIALIZER, useFactory: initializeApp, multi: , deps: [TokenService, LangService, UsersListFiltersModalService, GroupsListFiltersModalService] }&#45;&gt;AppModule</title>
<path fill="none" stroke="#000000" d="M2634.6811,-104C2640.1991,-104 2643.1543,-104 2643.1543,-104 2643.1543,-104 2643.1543,-175 2643.1543,-175 2643.1543,-175 7698.1421,-175 7698.1421,-175"/>
<polygon fill="#000000" stroke="#000000" points="7698.1421,-178.5001 7708.1421,-175 7698.1421,-171.5001 7698.1421,-178.5001"/>
</g>
<!-- StatusBar -->
<g id="node37" class="node">
<title>StatusBar</title>
<ellipse fill="#fdb462" stroke="#000000" cx="1245" cy="-104" rx="48.6694" ry="18"/>
<text text-anchor="middle" x="1245" y="-99.8" font-family="Times,serif" font-size="14.00" fill="#000000">StatusBar</text>
</g>
<!-- StatusBar&#45;&gt;AppModule -->
<g id="edge36" class="edge">
<title>StatusBar&#45;&gt;AppModule</title>
<path fill="none" stroke="#000000" d="M1245,-122.0449C1245,-143.6623 1245,-177 1245,-177 1245,-177 7698.0336,-177 7698.0336,-177"/>
<polygon fill="#000000" stroke="#000000" points="7698.0336,-180.5001 7708.0336,-177 7698.0335,-173.5001 7698.0336,-180.5001"/>
</g>
<!-- SplashScreen -->
<g id="node38" class="node">
<title>SplashScreen</title>
<ellipse fill="#fdb462" stroke="#000000" cx="1115" cy="-104" rx="63.1189" ry="18"/>
<text text-anchor="middle" x="1115" y="-99.8" font-family="Times,serif" font-size="14.00" fill="#000000">SplashScreen</text>
</g>
<!-- SplashScreen&#45;&gt;AppModule -->
<g id="edge37" class="edge">
<title>SplashScreen&#45;&gt;AppModule</title>
<path fill="none" stroke="#000000" d="M1115,-122.2921C1115,-144.2057 1115,-178 1115,-178 1115,-178 7698.0634,-178 7698.0634,-178"/>
<polygon fill="#000000" stroke="#000000" points="7698.0634,-181.5001 7708.0634,-178 7698.0633,-174.5001 7698.0634,-181.5001"/>
</g>
<!-- { provide: RouteReuseStrategy, useClass: IonicRouteStrategy } -->
<g id="node39" class="node">
<title>{ provide: RouteReuseStrategy, useClass: IonicRouteStrategy }</title>
<ellipse fill="#fdb462" stroke="#000000" cx="777" cy="-104" rx="257.2723" ry="18"/>
<text text-anchor="middle" x="777" y="-99.8" font-family="Times,serif" font-size="14.00" fill="#000000">{ provide: RouteReuseStrategy, useClass: IonicRouteStrategy }</text>
</g>
<!-- { provide: RouteReuseStrategy, useClass: IonicRouteStrategy }&#45;&gt;AppModule -->
<g id="edge38" class="edge">
<title>{ provide: RouteReuseStrategy, useClass: IonicRouteStrategy }&#45;&gt;AppModule</title>
<path fill="none" stroke="#000000" d="M777,-122.0109C777,-144.4852 777,-180 777,-180 777,-180 7698.1692,-180 7698.1692,-180"/>
<polygon fill="#000000" stroke="#000000" points="7698.1692,-183.5001 7708.1692,-180 7698.1692,-176.5001 7698.1692,-183.5001"/>
</g>
<!-- CookieService -->
<g id="node40" class="node">
<title>CookieService</title>
<ellipse fill="#fdb462" stroke="#000000" cx="434" cy="-104" rx="67.776" ry="18"/>
<text text-anchor="middle" x="434" y="-99.8" font-family="Times,serif" font-size="14.00" fill="#000000">CookieService</text>
</g>
<!-- CookieService&#45;&gt;AppModule -->
<g id="edge39" class="edge">
<title>CookieService&#45;&gt;AppModule</title>
<path fill="none" stroke="#000000" d="M434,-122.0908C434,-145.1328 434,-182 434,-182 434,-182 7697.9507,-182 7697.9507,-182"/>
<polygon fill="#000000" stroke="#000000" points="7697.9508,-185.5001 7707.9507,-182 7697.9507,-178.5001 7697.9508,-185.5001"/>
</g>
<!-- ErrorsExtractor -->
<g id="node41" class="node">
<title>ErrorsExtractor</title>
<ellipse fill="#fdb462" stroke="#000000" cx="277" cy="-104" rx="71.1823" ry="18"/>
<text text-anchor="middle" x="277" y="-99.8" font-family="Times,serif" font-size="14.00" fill="#000000">ErrorsExtractor</text>
</g>
<!-- ErrorsExtractor&#45;&gt;AppModule -->
<g id="edge40" class="edge">
<title>ErrorsExtractor&#45;&gt;AppModule</title>
<path fill="none" stroke="#000000" d="M277,-122.1532C277,-145.7566 277,-184 277,-184 277,-184 7697.9731,-184 7697.9731,-184"/>
<polygon fill="#000000" stroke="#000000" points="7697.9731,-187.5001 7707.9731,-184 7697.973,-180.5001 7697.9731,-187.5001"/>
</g>
<!-- PermissionsGuard -->
<g id="node42" class="node">
<title>PermissionsGuard</title>
<ellipse fill="#fdb462" stroke="#000000" cx="106" cy="-104" rx="81.6789" ry="18"/>
<text text-anchor="middle" x="106" y="-99.8" font-family="Times,serif" font-size="14.00" fill="#000000">PermissionsGuard</text>
</g>
<!-- PermissionsGuard&#45;&gt;AppModule -->
<g id="edge41" class="edge">
<title>PermissionsGuard&#45;&gt;AppModule</title>
<path fill="none" stroke="#000000" d="M106,-122.1985C106,-146.3563 106,-186 106,-186 106,-186 7697.9473,-186 7697.9473,-186"/>
<polygon fill="#000000" stroke="#000000" points="7697.9473,-189.5001 7707.9473,-186 7697.9472,-182.5001 7697.9473,-189.5001"/>
</g>
</g>
</svg>
