<?xml version="1.0" encoding="UTF-8" standalone="no"?>
<!DOCTYPE svg PUBLIC "-//W3C//DTD SVG 1.1//EN"
 "http://www.w3.org/Graphics/SVG/1.1/DTD/svg11.dtd">
<!-- Generated by graphviz version 2.40.1 (20161225.0304)
 -->
<!-- Title: dependencies Pages: 1 -->
<svg width="8922pt" height="284pt"
 viewBox="0.00 0.00 8922.00 284.00" xmlns="http://www.w3.org/2000/svg" xmlns:xlink="http://www.w3.org/1999/xlink">
<g id="graph0" class="graph" transform="scale(1 1) rotate(0) translate(4 280)">
<title>dependencies</title>
<polygon fill="#ffffff" stroke="transparent" points="-4,4 -4,-280 8918,-280 8918,4 -4,4"/>
<text text-anchor="start" x="4436.0091" y="-42.4" font-family="sans-serif" font-weight="bold" font-size="14.00" fill="#000000">Legend</text>
<polygon fill="#ffffb3" stroke="transparent" points="4223,-10 4223,-30 4243,-30 4243,-10 4223,-10"/>
<text text-anchor="start" x="4246.629" y="-15.4" font-family="sans-serif" font-size="14.00" fill="#000000"> &#160;Declarations</text>
<polygon fill="#8dd3c7" stroke="transparent" points="4336,-10 4336,-30 4356,-30 4356,-10 4336,-10"/>
<text text-anchor="start" x="4359.7251" y="-15.4" font-family="sans-serif" font-size="14.00" fill="#000000"> &#160;Module</text>
<polygon fill="#80b1d3" stroke="transparent" points="4422,-10 4422,-30 4442,-30 4442,-10 4422,-10"/>
<text text-anchor="start" x="4445.7812" y="-15.4" font-family="sans-serif" font-size="14.00" fill="#000000"> &#160;Bootstrap</text>
<polygon fill="#fdb462" stroke="transparent" points="4519,-10 4519,-30 4539,-30 4539,-10 4519,-10"/>
<text text-anchor="start" x="4542.6732" y="-15.4" font-family="sans-serif" font-size="14.00" fill="#000000"> &#160;Providers</text>
<polygon fill="#fb8072" stroke="transparent" points="4615,-10 4615,-30 4635,-30 4635,-10 4615,-10"/>
<text text-anchor="start" x="4638.7258" y="-15.4" font-family="sans-serif" font-size="14.00" fill="#000000"> &#160;Exports</text>
<g id="clust1" class="cluster">
<title>cluster_AppModule</title>
<polygon fill="none" stroke="#000000" stroke-dasharray="1,5" points="8,-70 8,-268 8906,-268 8906,-70 8,-70"/>
</g>
<g id="clust2" class="cluster">
<title>cluster_AppModule_declarations</title>
<polygon fill="none" stroke="#000000" points="8776,-78 8776,-130 8898,-130 8898,-78 8776,-78"/>
</g>
<g id="clust4" class="cluster">
<title>cluster_AppModule_imports</title>
<polygon fill="none" stroke="#000000" points="3703,-78 3703,-130 8768,-130 8768,-78 3703,-78"/>
</g>
<g id="clust6" class="cluster">
<title>cluster_AppModule_bootstrap</title>
<polygon fill="none" stroke="#000000" points="5479,-208 5479,-260 5603,-260 5603,-208 5479,-208"/>
</g>
<g id="clust7" class="cluster">
<title>cluster_AppModule_providers</title>
<polygon fill="none" stroke="#000000" points="16,-78 16,-130 3695,-130 3695,-78 16,-78"/>
</g>
<!-- AppComponent -->
<g id="node1" class="node">
<title>AppComponent</title>
<polygon fill="#ffffb3" stroke="#000000" points="8889.9399,-122 8784.0601,-122 8784.0601,-86 8889.9399,-86 8889.9399,-122"/>
<text text-anchor="middle" x="8837" y="-99.8" font-family="Times,serif" font-size="14.00" fill="#000000">AppComponent</text>
</g>
<!-- AppModule -->
<g id="node2" class="node">
<title>AppModule</title>
<polygon fill="#8dd3c7" stroke="#000000" points="5582.6571,-187 5579.6571,-191 5558.6571,-191 5555.6571,-187 5499.3429,-187 5499.3429,-151 5582.6571,-151 5582.6571,-187"/>
<text text-anchor="middle" x="5541" y="-164.8" font-family="Times,serif" font-size="14.00" fill="#000000">AppModule</text>
</g>
<!-- AppComponent&#45;&gt;AppModule -->
<g id="edge1" class="edge">
<title>AppComponent&#45;&gt;AppModule</title>
<path fill="none" stroke="#000000" d="M8837,-122.3802C8837,-146.2785 8837,-185 8837,-185 8837,-185 5592.6736,-185 5592.6736,-185"/>
<polygon fill="#000000" stroke="#000000" points="5592.6737,-181.5001 5582.6736,-185 5592.6736,-188.5001 5592.6737,-181.5001"/>
</g>
<!-- AppComponent  -->
<g id="node28" class="node">
<title>AppComponent </title>
<polygon fill="#80b1d3" stroke="#000000" points="5595.439,-252 5486.561,-252 5486.561,-216 5595.439,-216 5595.439,-252"/>
<text text-anchor="middle" x="5541" y="-229.8" font-family="Times,serif" font-size="14.00" fill="#000000">AppComponent </text>
</g>
<!-- AppModule&#45;&gt;AppComponent  -->
<g id="edge27" class="edge">
<title>AppModule&#45;&gt;AppComponent </title>
<path fill="none" stroke="#000000" stroke-dasharray="1,5" d="M5541,-187.1061C5541,-187.1061 5541,-205.991 5541,-205.991"/>
<polygon fill="#000000" stroke="#000000" points="5537.5001,-205.9909 5541,-215.991 5544.5001,-205.991 5537.5001,-205.9909"/>
</g>
<!-- CommonModule -->
<g id="node3" class="node">
<title>CommonModule</title>
<polygon fill="#8dd3c7" stroke="#000000" points="8759.6681,-122 8756.6681,-126 8735.6681,-126 8732.6681,-122 8648.3319,-122 8648.3319,-86 8759.6681,-86 8759.6681,-122"/>
<text text-anchor="middle" x="8704" y="-99.8" font-family="Times,serif" font-size="14.00" fill="#000000">CommonModule</text>
</g>
<!-- CommonModule&#45;&gt;AppModule -->
<g id="edge2" class="edge">
<title>CommonModule&#45;&gt;AppModule</title>
<path fill="none" stroke="#000000" d="M8704,-122.3228C8704,-145.6602 8704,-183 8704,-183 8704,-183 5592.7331,-183 5592.7331,-183"/>
<polygon fill="#000000" stroke="#000000" points="5592.7332,-179.5001 5582.7331,-183 5592.7331,-186.5001 5592.7332,-179.5001"/>
</g>
<!-- SharedModule -->
<g id="node4" class="node">
<title>SharedModule</title>
<polygon fill="#8dd3c7" stroke="#000000" points="8630.4231,-122 8627.4231,-126 8606.4231,-126 8603.4231,-122 8531.5769,-122 8531.5769,-86 8630.4231,-86 8630.4231,-122"/>
<text text-anchor="middle" x="8581" y="-99.8" font-family="Times,serif" font-size="14.00" fill="#000000">SharedModule</text>
</g>
<!-- SharedModule&#45;&gt;AppModule -->
<g id="edge3" class="edge">
<title>SharedModule&#45;&gt;AppModule</title>
<path fill="none" stroke="#000000" d="M8581,-122.2479C8581,-145.0179 8581,-181 8581,-181 8581,-181 5592.8175,-181 5592.8175,-181"/>
<polygon fill="#000000" stroke="#000000" points="5592.8175,-177.5001 5582.8175,-181 5592.8175,-184.5001 5592.8175,-177.5001"/>
</g>
<!-- HttpClientModule -->
<g id="node5" class="node">
<title>HttpClientModule</title>
<polygon fill="#8dd3c7" stroke="#000000" points="8513.1611,-122 8510.1611,-126 8489.1611,-126 8486.1611,-122 8394.8389,-122 8394.8389,-86 8513.1611,-86 8513.1611,-122"/>
<text text-anchor="middle" x="8454" y="-99.8" font-family="Times,serif" font-size="14.00" fill="#000000">HttpClientModule</text>
</g>
<!-- HttpClientModule&#45;&gt;AppModule -->
<g id="edge4" class="edge">
<title>HttpClientModule&#45;&gt;AppModule</title>
<path fill="none" stroke="#000000" d="M8454,-122.1554C8454,-144.3519 8454,-179 8454,-179 8454,-179 5592.7387,-179 5592.7387,-179"/>
<polygon fill="#000000" stroke="#000000" points="5592.7388,-175.5001 5582.7387,-179 5592.7387,-182.5001 5592.7388,-175.5001"/>
</g>
<!-- NgxRemoteConfigModule.forRoot(args) -->
<g id="node6" class="node">
<title>NgxRemoteConfigModule.forRoot(args)</title>
<polygon fill="#8dd3c7" stroke="#000000" points="8376.7807,-122 8373.7807,-126 8352.7807,-126 8349.7807,-122 8131.2193,-122 8131.2193,-86 8376.7807,-86 8376.7807,-122"/>
<text text-anchor="middle" x="8254" y="-99.8" font-family="Times,serif" font-size="14.00" fill="#000000">NgxRemoteConfigModule.forRoot(args)</text>
</g>
<!-- NgxRemoteConfigModule.forRoot(args)&#45;&gt;AppModule -->
<g id="edge5" class="edge">
<title>NgxRemoteConfigModule.forRoot(args)&#45;&gt;AppModule</title>
<path fill="none" stroke="#000000" d="M8254,-122.0449C8254,-143.6623 8254,-177 8254,-177 8254,-177 5592.7993,-177 5592.7993,-177"/>
<polygon fill="#000000" stroke="#000000" points="5592.7993,-173.5001 5582.7993,-177 5592.7992,-180.5001 5592.7993,-173.5001"/>
</g>
<!-- IonicStorageModule.forRoot() -->
<g id="node7" class="node">
<title>IonicStorageModule.forRoot()</title>
<polygon fill="#8dd3c7" stroke="#000000" points="8112.9487,-122 8109.9487,-126 8088.9487,-126 8085.9487,-122 7925.0513,-122 7925.0513,-86 8112.9487,-86 8112.9487,-122"/>
<text text-anchor="middle" x="8019" y="-99.8" font-family="Times,serif" font-size="14.00" fill="#000000">IonicStorageModule.forRoot()</text>
</g>
<!-- IonicStorageModule.forRoot()&#45;&gt;AppModule -->
<g id="edge6" class="edge">
<title>IonicStorageModule.forRoot()&#45;&gt;AppModule</title>
<path fill="none" stroke="#000000" d="M8019,-122.2843C8019,-143.3211 8019,-175 8019,-175 8019,-175 5592.7125,-175 5592.7125,-175"/>
<polygon fill="#000000" stroke="#000000" points="5592.7126,-171.5001 5582.7125,-175 5592.7125,-178.5001 5592.7126,-171.5001"/>
</g>
<!-- TranslateModule.forRoot() -->
<g id="node8" class="node">
<title>TranslateModule.forRoot()</title>
<polygon fill="#8dd3c7" stroke="#000000" points="7907.0022,-122 7904.0022,-126 7883.0022,-126 7880.0022,-122 7738.9978,-122 7738.9978,-86 7907.0022,-86 7907.0022,-122"/>
<text text-anchor="middle" x="7823" y="-99.8" font-family="Times,serif" font-size="14.00" fill="#000000">TranslateModule.forRoot()</text>
</g>
<!-- TranslateModule.forRoot()&#45;&gt;AppModule -->
<g id="edge7" class="edge">
<title>TranslateModule.forRoot()&#45;&gt;AppModule</title>
<path fill="none" stroke="#000000" d="M7823,-122.1289C7823,-142.5724 7823,-173 7823,-173 7823,-173 5593.0503,-173 5593.0503,-173"/>
<polygon fill="#000000" stroke="#000000" points="5593.0503,-169.5001 5583.0503,-173 5593.0502,-176.5001 5593.0503,-169.5001"/>
</g>
<!-- BrowserModule.withServerTransition(args) -->
<g id="node9" class="node">
<title>BrowserModule.withServerTransition(args)</title>
<polygon fill="#8dd3c7" stroke="#000000" points="7721.0794,-122 7718.0794,-126 7697.0794,-126 7694.0794,-122 7458.9206,-122 7458.9206,-86 7721.0794,-86 7721.0794,-122"/>
<text text-anchor="middle" x="7590" y="-99.8" font-family="Times,serif" font-size="14.00" fill="#000000">BrowserModule.withServerTransition(args)</text>
</g>
<!-- BrowserModule.withServerTransition(args)&#45;&gt;AppModule -->
<g id="edge8" class="edge">
<title>BrowserModule.withServerTransition(args)&#45;&gt;AppModule</title>
<path fill="none" stroke="#000000" d="M7590,-122.308C7590,-142.1455 7590,-171 7590,-171 7590,-171 5592.858,-171 5592.858,-171"/>
<polygon fill="#000000" stroke="#000000" points="5592.8581,-167.5001 5582.858,-171 5592.858,-174.5001 5592.8581,-167.5001"/>
</g>
<!-- TransferHttpCacheModule.forRoot() -->
<g id="node10" class="node">
<title>TransferHttpCacheModule.forRoot()</title>
<polygon fill="#8dd3c7" stroke="#000000" points="7440.6959,-122 7437.6959,-126 7416.6959,-126 7413.6959,-122 7217.3041,-122 7217.3041,-86 7440.6959,-86 7440.6959,-122"/>
<text text-anchor="middle" x="7329" y="-99.8" font-family="Times,serif" font-size="14.00" fill="#000000">TransferHttpCacheModule.forRoot()</text>
</g>
<!-- TransferHttpCacheModule.forRoot()&#45;&gt;AppModule -->
<g id="edge9" class="edge">
<title>TransferHttpCacheModule.forRoot()&#45;&gt;AppModule</title>
<path fill="none" stroke="#000000" d="M7329,-122.1061C7329,-141.3391 7329,-169 7329,-169 7329,-169 5592.9988,-169 5592.9988,-169"/>
<polygon fill="#000000" stroke="#000000" points="5592.9988,-165.5001 5582.9988,-169 5592.9987,-172.5001 5592.9988,-165.5001"/>
</g>
<!-- NgxPermissionsModule.forRoot() -->
<g id="node11" class="node">
<title>NgxPermissionsModule.forRoot()</title>
<polygon fill="#8dd3c7" stroke="#000000" points="7199.6896,-122 7196.6896,-126 7175.6896,-126 7172.6896,-122 6992.3104,-122 6992.3104,-86 7199.6896,-86 7199.6896,-122"/>
<text text-anchor="middle" x="7096" y="-99.8" font-family="Times,serif" font-size="14.00" fill="#000000">NgxPermissionsModule.forRoot()</text>
</g>
<!-- NgxPermissionsModule.forRoot()&#45;&gt;AppModule -->
<g id="edge10" class="edge">
<title>NgxPermissionsModule.forRoot()&#45;&gt;AppModule</title>
<path fill="none" stroke="#000000" d="M7096,-122.2222C7096,-140.8285 7096,-167 7096,-167 7096,-167 5592.9948,-167 5592.9948,-167"/>
<polygon fill="#000000" stroke="#000000" points="5592.9949,-163.5001 5582.9948,-167 5592.9948,-170.5001 5592.9949,-163.5001"/>
</g>
<!-- IonicModule.forRoot() -->
<g id="node12" class="node">
<title>IonicModule.forRoot()</title>
<polygon fill="#8dd3c7" stroke="#000000" points="6974.1855,-122 6971.1855,-126 6950.1855,-126 6947.1855,-122 6829.8145,-122 6829.8145,-86 6974.1855,-86 6974.1855,-122"/>
<text text-anchor="middle" x="6902" y="-99.8" font-family="Times,serif" font-size="14.00" fill="#000000">IonicModule.forRoot()</text>
</g>
<!-- IonicModule.forRoot()&#45;&gt;AppModule -->
<g id="edge11" class="edge">
<title>IonicModule.forRoot()&#45;&gt;AppModule</title>
<path fill="none" stroke="#000000" d="M6902,-122.302C6902,-140.2699 6902,-165 6902,-165 6902,-165 5592.849,-165 5592.849,-165"/>
<polygon fill="#000000" stroke="#000000" points="5592.8491,-161.5001 5582.849,-165 5592.849,-168.5001 5592.8491,-161.5001"/>
</g>
<!-- AuthModule.forRoot(args) -->
<g id="node13" class="node">
<title>AuthModule.forRoot(args)</title>
<polygon fill="#8dd3c7" stroke="#000000" points="6811.7366,-122 6808.7366,-126 6787.7366,-126 6784.7366,-122 6644.2634,-122 6644.2634,-86 6811.7366,-86 6811.7366,-122"/>
<text text-anchor="middle" x="6728" y="-99.8" font-family="Times,serif" font-size="14.00" fill="#000000">AuthModule.forRoot(args)</text>
</g>
<!-- AuthModule.forRoot(args)&#45;&gt;AppModule -->
<g id="edge12" class="edge">
<title>AuthModule.forRoot(args)&#45;&gt;AppModule</title>
<path fill="none" stroke="#000000" d="M6728,-122.0225C6728,-139.3734 6728,-163 6728,-163 6728,-163 5592.8973,-163 5592.8973,-163"/>
<polygon fill="#000000" stroke="#000000" points="5592.8973,-159.5001 5582.8973,-163 5592.8973,-166.5001 5592.8973,-159.5001"/>
</g>
<!-- AccountModule.forRoot(args) -->
<g id="node14" class="node">
<title>AccountModule.forRoot(args)</title>
<polygon fill="#8dd3c7" stroke="#000000" points="6626.1659,-122 6623.1659,-126 6602.1659,-126 6599.1659,-122 6439.8341,-122 6439.8341,-86 6626.1659,-86 6626.1659,-122"/>
<text text-anchor="middle" x="6533" y="-99.8" font-family="Times,serif" font-size="14.00" fill="#000000">AccountModule.forRoot(args)</text>
</g>
<!-- AccountModule.forRoot(args)&#45;&gt;AppModule -->
<g id="edge13" class="edge">
<title>AccountModule.forRoot(args)&#45;&gt;AppModule</title>
<path fill="none" stroke="#000000" d="M6533,-122.0352C6533,-138.7344 6533,-161 6533,-161 6533,-161 5592.6762,-161 5592.6762,-161"/>
<polygon fill="#000000" stroke="#000000" points="5592.6762,-157.5001 5582.6762,-161 5592.6761,-164.5001 5592.6762,-157.5001"/>
</g>
<!-- LangModule.forRoot(args) -->
<g id="node15" class="node">
<title>LangModule.forRoot(args)</title>
<polygon fill="#8dd3c7" stroke="#000000" points="6422.0064,-122 6419.0064,-126 6398.0064,-126 6395.0064,-122 6253.9936,-122 6253.9936,-86 6422.0064,-86 6422.0064,-122"/>
<text text-anchor="middle" x="6338" y="-99.8" font-family="Times,serif" font-size="14.00" fill="#000000">LangModule.forRoot(args)</text>
</g>
<!-- LangModule.forRoot(args)&#45;&gt;AppModule -->
<g id="edge14" class="edge">
<title>LangModule.forRoot(args)&#45;&gt;AppModule</title>
<path fill="none" stroke="#000000" d="M6338,-122.0091C6338,-138.0494 6338,-159 6338,-159 6338,-159 5592.728,-159 5592.728,-159"/>
<polygon fill="#000000" stroke="#000000" points="5592.7281,-155.5001 5582.728,-159 5592.728,-162.5001 5592.7281,-155.5001"/>
</g>
<!-- RouterModule.forRoot(args) -->
<g id="node16" class="node">
<title>RouterModule.forRoot(args)</title>
<polygon fill="#8dd3c7" stroke="#000000" points="6235.8419,-122 6232.8419,-126 6211.8419,-126 6208.8419,-122 6058.1581,-122 6058.1581,-86 6235.8419,-86 6235.8419,-122"/>
<text text-anchor="middle" x="6147" y="-99.8" font-family="Times,serif" font-size="14.00" fill="#000000">RouterModule.forRoot(args)</text>
</g>
<!-- RouterModule.forRoot(args)&#45;&gt;AppModule -->
<g id="edge15" class="edge">
<title>RouterModule.forRoot(args)&#45;&gt;AppModule</title>
<path fill="none" stroke="#000000" d="M6147,-122.2396C6147,-137.5706 6147,-157 6147,-157 6147,-157 5593.1316,-157 5593.1316,-157"/>
<polygon fill="#000000" stroke="#000000" points="5593.1316,-153.5001 5583.1316,-157 5593.1316,-160.5001 5593.1316,-153.5001"/>
</g>
<!-- MetaModule.forRoot(args) -->
<g id="node17" class="node">
<title>MetaModule.forRoot(args)</title>
<polygon fill="#8dd3c7" stroke="#000000" points="6040.0036,-122 6037.0036,-126 6016.0036,-126 6013.0036,-122 5871.9964,-122 5871.9964,-86 6040.0036,-86 6040.0036,-122"/>
<text text-anchor="middle" x="5956" y="-99.8" font-family="Times,serif" font-size="14.00" fill="#000000">MetaModule.forRoot(args)</text>
</g>
<!-- MetaModule.forRoot(args)&#45;&gt;AppModule -->
<g id="edge16" class="edge">
<title>MetaModule.forRoot(args)&#45;&gt;AppModule</title>
<path fill="none" stroke="#000000" d="M5956,-122.1243C5956,-136.7832 5956,-155 5956,-155 5956,-155 5592.6919,-155 5592.6919,-155"/>
<polygon fill="#000000" stroke="#000000" points="5592.6919,-151.5001 5582.6919,-155 5592.6919,-158.5001 5592.6919,-151.5001"/>
</g>
<!-- AuthModalModule.forRoot(args) -->
<g id="node18" class="node">
<title>AuthModalModule.forRoot(args)</title>
<polygon fill="#8dd3c7" stroke="#000000" points="5853.7863,-122 5850.7863,-126 5829.7863,-126 5826.7863,-122 5650.2137,-122 5650.2137,-86 5853.7863,-86 5853.7863,-122"/>
<text text-anchor="middle" x="5752" y="-99.8" font-family="Times,serif" font-size="14.00" fill="#000000">AuthModalModule.forRoot(args)</text>
</g>
<!-- AuthModalModule.forRoot(args)&#45;&gt;AppModule -->
<g id="edge17" class="edge">
<title>AuthModalModule.forRoot(args)&#45;&gt;AppModule</title>
<path fill="none" stroke="#000000" d="M5752,-122.2458C5752,-136.1772 5752,-153 5752,-153 5752,-153 5592.6868,-153 5592.6868,-153"/>
<polygon fill="#000000" stroke="#000000" points="5592.6868,-149.5001 5582.6868,-153 5592.6868,-156.5001 5592.6868,-149.5001"/>
</g>
<!-- NgxBindIOModule.forRoot() -->
<g id="node19" class="node">
<title>NgxBindIOModule.forRoot()</title>
<polygon fill="#8dd3c7" stroke="#000000" points="5632.0204,-122 5629.0204,-126 5608.0204,-126 5605.0204,-122 5449.9796,-122 5449.9796,-86 5632.0204,-86 5632.0204,-122"/>
<text text-anchor="middle" x="5541" y="-99.8" font-family="Times,serif" font-size="14.00" fill="#000000">NgxBindIOModule.forRoot()</text>
</g>
<!-- NgxBindIOModule.forRoot()&#45;&gt;AppModule -->
<g id="edge18" class="edge">
<title>NgxBindIOModule.forRoot()&#45;&gt;AppModule</title>
<path fill="none" stroke="#000000" d="M5541,-122.1061C5541,-122.1061 5541,-140.991 5541,-140.991"/>
<polygon fill="#000000" stroke="#000000" points="5537.5001,-140.9909 5541,-150.991 5544.5001,-140.991 5537.5001,-140.9909"/>
</g>
<!-- UsersListFiltersModalModule.forRoot() -->
<g id="node20" class="node">
<title>UsersListFiltersModalModule.forRoot()</title>
<polygon fill="#8dd3c7" stroke="#000000" points="5431.8928,-122 5428.8928,-126 5407.8928,-126 5404.8928,-122 5190.1072,-122 5190.1072,-86 5431.8928,-86 5431.8928,-122"/>
<text text-anchor="middle" x="5311" y="-99.8" font-family="Times,serif" font-size="14.00" fill="#000000">UsersListFiltersModalModule.forRoot()</text>
</g>
<!-- UsersListFiltersModalModule.forRoot()&#45;&gt;AppModule -->
<g id="edge19" class="edge">
<title>UsersListFiltersModalModule.forRoot()&#45;&gt;AppModule</title>
<path fill="none" stroke="#000000" d="M5311,-122.2458C5311,-136.1772 5311,-153 5311,-153 5311,-153 5489.0819,-153 5489.0819,-153"/>
<polygon fill="#000000" stroke="#000000" points="5489.0819,-156.5001 5499.0819,-153 5489.0819,-149.5001 5489.0819,-156.5001"/>
</g>
<!-- GroupsListFiltersModalModule.forRoot() -->
<g id="node21" class="node">
<title>GroupsListFiltersModalModule.forRoot()</title>
<polygon fill="#8dd3c7" stroke="#000000" points="5171.7337,-122 5168.7337,-126 5147.7337,-126 5144.7337,-122 4920.2663,-122 4920.2663,-86 5171.7337,-86 5171.7337,-122"/>
<text text-anchor="middle" x="5046" y="-99.8" font-family="Times,serif" font-size="14.00" fill="#000000">GroupsListFiltersModalModule.forRoot()</text>
</g>
<!-- GroupsListFiltersModalModule.forRoot()&#45;&gt;AppModule -->
<g id="edge20" class="edge">
<title>GroupsListFiltersModalModule.forRoot()&#45;&gt;AppModule</title>
<path fill="none" stroke="#000000" d="M5046,-122.1243C5046,-136.7832 5046,-155 5046,-155 5046,-155 5489.2232,-155 5489.2232,-155"/>
<polygon fill="#000000" stroke="#000000" points="5489.2232,-158.5001 5499.2232,-155 5489.2232,-151.5001 5489.2232,-158.5001"/>
</g>
<!-- TasksListFiltersModalModule.forRoot() -->
<g id="node22" class="node">
<title>TasksListFiltersModalModule.forRoot()</title>
<polygon fill="#8dd3c7" stroke="#000000" points="4902.1784,-122 4899.1784,-126 4878.1784,-126 4875.1784,-122 4659.8216,-122 4659.8216,-86 4902.1784,-86 4902.1784,-122"/>
<text text-anchor="middle" x="4781" y="-99.8" font-family="Times,serif" font-size="14.00" fill="#000000">TasksListFiltersModalModule.forRoot()</text>
</g>
<!-- TasksListFiltersModalModule.forRoot()&#45;&gt;AppModule -->
<g id="edge21" class="edge">
<title>TasksListFiltersModalModule.forRoot()&#45;&gt;AppModule</title>
<path fill="none" stroke="#000000" d="M4781,-122.2396C4781,-137.5706 4781,-157 4781,-157 4781,-157 5489.3283,-157 5489.3283,-157"/>
<polygon fill="#000000" stroke="#000000" points="5489.3284,-160.5001 5499.3283,-157 5489.3283,-153.5001 5489.3284,-160.5001"/>
</g>
<!-- ProjectsListFiltersModalModule.forRoot(args) -->
<g id="node23" class="node">
<title>ProjectsListFiltersModalModule.forRoot(args)</title>
<polygon fill="#8dd3c7" stroke="#000000" points="4641.4401,-122 4638.4401,-126 4617.4401,-126 4614.4401,-122 4362.5599,-122 4362.5599,-86 4641.4401,-86 4641.4401,-122"/>
<text text-anchor="middle" x="4502" y="-99.8" font-family="Times,serif" font-size="14.00" fill="#000000">ProjectsListFiltersModalModule.forRoot(args)</text>
</g>
<!-- ProjectsListFiltersModalModule.forRoot(args)&#45;&gt;AppModule -->
<g id="edge22" class="edge">
<title>ProjectsListFiltersModalModule.forRoot(args)&#45;&gt;AppModule</title>
<path fill="none" stroke="#000000" d="M4502,-122.0091C4502,-138.0494 4502,-159 4502,-159 4502,-159 5489.3065,-159 5489.3065,-159"/>
<polygon fill="#000000" stroke="#000000" points="5489.3066,-162.5001 5499.3065,-159 5489.3065,-155.5001 5489.3066,-162.5001"/>
</g>
<!-- RuckenCoreModule -->
<g id="node24" class="node">
<title>RuckenCoreModule</title>
<polygon fill="#8dd3c7" stroke="#000000" points="4344.5283,-122 4341.5283,-126 4320.5283,-126 4317.5283,-122 4215.4717,-122 4215.4717,-86 4344.5283,-86 4344.5283,-122"/>
<text text-anchor="middle" x="4280" y="-99.8" font-family="Times,serif" font-size="14.00" fill="#000000">RuckenCoreModule</text>
</g>
<!-- RuckenCoreModule&#45;&gt;AppModule -->
<g id="edge23" class="edge">
<title>RuckenCoreModule&#45;&gt;AppModule</title>
<path fill="none" stroke="#000000" d="M4280,-122.0352C4280,-138.7344 4280,-161 4280,-161 4280,-161 5489.0443,-161 5489.0443,-161"/>
<polygon fill="#000000" stroke="#000000" points="5489.0443,-164.5001 5499.0443,-161 5489.0442,-157.5001 5489.0443,-164.5001"/>
</g>
<!-- RuckenIonicModule -->
<g id="node25" class="node">
<title>RuckenIonicModule</title>
<polygon fill="#8dd3c7" stroke="#000000" points="4197.5814,-122 4194.5814,-126 4173.5814,-126 4170.5814,-122 4066.4186,-122 4066.4186,-86 4197.5814,-86 4197.5814,-122"/>
<text text-anchor="middle" x="4132" y="-99.8" font-family="Times,serif" font-size="14.00" fill="#000000">RuckenIonicModule</text>
</g>
<!-- RuckenIonicModule&#45;&gt;AppModule -->
<g id="edge24" class="edge">
<title>RuckenIonicModule&#45;&gt;AppModule</title>
<path fill="none" stroke="#000000" d="M4132,-122.0225C4132,-139.3734 4132,-163 4132,-163 4132,-163 5489.2137,-163 5489.2137,-163"/>
<polygon fill="#000000" stroke="#000000" points="5489.2137,-166.5001 5499.2137,-163 5489.2137,-159.5001 5489.2137,-166.5001"/>
</g>
<!-- RuckenTodoCoreModule -->
<g id="node26" class="node">
<title>RuckenTodoCoreModule</title>
<polygon fill="#8dd3c7" stroke="#000000" points="4048.58,-122 4045.58,-126 4024.58,-126 4021.58,-122 3889.42,-122 3889.42,-86 4048.58,-86 4048.58,-122"/>
<text text-anchor="middle" x="3969" y="-99.8" font-family="Times,serif" font-size="14.00" fill="#000000">RuckenTodoCoreModule</text>
</g>
<!-- RuckenTodoCoreModule&#45;&gt;AppModule -->
<g id="edge25" class="edge">
<title>RuckenTodoCoreModule&#45;&gt;AppModule</title>
<path fill="none" stroke="#000000" d="M3969,-122.302C3969,-140.2699 3969,-165 3969,-165 3969,-165 5488.9528,-165 5488.9528,-165"/>
<polygon fill="#000000" stroke="#000000" points="5488.9528,-168.5001 5498.9528,-165 5488.9528,-161.5001 5488.9528,-168.5001"/>
</g>
<!-- RuckenTodoIonicModule -->
<g id="node27" class="node">
<title>RuckenTodoIonicModule</title>
<polygon fill="#8dd3c7" stroke="#000000" points="3871.1344,-122 3868.1344,-126 3847.1344,-126 3844.1344,-122 3710.8656,-122 3710.8656,-86 3871.1344,-86 3871.1344,-122"/>
<text text-anchor="middle" x="3791" y="-99.8" font-family="Times,serif" font-size="14.00" fill="#000000">RuckenTodoIonicModule</text>
</g>
<!-- RuckenTodoIonicModule&#45;&gt;AppModule -->
<g id="edge26" class="edge">
<title>RuckenTodoIonicModule&#45;&gt;AppModule</title>
<path fill="none" stroke="#000000" d="M3791,-122.2222C3791,-140.8285 3791,-167 3791,-167 3791,-167 5489.0389,-167 5489.0389,-167"/>
<polygon fill="#000000" stroke="#000000" points="5489.039,-170.5001 5499.0389,-167 5489.0389,-163.5001 5489.039,-170.5001"/>
</g>
<!-- { provide: CONTENT_TYPES_CONFIG_TOKEN, useValue: &#160;} -->
<g id="node29" class="node">
<title>{ provide: CONTENT_TYPES_CONFIG_TOKEN, useValue: &#160;}</title>
<ellipse fill="#fdb462" stroke="#000000" cx="3424" cy="-104" rx="263.0597" ry="18"/>
<text text-anchor="middle" x="3424" y="-99.8" font-family="Times,serif" font-size="14.00" fill="#000000">{ provide: CONTENT_TYPES_CONFIG_TOKEN, useValue: &#160;}</text>
</g>
<!-- { provide: CONTENT_TYPES_CONFIG_TOKEN, useValue: &#160;}&#45;&gt;AppModule -->
<g id="edge28" class="edge">
<title>{ provide: CONTENT_TYPES_CONFIG_TOKEN, useValue: &#160;}&#45;&gt;AppModule</title>
<path fill="none" stroke="#000000" d="M3424,-122.1061C3424,-141.3391 3424,-169 3424,-169 3424,-169 5489.188,-169 5489.188,-169"/>
<polygon fill="#000000" stroke="#000000" points="5489.188,-172.5001 5499.188,-169 5489.188,-165.5001 5489.188,-172.5001"/>
</g>
<!-- { provide: PERMISSIONS_CONFIG_TOKEN, useValue: &#160;} -->
<g id="node30" class="node">
<title>{ provide: PERMISSIONS_CONFIG_TOKEN, useValue: &#160;}</title>
<ellipse fill="#fdb462" stroke="#000000" cx="2896" cy="-104" rx="246.8224" ry="18"/>
<text text-anchor="middle" x="2896" y="-99.8" font-family="Times,serif" font-size="14.00" fill="#000000">{ provide: PERMISSIONS_CONFIG_TOKEN, useValue: &#160;}</text>
</g>
<!-- { provide: PERMISSIONS_CONFIG_TOKEN, useValue: &#160;}&#45;&gt;AppModule -->
<g id="edge29" class="edge">
<title>{ provide: PERMISSIONS_CONFIG_TOKEN, useValue: &#160;}&#45;&gt;AppModule</title>
<path fill="none" stroke="#000000" d="M2896,-122.308C2896,-142.1455 2896,-171 2896,-171 2896,-171 5489.1867,-171 5489.1867,-171"/>
<polygon fill="#000000" stroke="#000000" points="5489.1868,-174.5001 5499.1867,-171 5489.1867,-167.5001 5489.1868,-174.5001"/>
</g>
<!-- { provide: USERS_CONFIG_TOKEN, useValue: &#160;} -->
<g id="node31" class="node">
<title>{ provide: USERS_CONFIG_TOKEN, useValue: &#160;}</title>
<ellipse fill="#fdb462" stroke="#000000" cx="2417" cy="-104" rx="213.8791" ry="18"/>
<text text-anchor="middle" x="2417" y="-99.8" font-family="Times,serif" font-size="14.00" fill="#000000">{ provide: USERS_CONFIG_TOKEN, useValue: &#160;}</text>
</g>
<!-- { provide: USERS_CONFIG_TOKEN, useValue: &#160;}&#45;&gt;AppModule -->
<g id="edge30" class="edge">
<title>{ provide: USERS_CONFIG_TOKEN, useValue: &#160;}&#45;&gt;AppModule</title>
<path fill="none" stroke="#000000" d="M2417,-122.1289C2417,-142.5724 2417,-173 2417,-173 2417,-173 5489.2005,-173 5489.2005,-173"/>
<polygon fill="#000000" stroke="#000000" points="5489.2005,-176.5001 5499.2005,-173 5489.2005,-169.5001 5489.2005,-176.5001"/>
</g>
<!-- { provide: GROUPS_CONFIG_TOKEN, useValue: &#160;} -->
<g id="node32" class="node">
<title>{ provide: GROUPS_CONFIG_TOKEN, useValue: &#160;}</title>
<ellipse fill="#fdb462" stroke="#000000" cx="1963" cy="-104" rx="221.9656" ry="18"/>
<text text-anchor="middle" x="1963" y="-99.8" font-family="Times,serif" font-size="14.00" fill="#000000">{ provide: GROUPS_CONFIG_TOKEN, useValue: &#160;}</text>
</g>
<!-- { provide: GROUPS_CONFIG_TOKEN, useValue: &#160;}&#45;&gt;AppModule -->
<g id="edge31" class="edge">
<title>{ provide: GROUPS_CONFIG_TOKEN, useValue: &#160;}&#45;&gt;AppModule</title>
<path fill="none" stroke="#000000" d="M1963,-122.2843C1963,-143.3211 1963,-175 1963,-175 1963,-175 5489.2679,-175 5489.2679,-175"/>
<polygon fill="#000000" stroke="#000000" points="5489.2679,-178.5001 5499.2679,-175 5489.2679,-171.5001 5489.2679,-178.5001"/>
</g>
<!-- { provide: PROJECTS_CONFIG_TOKEN, useValue: &#160;} -->
<g id="node33" class="node">
<title>{ provide: PROJECTS_CONFIG_TOKEN, useValue: &#160;}</title>
<ellipse fill="#fdb462" stroke="#000000" cx="1493" cy="-104" rx="230.0695" ry="18"/>
<text text-anchor="middle" x="1493" y="-99.8" font-family="Times,serif" font-size="14.00" fill="#000000">{ provide: PROJECTS_CONFIG_TOKEN, useValue: &#160;}</text>
</g>
<!-- { provide: PROJECTS_CONFIG_TOKEN, useValue: &#160;}&#45;&gt;AppModule -->
<g id="edge32" class="edge">
<title>{ provide: PROJECTS_CONFIG_TOKEN, useValue: &#160;}&#45;&gt;AppModule</title>
<path fill="none" stroke="#000000" d="M1493,-122.0449C1493,-143.6623 1493,-177 1493,-177 1493,-177 5489.2841,-177 5489.2841,-177"/>
<polygon fill="#000000" stroke="#000000" points="5489.2842,-180.5001 5499.2841,-177 5489.2841,-173.5001 5489.2842,-180.5001"/>
</g>
<!-- { provide: TASKS_CONFIG_TOKEN, useValue: &#160;} -->
<g id="node34" class="node">
<title>{ provide: TASKS_CONFIG_TOKEN, useValue: &#160;}</title>
<ellipse fill="#fdb462" stroke="#000000" cx="1030" cy="-104" rx="214.4413" ry="18"/>
<text text-anchor="middle" x="1030" y="-99.8" font-family="Times,serif" font-size="14.00" fill="#000000">{ provide: TASKS_CONFIG_TOKEN, useValue: &#160;}</text>
</g>
<!-- { provide: TASKS_CONFIG_TOKEN, useValue: &#160;}&#45;&gt;AppModule -->
<g id="edge33" class="edge">
<title>{ provide: TASKS_CONFIG_TOKEN, useValue: &#160;}&#45;&gt;AppModule</title>
<path fill="none" stroke="#000000" d="M1030,-122.1554C1030,-144.3519 1030,-179 1030,-179 1030,-179 5489.2234,-179 5489.2234,-179"/>
<polygon fill="#000000" stroke="#000000" points="5489.2234,-182.5001 5499.2234,-179 5489.2233,-175.5001 5489.2234,-182.5001"/>
</g>
<!-- StatusBar -->
<g id="node35" class="node">
<title>StatusBar</title>
<ellipse fill="#fdb462" stroke="#000000" cx="749" cy="-104" rx="48.6694" ry="18"/>
<text text-anchor="middle" x="749" y="-99.8" font-family="Times,serif" font-size="14.00" fill="#000000">StatusBar</text>
</g>
<!-- StatusBar&#45;&gt;AppModule -->
<g id="edge34" class="edge">
<title>StatusBar&#45;&gt;AppModule</title>
<path fill="none" stroke="#000000" d="M749,-122.2479C749,-145.0179 749,-181 749,-181 749,-181 5489.2092,-181 5489.2092,-181"/>
<polygon fill="#000000" stroke="#000000" points="5489.2093,-184.5001 5499.2092,-181 5489.2092,-177.5001 5489.2093,-184.5001"/>
</g>
<!-- SplashScreen -->
<g id="node36" class="node">
<title>SplashScreen</title>
<ellipse fill="#fdb462" stroke="#000000" cx="619" cy="-104" rx="63.1189" ry="18"/>
<text text-anchor="middle" x="619" y="-99.8" font-family="Times,serif" font-size="14.00" fill="#000000">SplashScreen</text>
</g>
<!-- SplashScreen&#45;&gt;AppModule -->
<g id="edge35" class="edge">
<title>SplashScreen&#45;&gt;AppModule</title>
<path fill="none" stroke="#000000" d="M619,-122.3228C619,-145.6602 619,-183 619,-183 619,-183 5489.1914,-183 5489.1914,-183"/>
<polygon fill="#000000" stroke="#000000" points="5489.1914,-186.5001 5499.1914,-183 5489.1913,-179.5001 5489.1914,-186.5001"/>
</g>
<!-- { provide: RouteReuseStrategy, useClass: IonicRouteStrategy } -->
<g id="node37" class="node">
<title>{ provide: RouteReuseStrategy, useClass: IonicRouteStrategy }</title>
<ellipse fill="#fdb462" stroke="#000000" cx="281" cy="-104" rx="257.2723" ry="18"/>
<text text-anchor="middle" x="281" y="-99.8" font-family="Times,serif" font-size="14.00" fill="#000000">{ provide: RouteReuseStrategy, useClass: IonicRouteStrategy }</text>
</g>
<!-- { provide: RouteReuseStrategy, useClass: IonicRouteStrategy }&#45;&gt;AppModule -->
<g id="edge36" class="edge">
<title>{ provide: RouteReuseStrategy, useClass: IonicRouteStrategy }&#45;&gt;AppModule</title>
<path fill="none" stroke="#000000" d="M281,-122.3802C281,-146.2785 281,-185 281,-185 281,-185 5489.044,-185 5489.044,-185"/>
<polygon fill="#000000" stroke="#000000" points="5489.044,-188.5001 5499.044,-185 5489.0439,-181.5001 5489.044,-188.5001"/>
</g>
</g>
</svg>
